Exo2-Light.ufo
<glyph name="exclam" format="2">
  <advance width="266.1764705882353"/>
  <unicode hex="0021"/>
  <outline>
    <contour>
      <point x="164.88235294117646" y="695.0" type="line"/>
      <point x="101.29411764705883" y="695.0" type="line"/>
      <point x="101.29411764705883" y="376.5882352941176" type="line"/>
      <point x="107.52941176470588" y="208.1764705882353" type="line"/>
      <point x="158.64705882352942" y="208.1764705882353" type="line"/>
      <point x="164.88235294117646" y="376.5882352941176" type="line"/>
    </contour>
    <contour>
      <point x="142.35294117647058" y="106.70588235294117" type="curve" smooth="yes"/>
      <point x="124.82352941176471" y="106.70588235294117" type="line" smooth="yes"/>
      <point x="106.94117647058823" y="106.70588235294117"/>
      <point x="100.11764705882354" y="99.88235294117646"/>
      <point x="100.11764705882354" y="82.0" type="curve" smooth="yes"/>
      <point x="100.11764705882354" y="24.705882352941174" type="line" smooth="yes"/>
      <point x="100.11764705882354" y="6.823529411764706"/>
      <point x="106.94117647058823" y="0.0"/>
      <point x="124.82352941176471" y="0.0" type="curve" smooth="yes"/>
      <point x="142.35294117647058" y="0.0" type="line" smooth="yes"/>
      <point x="160.23529411764707" y="0.0"/>
      <point x="167.05882352941177" y="6.823529411764706"/>
      <point x="167.05882352941177" y="24.705882352941174" type="curve" smooth="yes"/>
      <point x="167.05882352941177" y="82.0" type="line" smooth="yes"/>
      <point x="167.05882352941177" y="99.88235294117646"/>
      <point x="160.23529411764707" y="106.70588235294117"/>
    </contour>
  </outline>
</glyph>
<glyph name="quotedbl" format="2">
  <advance width="343.94117647058823"/>
  <unicode hex="0022"/>
  <outline>
    <contour>
      <point x="267.70588235294116" y="690.0" type="line"/>
      <point x="214.52941176470588" y="690.0" type="line"/>
      <point x="218.88235294117646" y="477.7647058823529" type="line"/>
      <point x="263.3529411764706" y="477.7647058823529" type="line"/>
    </contour>
    <contour>
      <point x="129.88235294117646" y="690.0" type="line"/>
      <point x="76.70588235294117" y="690.0" type="line"/>
      <point x="80.58823529411765" y="477.7647058823529" type="line"/>
      <point x="125.52941176470588" y="477.7647058823529" type="line"/>
    </contour>
  </outline>
</glyph>
<glyph name="numbersign" format="2">
  <advance width="678.2941176470588"/>
  <unicode hex="0023"/>
  <outline>
    <contour>
      <point x="300.29411764705884" y="690.0" type="line"/>
      <point x="247.52941176470588" y="690.0" type="line"/>
      <point x="127.52941176470588" y="0.0" type="line"/>
      <point x="180.2941176470588" y="0.0" type="line"/>
    </contour>
    <contour>
      <point x="551.2941176470588" y="690.0" type="line"/>
      <point x="498.52941176470586" y="690.0" type="line"/>
      <point x="378.52941176470586" y="0.0" type="line"/>
      <point x="431.29411764705884" y="0.0" type="line"/>
    </contour>
    <contour>
      <point x="628.1764705882352" y="499.05882352941177" type="line"/>
      <point x="99.88235294117646" y="499.05882352941177" type="line"/>
      <point x="91.6470588235294" y="455.88235294117646" type="line"/>
      <point x="619.9411764705883" y="455.88235294117646" type="line"/>
    </contour>
    <contour>
      <point x="586.1764705882352" y="261.29411764705884" type="line"/>
      <point x="57.88235294117647" y="261.29411764705884" type="line"/>
      <point x="49.64705882352941" y="218.11764705882354" type="line"/>
      <point x="577.9411764705883" y="218.11764705882354" type="line"/>
    </contour>
  </outline>
</glyph>
<glyph name="ampersand" format="2">
  <advance width="775.9411764705883"/>
  <unicode hex="0026"/>
  <outline>
    <contour>
      <point x="350.88235294117646" y="699.4117647058823" type="curve" smooth="yes"/>
      <point x="170.11764705882354" y="699.4117647058823"/>
      <point x="91.52941176470588" y="681.0"/>
      <point x="91.52941176470588" y="521.0" type="curve" smooth="yes"/>
      <point x="91.52941176470588" y="422.05882352941177"/>
      <point x="122.0" y="367.47058823529414"/>
      <point x="207.58823529411765" y="360.0" type="curve"/>
      <point x="207.58823529411765" y="356.0" type="line"/>
      <point x="105.0" y="347.0"/>
      <point x="71.52941176470588" y="280.0"/>
      <point x="71.52941176470588" y="174.47058823529412" type="curve" smooth="yes"/>
      <point x="71.52941176470588" y="35.470588235294116"/>
      <point x="128.47058823529412" y="-9.411764705882353"/>
      <point x="272.4117647058824" y="-9.411764705882353" type="curve" smooth="yes"/>
      <point x="392.11764705882354" y="-9.411764705882353"/>
      <point x="464.47058823529414" y="20.705882352941178"/>
      <point x="532.2352941176471" y="109.82352941176471" type="curve"/>
      <point x="518.2352941176471" y="150.2941176470588" type="line"/>
      <point x="461.3529411764706" y="80.82352941176471"/>
      <point x="393.2352941176471" y="48.411764705882355"/>
      <point x="285.0" y="47.94117647058823" type="curve" smooth="yes"/>
      <point x="175.88235294117646" y="47.94117647058823"/>
      <point x="140.35294117647058" y="79.82352941176471"/>
      <point x="140.35294117647058" y="183.88235294117646" type="curve" smooth="yes"/>
      <point x="140.35294117647058" y="299.11764705882354"/>
      <point x="184.0" y="331.94117647058823"/>
      <point x="304.3529411764706" y="331.94117647058823" type="curve" smooth="yes"/>
      <point x="698.6470588235294" y="331.94117647058823" type="line"/>
      <point x="700.2352941176471" y="382.5882352941176" type="line"/>
      <point x="307.1764705882353" y="382.5882352941176" type="line" smooth="yes"/>
      <point x="196.47058823529412" y="382.5882352941176"/>
      <point x="158.47058823529412" y="408.8235294117647"/>
      <point x="158.47058823529412" y="512.9411764705883" type="curve" smooth="yes"/>
      <point x="158.47058823529412" y="627.7647058823529"/>
      <point x="205.64705882352942" y="644.4117647058823"/>
      <point x="348.94117647058823" y="644.4117647058823" type="curve" smooth="yes"/>
      <point x="393.5882352941176" y="644.4117647058823"/>
      <point x="478.4117647058824" y="643.4117647058823"/>
      <point x="502.11764705882354" y="641.4117647058823" type="curve"/>
      <point x="510.3529411764706" y="690.0" type="line"/>
      <point x="449.29411764705884" y="698.4117647058823"/>
      <point x="393.4117647058824" y="699.4117647058823"/>
    </contour>
    <contour>
      <point x="569.1176470588235" y="520.7058823529412" type="line"/>
      <point x="517.2352941176471" y="520.7058823529412" type="line"/>
      <point x="508.88235294117646" y="362.52941176470586" type="line"/>
      <point x="508.88235294117646" y="101.58823529411765" type="line" smooth="yes"/>
      <point x="508.88235294117646" y="31.88235294117647"/>
      <point x="549.1176470588235" y="-7.882352941176471"/>
      <point x="626.8823529411765" y="-7.882352941176471" type="curve" smooth="yes"/>
      <point x="649.0588235294117" y="-7.882352941176471"/>
      <point x="695.7058823529412" y="-4.470588235294118"/>
      <point x="725.0588235294117" y="2.3529411764705883" type="curve"/>
      <point x="717.8235294117648" y="48.0" type="line"/>
      <point x="638.7647058823529" y="48.0" type="line" smooth="yes"/>
      <point x="591.0588235294117" y="48.0"/>
      <point x="569.1176470588235" y="69.35294117647058"/>
      <point x="569.1176470588235" y="118.58823529411765" type="curve" smooth="yes"/>
    </contour>
  </outline>
</glyph>
<glyph name="quotesingle" format="2">
  <advance width="206.11764705882354"/>
  <unicode hex="0027"/>
  <outline>
    <contour>
      <point x="129.88235294117646" y="690.0" type="line"/>
      <point x="76.70588235294117" y="690.0" type="line"/>
      <point x="80.58823529411765" y="477.7647058823529" type="line"/>
      <point x="125.52941176470588" y="477.7647058823529" type="line"/>
    </contour>
  </outline>
</glyph>
<glyph name="parenleft" format="2">
  <advance width="357.8235294117647"/>
  <unicode hex="0028"/>
  <outline>
    <contour>
      <point x="313.05882352941177" y="790.0" type="line"/>
      <point x="138.2941176470588" y="718.2352941176471"/>
      <point x="59.11764705882353" y="568.2352941176471"/>
      <point x="59.11764705882353" y="312.0" type="curve" smooth="yes"/>
      <point x="59.11764705882353" y="57.76470588235294"/>
      <point x="138.2941176470588" y="-92.23529411764706"/>
      <point x="313.05882352941177" y="-165.0" type="curve"/>
      <point x="321.29411764705884" y="-132.41176470588235" type="line"/>
      <point x="183.23529411764707" y="-59.470588235294116"/>
      <point x="122.29411764705883" y="85.52941176470588"/>
      <point x="122.29411764705883" y="313.0" type="curve" smooth="yes"/>
      <point x="122.29411764705883" y="544.4705882352941"/>
      <point x="183.23529411764707" y="688.4705882352941"/>
      <point x="321.29411764705884" y="757.4117647058823" type="curve"/>
    </contour>
  </outline>
</glyph>
<glyph name="parenright" format="2">
  <advance width="357.8235294117647"/>
  <unicode hex="0029"/>
  <outline>
    <contour>
      <point x="44.76470588235294" y="790.0" type="curve"/>
      <point x="36.529411764705884" y="757.4117647058823" type="line"/>
      <point x="174.58823529411765" y="688.4705882352941"/>
      <point x="235.52941176470588" y="544.4705882352941"/>
      <point x="235.52941176470588" y="313.0" type="curve" smooth="yes"/>
      <point x="235.52941176470588" y="85.52941176470588"/>
      <point x="174.58823529411765" y="-59.470588235294116"/>
      <point x="36.529411764705884" y="-132.41176470588235" type="curve"/>
      <point x="44.76470588235294" y="-165.0" type="line"/>
      <point x="219.52941176470588" y="-92.23529411764706"/>
      <point x="298.70588235294116" y="57.76470588235294"/>
      <point x="298.70588235294116" y="312.0" type="curve" smooth="yes"/>
      <point x="298.70588235294116" y="568.2352941176471"/>
      <point x="219.52941176470588" y="718.2352941176471"/>
    </contour>
  </outline>
</glyph>
<glyph name="asterisk" format="2">
  <advance width="451.11764705882354"/>
  <unicode hex="002A"/>
  <outline>
    <contour>
      <point x="247.0" y="690.4705882352941" type="line"/>
      <point x="204.64705882352942" y="690.4705882352941" type="line"/>
      <point x="210.47058823529412" y="532.7647058823529" type="line"/>
      <point x="112.23529411764706" y="404.7647058823529" type="line"/>
      <point x="146.2941176470588" y="380.47058823529414" type="line"/>
      <point x="225.05882352941177" y="503.52941176470586" type="line"/>
      <point x="304.8235294117647" y="379.47058823529414" type="line"/>
      <point x="337.88235294117646" y="403.7647058823529" type="line"/>
      <point x="239.64705882352942" y="532.7647058823529" type="line"/>
    </contour>
    <contour>
      <point x="73.88235294117646" y="598.1176470588235" type="line"/>
      <point x="60.23529411764706" y="558.7058823529412" type="line"/>
      <point x="184.76470588235293" y="523.0" type="line"/>
      <point x="193.0" y="535.2352941176471" type="line"/>
      <point x="194.0" y="552.7058823529412" type="line"/>
    </contour>
    <contour>
      <point x="377.7647058823529" y="597.0588235294117" type="line"/>
      <point x="257.11764705882354" y="552.7058823529412" type="line"/>
      <point x="257.11764705882354" y="535.2352941176471" type="line"/>
      <point x="265.8235294117647" y="523.0" type="line"/>
      <point x="391.4117647058824" y="557.1764705882352" type="line"/>
    </contour>
  </outline>
</glyph>
<glyph name="plus" format="2">
  <advance width="551.5882352941177"/>
  <unicode hex="002B"/>
  <outline>
    <contour>
      <point x="490.6470588235294" y="322.5882352941176" type="line"/>
      <point x="60.470588235294116" y="322.5882352941176" type="line"/>
      <point x="60.470588235294116" y="273.7647058823529" type="line"/>
      <point x="490.6470588235294" y="273.7647058823529" type="line"/>
    </contour>
    <contour>
      <point x="300.70588235294116" y="503.0" type="line"/>
      <point x="249.94117647058823" y="503.0" type="line"/>
      <point x="250.94117647058823" y="93.3529411764706" type="line"/>
      <point x="300.1764705882353" y="93.3529411764706" type="line"/>
    </contour>
  </outline>
</glyph>
<glyph name="comma" format="2">
  <advance width="220.7058823529412"/>
  <unicode hex="002C"/>
  <outline>
    <contour>
      <point x="120.76470588235294" y="106.70588235294117" type="curve" smooth="yes"/>
      <point x="101.41176470588235" y="106.70588235294117" type="line" smooth="yes"/>
      <point x="84.0" y="106.70588235294117"/>
      <point x="76.70588235294117" y="99.88235294117646"/>
      <point x="76.29411764705883" y="82.0" type="curve" smooth="yes"/>
      <point x="75.76470588235294" y="21.294117647058822" type="line" smooth="yes"/>
      <point x="75.23529411764706" y="8.235294117647058"/>
      <point x="82.52941176470588" y="0.0"/>
      <point x="93.58823529411765" y="0.0" type="curve"/>
      <point x="93.58823529411765" y="-49.588235294117645"/>
      <point x="91.17647058823529" y="-76.70588235294117"/>
      <point x="85.82352941176471" y="-117.17647058823529" type="curve"/>
      <point x="116.17647058823529" y="-126.41176470588235" type="line"/>
      <point x="133.76470588235293" y="-83.6470588235294"/>
      <point x="144.0" y="-31.647058823529413"/>
      <point x="145.0" y="18.0" type="curve" smooth="yes"/>
      <point x="145.05882352941177" y="82.0" type="line" smooth="yes"/>
      <point x="145.0" y="99.88235294117646"/>
      <point x="138.64705882352942" y="106.70588235294117"/>
    </contour>
  </outline>
</glyph>
<glyph name="hyphen" format="2">
  <advance width="460.88235294117646"/>
  <unicode hex="002D"/>
  <outline>
    <contour>
      <point x="383.8235294117647" y="277.05882352941177" type="line"/>
      <point x="77.05882352941177" y="277.05882352941177" type="line"/>
      <point x="77.05882352941177" y="227.2941176470588" type="line"/>
      <point x="383.8235294117647" y="227.2941176470588" type="line"/>
    </contour>
  </outline>
</glyph>
<glyph name="period" format="2">
  <advance width="220.58823529411765"/>
  <unicode hex="002E"/>
  <outline>
    <contour>
      <point x="121.17647058823529" y="106.70588235294117" type="curve" smooth="yes"/>
      <point x="99.41176470588235" y="106.70588235294117" type="line" smooth="yes"/>
      <point x="81.52941176470588" y="106.70588235294117"/>
      <point x="74.70588235294117" y="99.88235294117646"/>
      <point x="74.70588235294117" y="82.0" type="curve" smooth="yes"/>
      <point x="74.70588235294117" y="24.705882352941174" type="line" smooth="yes"/>
      <point x="74.70588235294117" y="6.823529411764706"/>
      <point x="81.52941176470588" y="0.0"/>
      <point x="99.41176470588235" y="0.0" type="curve" smooth="yes"/>
      <point x="121.17647058823529" y="0.0" type="line" smooth="yes"/>
      <point x="139.05882352941177" y="0.0"/>
      <point x="145.88235294117646" y="6.823529411764706"/>
      <point x="145.88235294117646" y="24.705882352941174" type="curve" smooth="yes"/>
      <point x="145.88235294117646" y="82.0" type="line" smooth="yes"/>
      <point x="145.88235294117646" y="99.88235294117646"/>
      <point x="139.05882352941177" y="106.70588235294117"/>
    </contour>
  </outline>
</glyph>
<glyph name="slash" format="2">
  <advance width="509.05882352941177"/>
  <unicode hex="002F"/>
  <outline>
    <contour>
      <point x="478.11764705882354" y="690.0" type="line"/>
      <point x="423.94117647058823" y="690.0" type="line"/>
      <point x="30.941176470588236" y="-63.23529411764706" type="line"/>
      <point x="85.11764705882354" y="-63.23529411764706" type="line"/>
    </contour>
  </outline>
</glyph>
<glyph name="zero" format="2">
  <advance width="596.2352941176471"/>
  <unicode hex="0030"/>
  <outline>
    <contour>
      <point x="298.11764705882354" y="702.4705882352941" type="curve" smooth="yes"/>
      <point x="126.76470588235294" y="702.4705882352941"/>
      <point x="68.52941176470588" y="594.1176470588235"/>
      <point x="68.52941176470588" y="345.0" type="curve" smooth="yes"/>
      <point x="68.52941176470588" y="95.88235294117646"/>
      <point x="126.76470588235294" y="-12.470588235294118"/>
      <point x="298.11764705882354" y="-12.470588235294118" type="curve" smooth="yes"/>
      <point x="469.47058823529414" y="-12.470588235294118"/>
      <point x="527.7058823529412" y="95.88235294117646"/>
      <point x="527.7058823529412" y="345.0" type="curve" smooth="yes"/>
      <point x="527.7058823529412" y="594.1176470588235"/>
      <point x="469.47058823529414" y="702.4705882352941"/>
    </contour>
    <contour>
      <point x="297.6470588235294" y="645.1176470588235" type="curve" smooth="yes"/>
      <point x="422.70588235294116" y="645.1176470588235"/>
      <point x="463.11764705882354" y="557.4705882352941"/>
      <point x="463.11764705882354" y="345.0" type="curve" smooth="yes"/>
      <point x="463.11764705882354" y="132.52941176470588"/>
      <point x="422.70588235294116" y="44.88235294117647"/>
      <point x="297.6470588235294" y="44.88235294117647" type="curve" smooth="yes"/>
      <point x="173.52941176470588" y="44.88235294117647"/>
      <point x="133.11764705882354" y="132.52941176470588"/>
      <point x="133.11764705882354" y="345.0" type="curve" smooth="yes"/>
      <point x="133.11764705882354" y="557.4705882352941"/>
      <point x="173.52941176470588" y="645.1176470588235"/>
    </contour>
  </outline>
</glyph>
<glyph name="one" format="2">
  <advance width="391.1764705882353"/>
  <unicode hex="0031"/>
  <outline>
    <contour>
      <point x="273.5882352941176" y="690.0" type="line"/>
      <point x="208.11764705882354" y="690.0" type="line"/>
      <point x="27.588235294117645" y="618.4117647058823" type="line"/>
      <point x="36.8235294117647" y="570.8823529411765" type="line"/>
      <point x="212.05882352941177" y="627.2941176470588" type="line"/>
      <point x="209.11764705882354" y="609.0"/>
      <point x="208.11764705882354" y="590.6470588235294"/>
      <point x="208.11764705882354" y="572.3529411764706" type="curve" smooth="yes"/>
      <point x="208.11764705882354" y="0.0" type="line"/>
      <point x="273.5882352941176" y="0.0" type="line"/>
    </contour>
  </outline>
</glyph>
<glyph name="two" format="2">
  <advance width="560.2941176470588"/>
  <unicode hex="0032"/>
  <outline>
    <contour>
      <point x="268.70588235294116" y="702.0" type="curve" smooth="yes"/>
      <point x="208.94117647058823" y="702.0"/>
      <point x="157.8235294117647" y="698.0"/>
      <point x="63.294117647058826" y="675.9411764705883" type="curve"/>
      <point x="69.29411764705883" y="625.4705882352941" type="line"/>
      <point x="155.23529411764707" y="640.6470588235294"/>
      <point x="202.23529411764707" y="643.7058823529412"/>
      <point x="266.1764705882353" y="643.7058823529412" type="curve" smooth="yes"/>
      <point x="352.4117647058824" y="643.7058823529412"/>
      <point x="406.70588235294116" y="635.1176470588235"/>
      <point x="409.7647058823529" y="557.4117647058823" type="curve" smooth="yes"/>
      <point x="412.29411764705884" y="485.2352941176471"/>
      <point x="371.29411764705884" y="413.94117647058823"/>
      <point x="282.05882352941177" y="313.94117647058823" type="curve" smooth="yes"/>
      <point x="67.94117647058823" y="69.88235294117646" type="line" smooth="yes"/>
      <point x="60.23529411764706" y="61.1764705882353"/>
      <point x="57.76470588235294" y="52.470588235294116"/>
      <point x="57.76470588235294" y="40.35294117647059" type="curve" smooth="yes"/>
      <point x="57.76470588235294" y="0.0" type="line"/>
      <point x="504.0" y="0.0" type="line"/>
      <point x="504.0" y="62.470588235294116" type="line"/>
      <point x="252.58823529411765" y="62.470588235294116" type="line" smooth="yes"/>
      <point x="215.41176470588235" y="62.470588235294116"/>
      <point x="174.94117647058823" y="62.0"/>
      <point x="137.76470588235293" y="60.11764705882353" type="curve"/>
      <point x="348.11764705882354" y="297.52941176470586" type="line" smooth="yes"/>
      <point x="440.1764705882353" y="401.7647058823529"/>
      <point x="476.7647058823529" y="467.6470588235294"/>
      <point x="476.7647058823529" y="556.9411764705883" type="curve" smooth="yes"/>
      <point x="476.7647058823529" y="679.1764705882352"/>
      <point x="399.05882352941177" y="702.0"/>
    </contour>
  </outline>
</glyph>
<glyph name="three" format="2">
  <advance width="554.8235294117648"/>
  <unicode hex="0033"/>
  <outline>
    <contour>
      <point x="254.05882352941177" y="702.4705882352941" type="curve" smooth="yes"/>
      <point x="191.23529411764707" y="702.4705882352941"/>
      <point x="132.58823529411765" y="696.4705882352941"/>
      <point x="66.29411764705883" y="685.0" type="curve"/>
      <point x="73.29411764705883" y="634.5294117647059" type="line"/>
      <point x="119.23529411764706" y="639.5882352941177"/>
      <point x="182.1764705882353" y="644.1764705882352"/>
      <point x="246.58823529411765" y="644.1764705882352" type="curve" smooth="yes"/>
      <point x="362.70588235294116" y="644.1764705882352"/>
      <point x="399.6470588235294" y="624.0588235294117"/>
      <point x="401.70588235294116" y="529.7647058823529" type="curve" smooth="yes"/>
      <point x="402.1764705882353" y="465.1764705882353"/>
      <point x="390.05882352941177" y="391.7647058823529"/>
      <point x="269.4117647058824" y="390.1764705882353" type="curve" smooth="yes"/>
      <point x="141.35294117647058" y="388.5882352941176" type="line"/>
      <point x="141.35294117647058" y="338.11764705882354" type="line"/>
      <point x="269.4117647058824" y="337.5882352941176" type="line" smooth="yes"/>
      <point x="393.5882352941176" y="337.05882352941177"/>
      <point x="418.29411764705884" y="275.94117647058823"/>
      <point x="418.29411764705884" y="198.11764705882354" type="curve" smooth="yes"/>
      <point x="418.29411764705884" y="85.94117647058823"/>
      <point x="371.8235294117647" y="46.294117647058826"/>
      <point x="254.58823529411765" y="46.294117647058826" type="curve" smooth="yes"/>
      <point x="188.35294117647058" y="46.294117647058826"/>
      <point x="125.41176470588235" y="50.88235294117647"/>
      <point x="61.35294117647059" y="56.88235294117647" type="curve"/>
      <point x="55.35294117647059" y="5.0" type="line"/>
      <point x="123.17647058823529" y="-4.470588235294118"/>
      <point x="196.47058823529412" y="-12.470588235294118"/>
      <point x="269.29411764705884" y="-12.470588235294118" type="curve" smooth="yes"/>
      <point x="429.47058823529414" y="-12.470588235294118"/>
      <point x="485.8235294117647" y="53.64705882352941"/>
      <point x="483.29411764705884" y="192.0" type="curve" smooth="yes"/>
      <point x="481.29411764705884" y="284.2352941176471"/>
      <point x="452.70588235294116" y="350.0"/>
      <point x="360.47058823529414" y="365.0" type="curve"/>
      <point x="360.47058823529414" y="369.0" type="line"/>
      <point x="441.11764705882354" y="385.05882352941177"/>
      <point x="464.7647058823529" y="456.7647058823529"/>
      <point x="464.7647058823529" y="543.0" type="curve" smooth="yes"/>
      <point x="464.7647058823529" y="664.4705882352941"/>
      <point x="405.6470588235294" y="702.4705882352941"/>
    </contour>
  </outline>
</glyph>
<glyph name="four" format="2">
  <advance width="607.7058823529412"/>
  <unicode hex="0034"/>
  <outline>
    <contour>
      <point x="322.11764705882354" y="690.0" type="line"/>
      <point x="257.05882352941177" y="690.0" type="line"/>
      <point x="51.470588235294116" y="275.4117647058824" type="line" smooth="yes"/>
      <point x="29.11764705882353" y="229.0"/>
      <point x="58.8235294117647" y="178.58823529411765"/>
      <point x="110.17647058823529" y="178.58823529411765" type="curve" smooth="yes"/>
      <point x="466.52941176470586" y="178.58823529411765" type="line"/>
      <point x="559.7647058823529" y="185.88235294117646" type="line"/>
      <point x="559.7647058823529" y="232.58823529411765" type="line"/>
      <point x="143.94117647058823" y="232.58823529411765" type="line" smooth="yes"/>
      <point x="119.29411764705883" y="232.58823529411765"/>
      <point x="105.23529411764706" y="251.0"/>
      <point x="117.76470588235294" y="276.4117647058824" type="curve" smooth="yes"/>
    </contour>
    <contour>
      <point x="473.52941176470586" y="558.5882352941177" type="line"/>
      <point x="423.52941176470586" y="558.5882352941177" type="line"/>
      <point x="410.88235294117646" y="443.94117647058823" type="line"/>
      <point x="410.88235294117646" y="0.0" type="line"/>
      <point x="473.52941176470586" y="0.0" type="line"/>
    </contour>
  </outline>
</glyph>
<glyph name="five" format="2">
  <advance width="532.5882352941177"/>
  <unicode hex="0035"/>
  <outline>
    <contour>
      <point x="452.11764705882354" y="690.0" type="line"/>
      <point x="97.88235294117646" y="690.0" type="line"/>
      <point x="82.94117647058823" y="394.52941176470586" type="line" smooth="yes"/>
      <point x="81.94117647058823" y="378.05882352941177"/>
      <point x="93.11764705882354" y="365.47058823529414"/>
      <point x="109.11764705882354" y="364.52941176470586" type="curve" smooth="yes"/>
      <point x="143.35294117647058" y="362.1764705882353" type="line" smooth="yes"/>
      <point x="337.47058823529414" y="355.11764705882354"/>
      <point x="409.52941176470586" y="347.94117647058823"/>
      <point x="408.11764705882354" y="205.35294117647058" type="curve" smooth="yes"/>
      <point x="407.1764705882353" y="106.41176470588235"/>
      <point x="381.52941176470586" y="46.23529411764706"/>
      <point x="239.8235294117647" y="46.23529411764706" type="curve" smooth="yes"/>
      <point x="193.8235294117647" y="46.23529411764706"/>
      <point x="126.82352941176471" y="53.8235294117647"/>
      <point x="65.3529411764706" y="66.47058823529412" type="curve"/>
      <point x="56.529411764705884" y="14.117647058823529" type="line"/>
      <point x="128.76470588235293" y="-3.4705882352941178"/>
      <point x="200.88235294117646" y="-12.0"/>
      <point x="253.58823529411765" y="-12.0" type="curve" smooth="yes"/>
      <point x="443.11764705882354" y="-12.0"/>
      <point x="472.11764705882354" y="95.94117647058823"/>
      <point x="472.11764705882354" y="205.35294117647058" type="curve" smooth="yes"/>
      <point x="472.5882352941176" y="363.3529411764706"/>
      <point x="396.29411764705884" y="405.1764705882353"/>
      <point x="208.52941176470588" y="414.7647058823529" type="curve" smooth="yes"/>
      <point x="141.2941176470588" y="418.52941176470586" type="line"/>
      <point x="151.88235294117646" y="633.6470588235294" type="line"/>
      <point x="448.6470588235294" y="633.6470588235294" type="line"/>
    </contour>
  </outline>
</glyph>
<glyph name="six" format="2">
  <advance width="569.1764705882352"/>
  <unicode hex="0036"/>
  <outline>
    <contour>
      <point x="334.0" y="702.0" type="curve" smooth="yes"/>
      <point x="151.47058823529412" y="702.0"/>
      <point x="71.58823529411765" y="651.9411764705883"/>
      <point x="71.58823529411765" y="318.47058823529414" type="curve" smooth="yes"/>
      <point x="71.58823529411765" y="69.23529411764706"/>
      <point x="106.76470588235294" y="-12.0"/>
      <point x="296.7647058823529" y="-12.0" type="curve" smooth="yes"/>
      <point x="479.94117647058823" y="-12.0"/>
      <point x="510.1764705882353" y="77.05882352941177"/>
      <point x="510.1764705882353" y="216.8235294117647" type="curve" smooth="yes"/>
      <point x="510.1764705882353" y="387.1764705882353"/>
      <point x="465.70588235294116" y="447.11764705882354"/>
      <point x="321.29411764705884" y="447.11764705882354" type="curve" smooth="yes"/>
      <point x="225.2941176470588" y="447.11764705882354"/>
      <point x="174.1764705882353" y="420.11764705882354"/>
      <point x="108.6470588235294" y="327.8235294117647" type="curve"/>
      <point x="112.6470588235294" y="293.47058823529414" type="line"/>
      <point x="188.11764705882354" y="372.52941176470586"/>
      <point x="235.11764705882354" y="393.11764705882354"/>
      <point x="306.11764705882354" y="393.11764705882354" type="curve" smooth="yes"/>
      <point x="418.29411764705884" y="393.11764705882354"/>
      <point x="447.05882352941177" y="344.47058823529414"/>
      <point x="447.05882352941177" y="217.94117647058823" type="curve" smooth="yes"/>
      <point x="447.05882352941177" y="107.0"/>
      <point x="429.2352941176471" y="44.35294117647059"/>
      <point x="297.7647058823529" y="44.35294117647059" type="curve" smooth="yes"/>
      <point x="151.05882352941177" y="44.35294117647059"/>
      <point x="136.64705882352942" y="113.29411764705883"/>
      <point x="136.64705882352942" y="315.47058823529414" type="curve" smooth="yes"/>
      <point x="136.64705882352942" y="601.1176470588235"/>
      <point x="184.52941176470588" y="645.5882352941177"/>
      <point x="334.0" y="645.5882352941177" type="curve" smooth="yes"/>
      <point x="390.5882352941176" y="645.5882352941177"/>
      <point x="415.94117647058823" y="645.5882352941177"/>
      <point x="458.1764705882353" y="640.4705882352941" type="curve"/>
      <point x="466.1764705882353" y="688.1176470588235" type="line"/>
      <point x="413.0" y="702.0"/>
      <point x="360.3529411764706" y="702.0"/>
    </contour>
  </outline>
</glyph>
<glyph name="seven" format="2">
  <advance width="509.70588235294116"/>
  <unicode hex="0037"/>
  <outline>
    <contour>
      <point x="427.8235294117647" y="690.0" type="curve" smooth="yes"/>
      <point x="41.88235294117647" y="690.0" type="line"/>
      <point x="45.294117647058826" y="634.1176470588235" type="line"/>
      <point x="404.47058823529414" y="634.1176470588235" type="line"/>
      <point x="397.6470588235294" y="618.7647058823529"/>
      <point x="391.2352941176471" y="603.4705882352941"/>
      <point x="386.29411764705884" y="587.6470588235294" type="curve" smooth="yes"/>
      <point x="183.2941176470588" y="0.0" type="line"/>
      <point x="248.76470588235293" y="0.0" type="line"/>
      <point x="467.70588235294116" y="636.2941176470588" type="line" smooth="yes"/>
      <point x="479.11764705882354" y="671.4705882352941"/>
      <point x="466.0" y="690.0"/>
    </contour>
  </outline>
</glyph>
<glyph name="eight" format="2">
  <advance width="608.6470588235294"/>
  <unicode hex="0038"/>
  <outline>
    <contour>
      <point x="304.5882352941176" y="699.4117647058823" type="curve" smooth="yes"/>
      <point x="133.52941176470588" y="699.4117647058823"/>
      <point x="89.58823529411765" y="643.4117647058823"/>
      <point x="89.58823529411765" y="518.0" type="curve" smooth="yes"/>
      <point x="89.58823529411765" y="425.11764705882354"/>
      <point x="118.11764705882354" y="368.0"/>
      <point x="188.11764705882354" y="360.0" type="curve"/>
      <point x="188.11764705882354" y="356.0" type="line"/>
      <point x="102.23529411764706" y="347.0"/>
      <point x="74.6470588235294" y="282.88235294117646"/>
      <point x="74.6470588235294" y="172.0" type="curve" smooth="yes"/>
      <point x="74.6470588235294" y="44.294117647058826"/>
      <point x="122.05882352941177" y="-9.411764705882353"/>
      <point x="304.5882352941176" y="-9.411764705882353" type="curve" smooth="yes"/>
      <point x="490.11764705882354" y="-9.411764705882353"/>
      <point x="534.0" y="44.294117647058826"/>
      <point x="534.0" y="172.0" type="curve" smooth="yes"/>
      <point x="534.0" y="282.88235294117646"/>
      <point x="506.4117647058824" y="347.0"/>
      <point x="420.52941176470586" y="356.0" type="curve"/>
      <point x="420.52941176470586" y="360.0" type="line"/>
      <point x="490.52941176470586" y="368.0"/>
      <point x="519.0588235294117" y="425.11764705882354"/>
      <point x="519.0588235294117" y="518.0" type="curve" smooth="yes"/>
      <point x="519.0588235294117" y="643.4117647058823"/>
      <point x="476.6470588235294" y="699.4705882352941"/>
    </contour>
    <contour>
      <point x="306.05882352941177" y="331.47058823529414" type="curve" smooth="yes"/>
      <point x="439.47058823529414" y="331.47058823529414"/>
      <point x="470.88235294117646" y="308.5882352941176"/>
      <point x="470.88235294117646" y="183.76470588235293" type="curve" smooth="yes"/>
      <point x="470.88235294117646" y="83.47058823529412"/>
      <point x="440.52941176470586" y="48.0"/>
      <point x="305.05882352941177" y="48.0" type="curve" smooth="yes"/>
      <point x="170.1764705882353" y="48.0"/>
      <point x="137.2941176470588" y="83.47058823529412"/>
      <point x="137.2941176470588" y="183.76470588235293" type="curve" smooth="yes"/>
      <point x="137.2941176470588" y="306.5882352941176"/>
      <point x="169.11764705882354" y="330.47058823529414"/>
    </contour>
    <contour>
      <point x="305.05882352941177" y="645.3529411764706" type="curve" smooth="yes"/>
      <point x="431.47058823529414" y="645.3529411764706"/>
      <point x="458.29411764705884" y="611.8823529411765"/>
      <point x="458.29411764705884" y="512.8235294117648" type="curve" smooth="yes"/>
      <point x="458.29411764705884" y="407.47058823529414"/>
      <point x="434.47058823529414" y="384.52941176470586"/>
      <point x="306.05882352941177" y="384.52941176470586" type="curve" smooth="yes"/>
      <point x="180.7058823529412" y="384.52941176470586"/>
      <point x="150.35294117647058" y="405.94117647058823"/>
      <point x="150.35294117647058" y="512.8235294117648" type="curve" smooth="yes"/>
      <point x="150.35294117647058" y="611.8823529411765"/>
      <point x="179.7058823529412" y="645.3529411764706"/>
    </contour>
  </outline>
</glyph>
<glyph name="nine" format="2">
  <advance width="569.7058823529412"/>
  <unicode hex="0039"/>
  <outline>
    <contour>
      <point x="273.7647058823529" y="702.0" type="curve" smooth="yes"/>
      <point x="109.41176470588235" y="702.0"/>
      <point x="59.0" y="620.2352941176471"/>
      <point x="59.470588235294116" y="467.88235294117646" type="curve" smooth="yes"/>
      <point x="59.470588235294116" y="332.2352941176471"/>
      <point x="105.05882352941177" y="242.88235294117646"/>
      <point x="245.41176470588235" y="242.88235294117646" type="curve" smooth="yes"/>
      <point x="340.88235294117646" y="242.88235294117646"/>
      <point x="392.0" y="269.88235294117646"/>
      <point x="457.52941176470586" y="362.1764705882353" type="curve"/>
      <point x="453.52941176470586" y="396.05882352941177" type="line"/>
      <point x="378.05882352941177" y="317.47058823529414"/>
      <point x="331.52941176470586" y="296.4117647058824"/>
      <point x="261.05882352941177" y="296.4117647058824" type="curve" smooth="yes"/>
      <point x="152.47058823529412" y="296.4117647058824"/>
      <point x="121.64705882352942" y="358.1764705882353"/>
      <point x="122.11764705882354" y="467.29411764705884" type="curve" smooth="yes"/>
      <point x="121.64705882352942" y="580.2941176470588"/>
      <point x="148.05882352941177" y="646.1176470588235"/>
      <point x="273.29411764705884" y="646.1176470588235" type="curve" smooth="yes"/>
      <point x="425.4117647058824" y="646.1176470588235"/>
      <point x="430.94117647058823" y="577.2352941176471"/>
      <point x="430.94117647058823" y="353.8235294117647" type="curve" smooth="yes"/>
      <point x="430.94117647058823" y="93.05882352941177"/>
      <point x="380.5882352941176" y="44.88235294117647"/>
      <point x="232.64705882352942" y="44.88235294117647" type="curve" smooth="yes"/>
      <point x="167.58823529411765" y="44.88235294117647"/>
      <point x="145.8235294117647" y="45.94117647058823"/>
      <point x="100.58823529411765" y="50.0" type="curve"/>
      <point x="92.58823529411765" y="1.8823529411764706" type="line"/>
      <point x="150.7058823529412" y="-12.0"/>
      <point x="203.8235294117647" y="-12.0"/>
      <point x="233.11764705882354" y="-12.0" type="curve" smooth="yes"/>
      <point x="420.11764705882354" y="-12.0"/>
      <point x="494.5882352941176" y="41.705882352941174"/>
      <point x="495.05882352941177" y="353.52941176470586" type="curve" smooth="yes"/>
      <point x="495.05882352941177" y="618.4117647058823"/>
      <point x="472.52941176470586" y="702.0"/>
    </contour>
  </outline>
</glyph>
<glyph name="less" format="2">
  <advance width="533.9411764705883"/>
  <unicode hex="003C"/>
  <outline>
    <contour>
      <point x="458.94117647058823" y="499.8235294117647" type="line"/>
      <point x="57.470588235294116" y="322.47058823529414" type="line"/>
      <point x="57.470588235294116" y="271.29411764705884" type="line"/>
      <point x="458.94117647058823" y="98.05882352941177" type="line"/>
      <point x="458.94117647058823" y="149.7058823529412" type="line"/>
      <point x="113.47058823529412" y="296.88235294117646" type="line"/>
      <point x="458.94117647058823" y="448.1764705882353" type="line"/>
    </contour>
  </outline>
</glyph>
<glyph name="equal" format="2">
  <advance width="586.6470588235294"/>
  <unicode hex="003D"/>
  <outline>
    <contour>
      <point x="508.6470588235294" y="422.05882352941177" type="line"/>
      <point x="78.0" y="422.05882352941177" type="line"/>
      <point x="78.0" y="373.2352941176471" type="line"/>
      <point x="508.6470588235294" y="373.2352941176471" type="line"/>
    </contour>
    <contour>
      <point x="508.6470588235294" y="210.52941176470588" type="line"/>
      <point x="78.0" y="210.52941176470588" type="line"/>
      <point x="78.0" y="161.7058823529412" type="line"/>
      <point x="508.6470588235294" y="161.7058823529412" type="line"/>
    </contour>
  </outline>
</glyph>
<glyph name="greater" format="2">
  <advance width="533.9411764705883"/>
  <unicode hex="003E"/>
  <outline>
    <contour>
      <point x="75.0" y="499.8235294117647" type="line"/>
      <point x="75.0" y="448.1764705882353" type="line"/>
      <point x="420.47058823529414" y="296.88235294117646" type="line"/>
      <point x="75.0" y="149.7058823529412" type="line"/>
      <point x="75.0" y="98.05882352941177" type="line"/>
      <point x="476.47058823529414" y="271.29411764705884" type="line"/>
      <point x="476.47058823529414" y="322.47058823529414" type="line"/>
    </contour>
  </outline>
</glyph>
<glyph name="question" format="2">
  <advance width="505.5882352941176"/>
  <unicode hex="003F"/>
  <outline>
    <contour>
      <point x="257.2352941176471" y="712.0" type="curve" smooth="yes"/>
      <point x="141.58823529411765" y="712.0"/>
      <point x="110.70588235294117" y="703.0588235294117"/>
      <point x="43.411764705882355" y="692.1176470588235" type="curve"/>
      <point x="48.411764705882355" y="646.3529411764706" type="line"/>
      <point x="115.41176470588235" y="653.4705882352941"/>
      <point x="145.88235294117646" y="657.5294117647059"/>
      <point x="245.94117647058823" y="657.5294117647059" type="curve" smooth="yes"/>
      <point x="346.94117647058823" y="657.5294117647059"/>
      <point x="392.0" y="622.5882352941177"/>
      <point x="390.5882352941176" y="547.5882352941177" type="curve" smooth="yes"/>
      <point x="388.70588235294116" y="425.8235294117647"/>
      <point x="214.76470588235293" y="396.05882352941177"/>
      <point x="217.11764705882354" y="208.1764705882353" type="curve"/>
      <point x="272.6470588235294" y="208.1764705882353" type="line"/>
      <point x="276.4117647058824" y="382.3529411764706"/>
      <point x="457.47058823529414" y="405.88235294117646"/>
      <point x="457.47058823529414" y="557.0" type="curve" smooth="yes"/>
      <point x="457.47058823529414" y="663.0"/>
      <point x="389.47058823529414" y="712.0"/>
    </contour>
    <contour>
      <point x="253.35294117647058" y="106.70588235294117" type="curve" smooth="yes"/>
      <point x="235.35294117647058" y="106.70588235294117" type="line" smooth="yes"/>
      <point x="217.47058823529412" y="106.70588235294117"/>
      <point x="210.64705882352942" y="99.88235294117646"/>
      <point x="210.64705882352942" y="82.0" type="curve" smooth="yes"/>
      <point x="210.64705882352942" y="24.705882352941174" type="line" smooth="yes"/>
      <point x="210.64705882352942" y="6.823529411764706"/>
      <point x="217.47058823529412" y="0.0"/>
      <point x="235.35294117647058" y="0.0" type="curve" smooth="yes"/>
      <point x="253.35294117647058" y="0.0" type="line" smooth="yes"/>
      <point x="271.2352941176471" y="0.0"/>
      <point x="278.05882352941177" y="6.823529411764706"/>
      <point x="278.05882352941177" y="24.705882352941174" type="curve" smooth="yes"/>
      <point x="278.05882352941177" y="82.0" type="line" smooth="yes"/>
      <point x="278.05882352941177" y="99.88235294117646"/>
      <point x="271.2352941176471" y="106.70588235294117"/>
    </contour>
  </outline>
</glyph>
<glyph name="at" format="2">
  <advance width="709.0"/>
  <unicode hex="0040"/>
  <outline>
    <contour>
      <point x="488.7647058823529" y="578.2941176470588" type="curve" smooth="yes"/>
      <point x="346.4117647058824" y="578.2941176470588" type="line" smooth="yes"/>
      <point x="108.11764705882354" y="576.7647058823529"/>
      <point x="81.76470588235294" y="541.4705882352941"/>
      <point x="81.76470588235294" y="265.4117647058824" type="curve" smooth="yes"/>
      <point x="81.76470588235294" y="-19.764705882352942"/>
      <point x="111.58823529411765" y="-57.11764705882353"/>
      <point x="378.05882352941177" y="-54.05882352941177" type="curve" smooth="yes"/>
      <point x="461.8235294117647" y="-54.05882352941177"/>
      <point x="545.5882352941177" y="-51.64705882352941"/>
      <point x="628.8823529411765" y="-47.76470588235294" type="curve"/>
      <point x="628.8823529411765" y="-0.0588235294117645" type="line"/>
      <point x="377.05882352941177" y="-0.0588235294117645" type="line" smooth="yes"/>
      <point x="167.0" y="-0.0588235294117645"/>
      <point x="142.47058823529412" y="10.823529411764707"/>
      <point x="142.47058823529412" y="265.94117647058823" type="curve" smooth="yes"/>
      <point x="142.47058823529412" y="512.0588235294117"/>
      <point x="166.58823529411765" y="524.7647058823529"/>
      <point x="346.94117647058823" y="524.7647058823529" type="curve" smooth="yes"/>
      <point x="478.3529411764706" y="524.7647058823529" type="line" smooth="yes"/>
      <point x="551.6470588235294" y="525.2941176470588"/>
      <point x="572.8235294117648" y="496.4117647058824"/>
      <point x="572.8235294117648" y="443.4117647058824" type="curve" smooth="yes"/>
      <point x="572.8235294117648" y="391.3529411764706" type="line"/>
      <point x="353.94117647058823" y="391.3529411764706" type="line" smooth="yes"/>
      <point x="279.5882352941176" y="391.3529411764706"/>
      <point x="239.47058823529412" y="354.0"/>
      <point x="239.47058823529412" y="290.05882352941177" type="curve" smooth="yes"/>
      <point x="239.47058823529412" y="237.94117647058823" type="line" smooth="yes"/>
      <point x="239.47058823529412" y="163.41176470588235"/>
      <point x="290.1764705882353" y="124.0"/>
      <point x="367.70588235294116" y="124.0" type="curve" smooth="yes"/>
      <point x="454.0" y="124.0"/>
      <point x="540.2941176470588" y="171.64705882352942"/>
      <point x="578.0" y="208.11764705882354" type="curve"/>
      <point x="585.3529411764706" y="130.88235294117646" type="line"/>
      <point x="632.4705882352941" y="130.88235294117646" type="line"/>
      <point x="632.4705882352941" y="445.29411764705884" type="line" smooth="yes"/>
      <point x="632.4705882352941" y="542.0"/>
      <point x="579.1764705882352" y="578.2941176470588"/>
    </contour>
    <contour>
      <point x="572.8235294117648" y="351.7647058823529" type="line"/>
      <point x="572.8235294117648" y="248.41176470588235" type="line"/>
      <point x="523.3529411764706" y="204.76470588235293"/>
      <point x="440.8235294117647" y="175.11764705882354"/>
      <point x="377.52941176470586" y="175.64705882352942" type="curve" smooth="yes"/>
      <point x="326.6470588235294" y="176.1764705882353"/>
      <point x="299.2352941176471" y="198.11764705882354"/>
      <point x="299.2352941176471" y="247.88235294117646" type="curve" smooth="yes"/>
      <point x="299.2352941176471" y="283.47058823529414" type="line" smooth="yes"/>
      <point x="299.2352941176471" y="326.3529411764706"/>
      <point x="321.8235294117647" y="345.7647058823529"/>
      <point x="372.7647058823529" y="347.7647058823529" type="curve" smooth="yes"/>
    </contour>
  </outline>
</glyph>
<glyph name="C" format="2">
  <advance width="567.1176470588235"/>
  <unicode hex="0043"/>
  <anchor x="326.7647058823529" y="-12.0" name="bottom"/>
  <anchor x="321.05882352941177" y="736.2352941176471" name="top"/>
  <outline>
    <contour>
      <point x="331.47058823529414" y="702.0" type="curve" smooth="yes"/>
      <point x="135.88235294117646" y="702.0"/>
      <point x="66.58823529411765" y="608.0"/>
      <point x="66.58823529411765" y="345.0" type="curve" smooth="yes"/>
      <point x="66.58823529411765" y="82.0"/>
      <point x="135.88235294117646" y="-12.0"/>
      <point x="331.47058823529414" y="-12.0" type="curve" smooth="yes"/>
      <point x="419.70588235294116" y="-12.0"/>
      <point x="472.5882352941176" y="-5.529411764705882"/>
      <point x="528.8823529411765" y="9.294117647058822" type="curve"/>
      <point x="520.5294117647059" y="58.35294117647059" type="line"/>
      <point x="466.1764705882353" y="49.8235294117647"/>
      <point x="414.7647058823529" y="46.76470588235294"/>
      <point x="331.47058823529414" y="46.76470588235294" type="curve" smooth="yes"/>
      <point x="184.52941176470588" y="46.76470588235294"/>
      <point x="135.41176470588235" y="121.47058823529412"/>
      <point x="135.41176470588235" y="345.0" type="curve" smooth="yes"/>
      <point x="135.41176470588235" y="568.5294117647059"/>
      <point x="184.52941176470588" y="643.2352941176471"/>
      <point x="331.47058823529414" y="643.2352941176471" type="curve" smooth="yes"/>
      <point x="409.7647058823529" y="643.2352941176471"/>
      <point x="448.1764705882353" y="640.7058823529412"/>
      <point x="506.52941176470586" y="633.5882352941177" type="curve"/>
      <point x="514.8823529411765" y="683.1176470588235" type="line"/>
      <point x="459.5882352941176" y="696.5294117647059"/>
      <point x="415.6470588235294" y="702.0"/>
    </contour>
  </outline>
</glyph>
<glyph name="D" format="2">
  <advance width="662.2941176470588"/>
  <unicode hex="0044"/>
  <anchor x="322.4117647058824" y="-12.0" name="bottom"/>
  <anchor x="320.2352941176471" y="736.2352941176471" name="top"/>
  <outline>
    <contour>
      <point x="332.47058823529414" y="699.0" type="curve" smooth="yes"/>
      <point x="240.2941176470588" y="699.0"/>
      <point x="162.41176470588235" y="695.0"/>
      <point x="92.6470588235294" y="690.0" type="curve"/>
      <point x="121.0" y="638.5882352941177" type="line"/>
      <point x="184.11764705882354" y="639.6470588235294"/>
      <point x="248.8235294117647" y="641.6470588235294"/>
      <point x="332.47058823529414" y="641.6470588235294" type="curve" smooth="yes"/>
      <point x="476.8235294117647" y="641.6470588235294"/>
      <point x="526.4117647058823" y="566.4705882352941"/>
      <point x="526.4117647058823" y="345.0" type="curve" smooth="yes"/>
      <point x="526.4117647058823" y="123.52941176470588"/>
      <point x="476.8235294117647" y="48.8235294117647"/>
      <point x="332.47058823529414" y="48.8235294117647" type="curve" smooth="yes"/>
      <point x="248.41176470588235" y="48.8235294117647"/>
      <point x="180.47058823529412" y="50.8235294117647"/>
      <point x="121.6470588235294" y="52.294117647058826" type="curve"/>
      <point x="92.6470588235294" y="0.0" type="line"/>
      <point x="162.94117647058823" y="-5.0"/>
      <point x="240.23529411764707" y="-9.0"/>
      <point x="332.47058823529414" y="-9.0" type="curve" smooth="yes"/>
      <point x="525.9411764705883" y="-9.0"/>
      <point x="595.2352941176471" y="80.76470588235294"/>
      <point x="595.2352941176471" y="345.0" type="curve" smooth="yes"/>
      <point x="595.2352941176471" y="609.2352941176471"/>
      <point x="525.9411764705883" y="699.0"/>
    </contour>
    <contour>
      <point x="158.11764705882354" y="690.0" type="line"/>
      <point x="92.6470588235294" y="690.0" type="line"/>
      <point x="92.6470588235294" y="0.0" type="line"/>
      <point x="158.11764705882354" y="0.0" type="line"/>
    </contour>
  </outline>
</glyph>
<glyph name="E" format="2">
  <advance width="557.1176470588235"/>
  <unicode hex="0045"/>
  <guideline x="157.2941176470588" y="563.4117647058823" angle="0.0"/>
  <anchor x="298.88235294117646" y="0.0" name="bottom"/>
  <anchor x="503.8235294117647" y="4.9411764705882355" name="ogonek"/>
  <anchor x="310.0" y="753.7058823529412" name="top"/>
  <outline>
    <contour>
      <point x="208.88235294117646" y="690.9411764705883" type="curve" smooth="yes"/>
      <point x="135.76470588235293" y="690.9411764705883"/>
      <point x="87.11764705882354" y="645.5882352941177"/>
      <point x="86.6470588235294" y="577.1764705882352" type="curve" smooth="yes"/>
      <point x="86.6470588235294" y="112.82352941176471" type="line" smooth="yes"/>
      <point x="87.11764705882354" y="44.411764705882355"/>
      <point x="135.2941176470588" y="-0.9411764705882353"/>
      <point x="208.88235294117646" y="-0.9411764705882353" type="curve" smooth="yes"/>
      <point x="307.3529411764706" y="-0.9411764705882353"/>
      <point x="409.5882352941176" y="-0.9411764705882353"/>
      <point x="503.8235294117647" y="4.9411764705882355" type="curve"/>
      <point x="500.4117647058824" y="54.94117647058823" type="line"/>
      <point x="220.0" y="54.94117647058823" type="line" smooth="yes"/>
      <point x="176.7058823529412" y="54.94117647058823"/>
      <point x="152.58823529411765" y="80.0"/>
      <point x="152.58823529411765" y="127.05882352941177" type="curve" smooth="yes"/>
      <point x="152.58823529411765" y="562.4705882352941" type="line" smooth="yes"/>
      <point x="152.58823529411765" y="609.5294117647059"/>
      <point x="176.7058823529412" y="634.5882352941177"/>
      <point x="220.0" y="634.5882352941177" type="curve" smooth="yes"/>
      <point x="500.4117647058824" y="634.5882352941177" type="line"/>
      <point x="503.8235294117647" y="685.0588235294117" type="line"/>
      <point x="409.5882352941176" y="690.9411764705883"/>
      <point x="307.3529411764706" y="690.9411764705883"/>
    </contour>
    <contour>
      <point x="104.11764705882354" y="393.2352941176471" type="line"/>
      <point x="104.11764705882354" y="339.70588235294116" type="line"/>
      <point x="460.8235294117647" y="340.2352941176471" type="line"/>
      <point x="460.8235294117647" y="392.70588235294116" type="line"/>
    </contour>
  </outline>
</glyph>
<glyph name="F" format="2">
  <advance width="535.6470588235294"/>
  <unicode hex="0046"/>
  <outline>
    <contour>
      <point x="212.35294117647058" y="690.9411764705883" type="curve" smooth="yes"/>
      <point x="139.23529411764707" y="690.9411764705883"/>
      <point x="90.11764705882354" y="646.0588235294117"/>
      <point x="90.11764705882354" y="574.3529411764706" type="curve" smooth="yes"/>
      <point x="90.11764705882354" y="0.0" type="line"/>
      <point x="156.05882352941177" y="0.0" type="line"/>
      <point x="156.05882352941177" y="562.4705882352941" type="line" smooth="yes"/>
      <point x="156.05882352941177" y="609.5294117647059"/>
      <point x="181.11764705882354" y="634.5882352941177"/>
      <point x="228.1764705882353" y="634.5882352941177" type="curve" smooth="yes"/>
      <point x="495.0" y="634.5882352941177" type="line"/>
      <point x="498.88235294117646" y="684.5882352941177" type="line"/>
      <point x="407.11764705882354" y="690.9411764705883"/>
      <point x="308.3529411764706" y="690.9411764705883"/>
    </contour>
    <contour>
      <point x="107.11764705882354" y="385.47058823529414" type="line"/>
      <point x="107.11764705882354" y="331.47058823529414" type="line"/>
      <point x="455.88235294117646" y="332.0" type="line"/>
      <point x="455.88235294117646" y="384.94117647058823" type="line"/>
    </contour>
  </outline>
</glyph>
<glyph name="G" format="2">
  <advance width="625.7647058823529"/>
  <unicode hex="0047"/>
  <anchor x="325.5882352941176" y="-6.352941176470589" name="bottom"/>
  <anchor x="326.3529411764706" y="740.9411764705883" name="top"/>
  <outline>
    <contour>
      <point x="344.3529411764706" y="702.4705882352941" type="curve" smooth="yes"/>
      <point x="139.23529411764707" y="702.4705882352941"/>
      <point x="67.05882352941177" y="616.4705882352941"/>
      <point x="67.05882352941177" y="346.4117647058824" type="curve" smooth="yes"/>
      <point x="67.05882352941177" y="97.82352941176471"/>
      <point x="130.11764705882354" y="-12.470588235294118"/>
      <point x="288.47058823529414" y="-12.470588235294118" type="curve" smooth="yes"/>
      <point x="388.4117647058824" y="-12.470588235294118"/>
      <point x="463.88235294117646" y="40.11764705882353"/>
      <point x="507.52941176470586" y="89.41176470588235" type="curve"/>
      <point x="497.29411764705884" y="130.47058823529412" type="line"/>
      <point x="445.2352941176471" y="89.05882352941177"/>
      <point x="389.0" y="44.88235294117647"/>
      <point x="304.5882352941176" y="44.88235294117647" type="curve" smooth="yes"/>
      <point x="180.58823529411765" y="44.88235294117647"/>
      <point x="135.88235294117646" y="128.41176470588235"/>
      <point x="135.88235294117646" y="342.6470588235294" type="curve" smooth="yes"/>
      <point x="135.88235294117646" y="585.9411764705883"/>
      <point x="190.1764705882353" y="643.7058823529412"/>
      <point x="347.6470588235294" y="643.7058823529412" type="curve" smooth="yes"/>
      <point x="410.47058823529414" y="643.7058823529412"/>
      <point x="467.11764705882354" y="641.1764705882352"/>
      <point x="530.1176470588235" y="634.0588235294117" type="curve"/>
      <point x="538.0" y="683.1176470588235" type="line"/>
      <point x="478.52941176470586" y="697.0"/>
      <point x="421.1764705882353" y="702.4705882352941"/>
    </contour>
    <contour>
      <point x="553.2352941176471" y="399.05882352941177" type="line"/>
      <point x="489.1764705882353" y="399.05882352941177" type="line"/>
      <point x="489.1764705882353" y="118.05882352941177" type="line"/>
      <point x="494.4117647058824" y="100.88235294117646" type="line"/>
      <point x="505.6470588235294" y="0.0" type="line"/>
      <point x="553.2352941176471" y="0.0" type="line"/>
    </contour>
  </outline>
</glyph>
<glyph name="H" format="2">
  <advance width="664.0588235294117"/>
  <unicode hex="0048"/>
  <anchor x="332.8235294117647" y="0.0" name="bottom"/>
  <anchor x="329.0" y="345.0" name="center"/>
  <anchor x="332.8235294117647" y="743.1176470588235" name="top"/>
  <outline>
    <contour>
      <point x="158.11764705882354" y="690.0" type="line"/>
      <point x="92.6470588235294" y="690.0" type="line"/>
      <point x="92.6470588235294" y="0.0" type="line"/>
      <point x="158.11764705882354" y="0.0" type="line"/>
    </contour>
    <contour>
      <point x="516.4705882352941" y="397.47058823529414" type="line"/>
      <point x="150.11764705882354" y="397.47058823529414" type="line"/>
      <point x="150.11764705882354" y="340.6470588235294" type="line"/>
      <point x="516.4705882352941" y="340.6470588235294" type="line"/>
    </contour>
    <contour>
      <point x="571.4117647058823" y="690.0" type="line"/>
      <point x="505.94117647058823" y="690.0" type="line"/>
      <point x="505.94117647058823" y="0.0" type="line"/>
      <point x="571.4117647058823" y="0.0" type="line"/>
    </contour>
  </outline>
</glyph>
<glyph name="I" format="2">
  <advance width="250.76470588235293"/>
  <unicode hex="0049"/>
  <anchor x="123.47058823529412" y="0.0" name="bottom"/>
  <anchor x="152.0" y="0.0" name="ogonek"/>
  <anchor x="125.3529411764706" y="736.2352941176471" name="top"/>
  <outline>
    <contour>
      <point x="158.11764705882354" y="690.0" type="line"/>
      <point x="92.6470588235294" y="690.0" type="line"/>
      <point x="92.6470588235294" y="0.0" type="line"/>
      <point x="158.11764705882354" y="0.0" type="line"/>
    </contour>
  </outline>
</glyph>
<glyph name="K" format="2">
  <advance width="580.8235294117648"/>
  <unicode hex="004B"/>
  <anchor x="291.5882352941176" y="0.0" name="bottom"/>
  <anchor x="293.47058823529414" y="709.7647058823529" name="top"/>
  <outline>
    <contour>
      <point x="541.6470588235294" y="690.0" type="line"/>
      <point x="468.8235294117647" y="690.0" type="line"/>
      <point x="229.11764705882354" y="360.47058823529414" type="line"/>
      <point x="482.52941176470586" y="0.0" type="line"/>
      <point x="556.7647058823529" y="0.0" type="line"/>
      <point x="333.2352941176471" y="319.05882352941177" type="line" smooth="yes"/>
      <point x="323.3529411764706" y="333.29411764705884"/>
      <point x="310.5882352941176" y="346.47058823529414"/>
      <point x="297.5882352941176" y="358.05882352941177" type="curve"/>
      <point x="297.5882352941176" y="360.52941176470586" type="line"/>
      <point x="310.11764705882354" y="372.05882352941177"/>
      <point x="319.5882352941176" y="382.0"/>
      <point x="329.94117647058823" y="397.2352941176471" type="curve" smooth="yes"/>
    </contour>
    <contour>
      <point x="157.58823529411765" y="690.0" type="line"/>
      <point x="92.6470588235294" y="690.0" type="line"/>
      <point x="92.6470588235294" y="0.0" type="line"/>
      <point x="157.58823529411765" y="0.0" type="line"/>
      <point x="157.58823529411765" y="255.0" type="line" smooth="yes"/>
      <point x="157.58823529411765" y="289.4117647058824"/>
      <point x="154.2941176470588" y="323.5882352941176"/>
      <point x="148.47058823529412" y="361.0" type="curve"/>
      <point x="154.70588235294116" y="398.3529411764706"/>
      <point x="157.58823529411765" y="428.88235294117646"/>
      <point x="157.58823529411765" y="467.1764705882353" type="curve" smooth="yes"/>
    </contour>
    <contour>
      <point x="269.2352941176471" y="386.52941176470586" type="line"/>
      <point x="132.23529411764707" y="386.52941176470586" type="line"/>
      <point x="132.23529411764707" y="333.0" type="line"/>
      <point x="269.2352941176471" y="333.0" type="line"/>
    </contour>
  </outline>
</glyph>
<glyph name="L" format="2">
  <advance width="511.2352941176471"/>
  <unicode hex="004C"/>
  <anchor x="299.3529411764706" y="0.0" name="bottom"/>
  <anchor x="125.41176470588235" y="738.8823529411765" name="top"/>
  <outline>
    <contour>
      <point x="155.58823529411765" y="690.0" type="line"/>
      <point x="90.11764705882354" y="690.0" type="line"/>
      <point x="90.11764705882354" y="119.41176470588235" type="line" smooth="yes"/>
      <point x="90.11764705882354" y="50.05882352941177"/>
      <point x="129.8235294117647" y="-0.9411764705882353"/>
      <point x="216.58823529411765" y="-0.9411764705882353" type="curve" smooth="yes"/>
      <point x="307.1764705882353" y="-0.9411764705882353"/>
      <point x="398.7647058823529" y="-0.47058823529411764"/>
      <point x="487.47058823529414" y="5.411764705882353" type="curve"/>
      <point x="485.11764705882354" y="55.411764705882355" type="line"/>
      <point x="227.7058823529412" y="55.411764705882355" type="line" smooth="yes"/>
      <point x="180.64705882352942" y="55.411764705882355"/>
      <point x="155.58823529411765" y="80.47058823529412"/>
      <point x="155.58823529411765" y="127.52941176470588" type="curve" smooth="yes"/>
    </contour>
  </outline>
</glyph>
<glyph name="M" format="2">
  <advance width="868.5882352941177"/>
  <unicode hex="004D"/>
  <anchor x="434.11764705882354" y="0.0" name="bottom"/>
  <anchor x="432.8235294117647" y="736.2352941176471" name="top"/>
  <outline>
    <contour>
      <point x="732.2941176470588" y="690.0" type="curve" smooth="yes"/>
      <point x="654.0588235294117" y="690.0" type="line" smooth="yes"/>
      <point x="638.6470588235294" y="690.0"/>
      <point x="628.9411764705883" y="682.2941176470588"/>
      <point x="624.5882352941177" y="667.3529411764706" type="curve" smooth="yes"/>
      <point x="474.11764705882354" y="218.47058823529412" type="line" smooth="yes"/>
      <point x="463.52941176470586" y="186.0"/>
      <point x="454.3529411764706" y="155.41176470588235"/>
      <point x="444.70588235294116" y="123.41176470588235" type="curve"/>
      <point x="423.4117647058824" y="123.41176470588235" type="line"/>
      <point x="413.7647058823529" y="154.88235294117646"/>
      <point x="405.11764705882354" y="185.47058823529412"/>
      <point x="394.52941176470586" y="216.94117647058823" type="curve" smooth="yes"/>
      <point x="243.52941176470588" y="667.3529411764706" type="line" smooth="yes"/>
      <point x="239.1764705882353" y="682.2941176470588"/>
      <point x="229.94117647058823" y="690.0"/>
      <point x="215.0" y="690.0" type="curve" smooth="yes"/>
      <point x="135.8235294117647" y="690.0" type="line" smooth="yes"/>
      <point x="117.41176470588235" y="690.0"/>
      <point x="107.17647058823529" y="679.2941176470588"/>
      <point x="106.70588235294117" y="660.8823529411765" type="curve" smooth="yes"/>
      <point x="78.58823529411765" y="0.0" type="line"/>
      <point x="144.05882352941177" y="0.0" type="line"/>
      <point x="170.2941176470588" y="635.0588235294117" type="line"/>
      <point x="191.47058823529412" y="635.0588235294117" type="line"/>
      <point x="371.3529411764706" y="94.41176470588235" type="line" smooth="yes"/>
      <point x="375.70588235294116" y="79.47058823529412"/>
      <point x="385.88235294117646" y="71.76470588235294"/>
      <point x="401.29411764705884" y="71.76470588235294" type="curve" smooth="yes"/>
      <point x="467.29411764705884" y="71.76470588235294" type="line" smooth="yes"/>
      <point x="482.70588235294116" y="71.76470588235294"/>
      <point x="492.4117647058824" y="79.47058823529412"/>
      <point x="496.7647058823529" y="94.41176470588235" type="curve" smooth="yes"/>
      <point x="676.1764705882352" y="635.0588235294117" type="line"/>
      <point x="697.8235294117648" y="635.0588235294117" type="line"/>
      <point x="725.0" y="0.0" type="line"/>
      <point x="790.4705882352941" y="0.0" type="line"/>
      <point x="761.4117647058823" y="660.8823529411765" type="line" smooth="yes"/>
      <point x="760.9411764705883" y="679.2941176470588"/>
      <point x="750.7058823529412" y="690.0"/>
    </contour>
  </outline>
</glyph>
<glyph name="N" format="2">
  <advance width="698.8235294117648"/>
  <unicode hex="004E"/>
  <anchor x="353.88235294117646" y="0.0" name="bottom"/>
  <anchor x="361.7647058823529" y="736.2352941176471" name="top"/>
  <outline>
    <contour>
      <point x="606.1764705882352" y="690.0" type="line"/>
      <point x="541.1764705882352" y="690.0" type="line"/>
      <point x="541.1764705882352" y="162.35294117647058" type="line" smooth="yes"/>
      <point x="541.1764705882352" y="129.05882352941177"/>
      <point x="542.1176470588235" y="96.23529411764706"/>
      <point x="543.5294117647059" y="62.94117647058823" type="curve"/>
      <point x="522.5882352941177" y="62.94117647058823" type="line"/>
      <point x="507.5882352941176" y="94.17647058823529"/>
      <point x="490.7647058823529" y="128.23529411764707"/>
      <point x="476.70588235294116" y="156.1764705882353" type="curve" smooth="yes"/>
      <point x="219.70588235294116" y="668.1764705882352" type="line" smooth="yes"/>
      <point x="212.88235294117646" y="683.2352941176471"/>
      <point x="203.58823529411765" y="690.0"/>
      <point x="188.05882352941177" y="690.0" type="curve" smooth="yes"/>
      <point x="120.3529411764706" y="690.0" type="line" smooth="yes"/>
      <point x="102.3529411764706" y="690.0"/>
      <point x="92.6470588235294" y="680.7647058823529"/>
      <point x="92.6470588235294" y="662.2941176470588" type="curve" smooth="yes"/>
      <point x="92.6470588235294" y="0.0" type="line"/>
      <point x="158.11764705882354" y="0.0" type="line"/>
      <point x="158.11764705882354" y="545.8235294117648" type="line" smooth="yes"/>
      <point x="158.11764705882354" y="573.5294117647059"/>
      <point x="157.64705882352942" y="601.7058823529412"/>
      <point x="155.76470588235293" y="629.4117647058823" type="curve"/>
      <point x="174.64705882352942" y="629.4117647058823" type="line"/>
      <point x="184.2941176470588" y="603.1176470588235"/>
      <point x="201.52941176470588" y="571.2352941176471"/>
      <point x="213.52941176470588" y="546.3529411764706" type="curve" smooth="yes"/>
      <point x="477.05882352941177" y="21.823529411764707" type="line" smooth="yes"/>
      <point x="483.88235294117646" y="6.764705882352941"/>
      <point x="493.1764705882353" y="0.0"/>
      <point x="508.70588235294116" y="0.0" type="curve" smooth="yes"/>
      <point x="578.9411764705883" y="0.0" type="line" smooth="yes"/>
      <point x="596.9411764705883" y="0.0"/>
      <point x="606.1764705882352" y="9.235294117647058"/>
      <point x="606.1764705882352" y="27.705882352941174" type="curve" smooth="yes"/>
    </contour>
  </outline>
</glyph>
<glyph name="O" format="2">
  <advance width="665.7647058823529"/>
  <unicode hex="004F"/>
  <anchor x="331.94117647058823" y="0.0" name="bottom"/>
  <anchor x="368.11764705882354" y="0.0" name="ogonek"/>
  <anchor x="334.3529411764706" y="736.2352941176471" name="top"/>
  <outline>
    <contour>
      <point x="332.88235294117646" y="702.4705882352941" type="curve" smooth="yes"/>
      <point x="135.88235294117646" y="702.4705882352941"/>
      <point x="66.58823529411765" y="612.2352941176471"/>
      <point x="66.58823529411765" y="345.0" type="curve" smooth="yes"/>
      <point x="66.58823529411765" y="77.76470588235294"/>
      <point x="135.88235294117646" y="-12.470588235294118"/>
      <point x="332.88235294117646" y="-12.470588235294118" type="curve" smooth="yes"/>
      <point x="529.8823529411765" y="-12.470588235294118"/>
      <point x="599.1764705882352" y="77.76470588235294"/>
      <point x="599.1764705882352" y="345.0" type="curve" smooth="yes"/>
      <point x="599.1764705882352" y="612.2352941176471"/>
      <point x="529.8823529411765" y="702.4705882352941"/>
    </contour>
    <contour>
      <point x="332.88235294117646" y="643.7058823529412" type="curve" smooth="yes"/>
      <point x="480.7647058823529" y="643.7058823529412"/>
      <point x="530.3529411764706" y="569.0"/>
      <point x="530.3529411764706" y="345.0" type="curve" smooth="yes"/>
      <point x="530.3529411764706" y="121.0"/>
      <point x="480.7647058823529" y="46.294117647058826"/>
      <point x="332.88235294117646" y="46.294117647058826" type="curve" smooth="yes"/>
      <point x="185.0" y="46.294117647058826"/>
      <point x="135.41176470588235" y="121.0"/>
      <point x="135.41176470588235" y="345.0" type="curve" smooth="yes"/>
      <point x="135.41176470588235" y="569.0"/>
      <point x="185.0" y="643.7058823529412"/>
    </contour>
  </outline>
</glyph>
<glyph name="P" format="2">
  <advance width="587.1176470588235"/>
  <unicode hex="0050"/>
  <outline>
    <contour>
      <point x="324.0" y="698.4705882352941" type="curve" smooth="yes"/>
      <point x="215.8235294117647" y="698.4705882352941"/>
      <point x="165.94117647058823" y="697.4705882352941"/>
      <point x="92.6470588235294" y="690.0" type="curve"/>
      <point x="106.6470588235294" y="638.1176470588235" type="line"/>
      <point x="134.58823529411765" y="640.5882352941177"/>
      <point x="216.88235294117646" y="641.5882352941177"/>
      <point x="323.05882352941177" y="641.5882352941177" type="curve" smooth="yes"/>
      <point x="433.11764705882354" y="641.5882352941177"/>
      <point x="471.11764705882354" y="609.7647058823529"/>
      <point x="471.11764705882354" y="487.47058823529414" type="curve" smooth="yes"/>
      <point x="471.11764705882354" y="364.70588235294116"/>
      <point x="433.11764705882354" y="334.4117647058824"/>
      <point x="323.05882352941177" y="332.88235294117646" type="curve" smooth="yes"/>
      <point x="250.76470588235293" y="332.88235294117646"/>
      <point x="173.94117647058823" y="332.88235294117646"/>
      <point x="105.6470588235294" y="332.88235294117646" type="curve"/>
      <point x="102.6470588235294" y="291.8235294117647" type="line"/>
      <point x="126.52941176470588" y="285.5882352941176"/>
      <point x="220.8235294117647" y="276.0"/>
      <point x="330.5882352941176" y="276.0" type="curve" smooth="yes"/>
      <point x="482.70588235294116" y="276.0"/>
      <point x="537.5882352941177" y="320.88235294117646"/>
      <point x="537.5882352941177" y="487.47058823529414" type="curve" smooth="yes"/>
      <point x="537.5882352941177" y="652.0588235294117"/>
      <point x="482.70588235294116" y="698.4705882352941"/>
    </contour>
    <contour>
      <point x="158.11764705882354" y="690.0" type="line"/>
      <point x="92.6470588235294" y="690.0" type="line"/>
      <point x="92.6470588235294" y="0.0" type="line"/>
      <point x="158.11764705882354" y="0.0" type="line"/>
    </contour>
  </outline>
</glyph>
<glyph name="Q" format="2">
  <advance width="666.7058823529412"/>
  <unicode hex="0051"/>
  <outline>
    <contour>
      <point x="333.3529411764706" y="702.4705882352941" type="curve" smooth="yes"/>
      <point x="136.35294117647058" y="702.4705882352941"/>
      <point x="67.05882352941177" y="612.2352941176471"/>
      <point x="67.05882352941177" y="345.0" type="curve" smooth="yes"/>
      <point x="67.05882352941177" y="77.76470588235294"/>
      <point x="136.35294117647058" y="-12.470588235294118"/>
      <point x="333.3529411764706" y="-12.470588235294118" type="curve" smooth="yes"/>
      <point x="530.3529411764706" y="-12.470588235294118"/>
      <point x="599.6470588235294" y="77.76470588235294"/>
      <point x="599.6470588235294" y="345.0" type="curve" smooth="yes"/>
      <point x="599.6470588235294" y="612.2352941176471"/>
      <point x="530.3529411764706" y="702.4705882352941"/>
    </contour>
    <contour>
      <point x="295.1764705882353" y="-45.8235294117647" type="curve"/>
      <point x="275.1764705882353" y="-85.23529411764706" type="line"/>
      <point x="342.1764705882353" y="-130.0"/>
      <point x="427.0" y="-168.76470588235293"/>
      <point x="525.3529411764706" y="-186.88235294117646" type="curve"/>
      <point x="546.0" y="-121.41176470588235" type="line"/>
      <point x="448.7647058823529" y="-106.88235294117646"/>
      <point x="368.0" y="-83.23529411764706"/>
    </contour>
    <contour>
      <point x="333.3529411764706" y="643.7058823529412" type="curve" smooth="yes"/>
      <point x="481.2352941176471" y="643.7058823529412"/>
      <point x="530.8235294117648" y="569.0"/>
      <point x="530.8235294117648" y="345.0" type="curve" smooth="yes"/>
      <point x="530.8235294117648" y="121.0"/>
      <point x="481.2352941176471" y="46.294117647058826"/>
      <point x="333.3529411764706" y="46.294117647058826" type="curve" smooth="yes"/>
      <point x="185.47058823529412" y="46.294117647058826"/>
      <point x="135.88235294117646" y="121.0"/>
      <point x="135.88235294117646" y="345.0" type="curve" smooth="yes"/>
      <point x="135.88235294117646" y="569.0"/>
      <point x="185.47058823529412" y="643.7058823529412"/>
    </contour>
  </outline>
</glyph>
<glyph name="R" format="2">
  <advance width="614.0588235294117"/>
  <unicode hex="0052"/>
  <anchor x="310.47058823529414" y="0.0" name="bottom"/>
  <anchor x="303.0" y="736.2352941176471" name="top"/>
  <outline>
    <contour>
      <point x="324.47058823529414" y="698.4705882352941" type="curve" smooth="yes"/>
      <point x="216.2941176470588" y="698.4705882352941"/>
      <point x="165.94117647058823" y="697.4705882352941"/>
      <point x="92.6470588235294" y="690.0" type="curve"/>
      <point x="106.6470588235294" y="639.0588235294117" type="line"/>
      <point x="134.58823529411765" y="640.1176470588235"/>
      <point x="216.41176470588235" y="641.5882352941177"/>
      <point x="323.52941176470586" y="641.5882352941177" type="curve" smooth="yes"/>
      <point x="434.05882352941177" y="641.5882352941177"/>
      <point x="472.52941176470586" y="611.7647058823529"/>
      <point x="472.52941176470586" y="497.88235294117646" type="curve" smooth="yes"/>
      <point x="472.52941176470586" y="385.05882352941177"/>
      <point x="434.05882352941177" y="354.29411764705884"/>
      <point x="323.52941176470586" y="352.7647058823529" type="curve" smooth="yes"/>
      <point x="105.6470588235294" y="352.7647058823529" type="line"/>
      <point x="102.6470588235294" y="299.47058823529414" type="line"/>
      <point x="133.58823529411765" y="297.94117647058823"/>
      <point x="208.58823529411765" y="295.88235294117646"/>
      <point x="328.7647058823529" y="295.88235294117646" type="curve" smooth="yes"/>
      <point x="377.05882352941177" y="295.88235294117646"/>
      <point x="408.4117647058824" y="274.1764705882353"/>
      <point x="427.6470588235294" y="216.58823529411765" type="curve" smooth="yes"/>
      <point x="493.6470588235294" y="0.0" type="line"/>
      <point x="564.0" y="0.0" type="line"/>
      <point x="494.11764705882354" y="219.11764705882354" type="line" smooth="yes"/>
      <point x="478.5882352941176" y="273.11764705882354"/>
      <point x="446.52941176470586" y="306.88235294117646"/>
      <point x="412.0" y="316.94117647058823" type="curve"/>
      <point x="412.0" y="321.4117647058824" type="line"/>
      <point x="502.3529411764706" y="333.94117647058823"/>
      <point x="539.0" y="385.11764705882354"/>
      <point x="539.0" y="501.1764705882353" type="curve" smooth="yes"/>
      <point x="539.0" y="655.5882352941177"/>
      <point x="479.4117647058824" y="698.4705882352941"/>
    </contour>
    <contour>
      <point x="157.64705882352942" y="690.0" type="line"/>
      <point x="92.6470588235294" y="690.0" type="line"/>
      <point x="92.6470588235294" y="0.0" type="line"/>
      <point x="157.64705882352942" y="0.0" type="line"/>
    </contour>
  </outline>
</glyph>
<glyph name="S" format="2">
  <advance width="558.7058823529412"/>
  <unicode hex="0053"/>
  <anchor x="282.94117647058823" y="-11.470588235294118" name="bottom"/>
  <anchor x="283.29411764705884" y="736.2352941176471" name="top"/>
  <outline>
    <contour>
      <point x="277.29411764705884" y="701.4705882352941" type="curve" smooth="yes"/>
      <point x="128.35294117647058" y="702.5294117647059"/>
      <point x="58.94117647058823" y="684.3529411764706"/>
      <point x="58.94117647058823" y="521.6470588235294" type="curve" smooth="yes"/>
      <point x="58.94117647058823" y="413.88235294117646"/>
      <point x="95.47058823529412" y="354.70588235294116"/>
      <point x="194.35294117647058" y="334.7647058823529" type="curve" smooth="yes"/>
      <point x="340.7647058823529" y="303.88235294117646" type="line" smooth="yes"/>
      <point x="409.1764705882353" y="290.52941176470586"/>
      <point x="437.3529411764706" y="264.8235294117647"/>
      <point x="437.3529411764706" y="174.64705882352942" type="curve" smooth="yes"/>
      <point x="437.3529411764706" y="64.94117647058823"/>
      <point x="397.6470588235294" y="48.35294117647059"/>
      <point x="282.05882352941177" y="47.294117647058826" type="curve" smooth="yes"/>
      <point x="218.76470588235293" y="46.76470588235294"/>
      <point x="176.7058823529412" y="48.294117647058826"/>
      <point x="74.41176470588235" y="52.88235294117647" type="curve"/>
      <point x="69.52941176470588" y="4.235294117647059" type="line"/>
      <point x="160.1764705882353" y="-10.0"/>
      <point x="231.23529411764707" y="-11.470588235294118"/>
      <point x="280.11764705882354" y="-11.470588235294118" type="curve" smooth="yes"/>
      <point x="432.05882352941177" y="-11.470588235294118"/>
      <point x="503.7647058823529" y="12.529411764705882"/>
      <point x="503.7647058823529" y="173.7058823529412" type="curve" smooth="yes"/>
      <point x="503.7647058823529" y="285.29411764705884"/>
      <point x="468.5882352941176" y="341.7647058823529"/>
      <point x="364.29411764705884" y="363.1764705882353" type="curve" smooth="yes"/>
      <point x="220.23529411764707" y="393.11764705882354" type="line" smooth="yes"/>
      <point x="152.52941176470588" y="406.47058823529414"/>
      <point x="124.88235294117646" y="435.2352941176471"/>
      <point x="124.88235294117646" y="520.2352941176471" type="curve" smooth="yes"/>
      <point x="124.88235294117646" y="639.2352941176471"/>
      <point x="170.0" y="642.7058823529412"/>
      <point x="279.6470588235294" y="642.7058823529412" type="curve" smooth="yes"/>
      <point x="343.05882352941177" y="642.7058823529412"/>
      <point x="412.11764705882354" y="639.6470588235294"/>
      <point x="470.70588235294116" y="636.5882352941177" type="curve"/>
      <point x="475.5882352941176" y="684.7647058823529" type="line"/>
      <point x="409.94117647058823" y="696.9411764705883"/>
      <point x="341.2352941176471" y="700.9411764705883"/>
    </contour>
  </outline>
</glyph>
<glyph name="T" format="2">
  <advance width="574.8235294117648"/>
  <unicode hex="0054"/>
  <anchor x="286.70588235294116" y="0.0" name="bottom"/>
  <anchor x="286.2352941176471" y="345.0" name="center"/>
  <anchor x="287.70588235294116" y="736.2352941176471" name="top"/>
  <outline>
    <contour>
      <point x="319.88235294117646" y="690.0" type="line"/>
      <point x="253.94117647058823" y="690.0" type="line"/>
      <point x="253.94117647058823" y="0.0" type="line"/>
      <point x="319.88235294117646" y="0.0" type="line"/>
    </contour>
    <contour>
      <point x="549.7058823529412" y="690.0" type="line"/>
      <point x="25.11764705882353" y="690.0" type="line"/>
      <point x="25.11764705882353" y="631.7647058823529" type="line"/>
      <point x="549.7058823529412" y="631.7647058823529" type="line"/>
    </contour>
  </outline>
</glyph>
<glyph name="V" format="2">
  <advance width="602.8235294117648"/>
  <unicode hex="0056"/>
  <outline>
    <contour>
      <point x="582.9411764705883" y="690.0" type="line"/>
      <point x="514.5294117647059" y="690.0" type="line"/>
      <point x="337.3529411764706" y="127.11764705882354" type="line" smooth="yes"/>
      <point x="329.29411764705884" y="102.11764705882354"/>
      <point x="321.7647058823529" y="76.64705882352942"/>
      <point x="315.1764705882353" y="51.64705882352941" type="curve"/>
      <point x="288.11764705882354" y="51.64705882352941" type="line"/>
      <point x="281.05882352941177" y="76.64705882352942"/>
      <point x="274.0" y="101.58823529411765"/>
      <point x="265.94117647058823" y="126.58823529411765" type="curve" smooth="yes"/>
      <point x="88.29411764705883" y="690.0" type="line"/>
      <point x="19.88235294117647" y="690.0" type="line"/>
      <point x="238.94117647058823" y="19.352941176470587" type="line" smooth="yes"/>
      <point x="242.35294117647058" y="8.235294117647058"/>
      <point x="252.52941176470588" y="0.0"/>
      <point x="265.11764705882354" y="0.0" type="curve" smooth="yes"/>
      <point x="337.70588235294116" y="0.0" type="line" smooth="yes"/>
      <point x="350.29411764705884" y="0.0"/>
      <point x="360.47058823529414" y="8.235294117647058"/>
      <point x="363.88235294117646" y="19.352941176470587" type="curve" smooth="yes"/>
    </contour>
  </outline>
</glyph>
<glyph name="W" format="2">
  <advance width="941.2941176470588"/>
  <unicode hex="0057"/>
  <guideline x="457.5882352941176" y="521.1176470588235" angle="0.0"/>
  <anchor x="471.6470588235294" y="735.7647058823529" name="top"/>
  <outline>
    <contour>
      <point x="909.7058823529412" y="690.0" type="line"/>
      <point x="840.8823529411765" y="690.0" type="line"/>
      <point x="713.8235294117648" y="129.05882352941177" type="line" smooth="yes"/>
      <point x="708.2941176470588" y="103.70588235294117"/>
      <point x="703.7058823529412" y="77.0"/>
      <point x="698.6470588235294" y="51.1764705882353" type="curve"/>
      <point x="673.0" y="51.1764705882353" type="line"/>
      <point x="668.4117647058823" y="77.0"/>
      <point x="663.4117647058823" y="103.76470588235294"/>
      <point x="657.4117647058823" y="130.05882352941177" type="curve" smooth="yes"/>
      <point x="535.1764705882352" y="667.2352941176471" type="line" smooth="yes"/>
      <point x="532.2352941176471" y="680.8235294117648"/>
      <point x="522.0588235294117" y="690.0"/>
      <point x="508.47058823529414" y="690.0" type="curve" smooth="yes"/>
      <point x="433.29411764705884" y="690.0" type="line" smooth="yes"/>
      <point x="418.7647058823529" y="690.0"/>
      <point x="409.05882352941177" y="680.8235294117648"/>
      <point x="406.11764705882354" y="667.2352941176471" type="curve" smooth="yes"/>
      <point x="283.88235294117646" y="130.0" type="line" smooth="yes"/>
      <point x="277.88235294117646" y="104.1764705882353"/>
      <point x="272.88235294117646" y="78.88235294117646"/>
      <point x="267.8235294117647" y="51.1764705882353" type="curve"/>
      <point x="242.64705882352942" y="51.1764705882353" type="line"/>
      <point x="237.58823529411765" y="78.88235294117646"/>
      <point x="233.0" y="105.1764705882353"/>
      <point x="227.47058823529412" y="130.52941176470588" type="curve" smooth="yes"/>
      <point x="100.88235294117646" y="690.0" type="line"/>
      <point x="31.58823529411765" y="690.0" type="line"/>
      <point x="186.8235294117647" y="20.352941176470587" type="line" smooth="yes"/>
      <point x="189.76470588235293" y="8.235294117647058"/>
      <point x="200.41176470588235" y="0.0"/>
      <point x="214.0" y="0.0" type="curve" smooth="yes"/>
      <point x="293.6470588235294" y="0.0" type="line" smooth="yes"/>
      <point x="307.2352941176471" y="0.0"/>
      <point x="318.3529411764706" y="8.235294117647058"/>
      <point x="321.29411764705884" y="21.352941176470587" type="curve" smooth="yes"/>
      <point x="442.4117647058824" y="561.8235294117648" type="line" smooth="yes"/>
      <point x="448.47058823529414" y="587.3529411764706"/>
      <point x="453.52941176470586" y="613.2941176470588"/>
      <point x="459.5882352941176" y="639.2941176470588" type="curve"/>
      <point x="481.70588235294116" y="639.2941176470588" type="line"/>
      <point x="487.29411764705884" y="613.2941176470588"/>
      <point x="492.8235294117647" y="587.8235294117648"/>
      <point x="498.88235294117646" y="561.8235294117648" type="curve" smooth="yes"/>
      <point x="620.4705882352941" y="21.352941176470587" type="line" smooth="yes"/>
      <point x="623.4117647058823" y="8.235294117647058"/>
      <point x="634.0588235294117" y="0.0"/>
      <point x="647.6470588235294" y="0.0" type="curve" smooth="yes"/>
      <point x="727.2941176470588" y="0.0" type="line" smooth="yes"/>
      <point x="740.8823529411765" y="0.0"/>
      <point x="751.0588235294117" y="8.235294117647058"/>
      <point x="754.4705882352941" y="20.352941176470587" type="curve" smooth="yes"/>
    </contour>
  </outline>
</glyph>
<glyph name="X" format="2">
  <advance width="604.7647058823529"/>
  <unicode hex="0058"/>
  <outline>
    <contour>
      <point x="562.2352941176471" y="690.0" type="line"/>
      <point x="489.88235294117646" y="690.0" type="line"/>
      <point x="302.70588235294116" y="358.11764705882354" type="line"/>
      <point x="502.4117647058824" y="0.0" type="line"/>
      <point x="575.2352941176471" y="0.0" type="line"/>
      <point x="371.7647058823529" y="358.11764705882354" type="line"/>
    </contour>
    <contour>
      <point x="114.41176470588235" y="690.0" type="line"/>
      <point x="42.529411764705884" y="690.0" type="line"/>
      <point x="232.52941176470588" y="358.11764705882354" type="line"/>
      <point x="29.529411764705884" y="0.0" type="line"/>
      <point x="101.88235294117646" y="0.0" type="line"/>
      <point x="301.5882352941176" y="358.11764705882354" type="line"/>
    </contour>
    <contour>
      <point x="347.2352941176471" y="385.1764705882353" type="line"/>
      <point x="259.94117647058823" y="385.1764705882353" type="line"/>
      <point x="259.94117647058823" y="333.52941176470586" type="line"/>
      <point x="347.2352941176471" y="333.52941176470586" type="line"/>
    </contour>
  </outline>
</glyph>
<glyph name="Y" format="2">
  <advance width="558.8823529411765"/>
  <unicode hex="0059"/>
  <anchor x="278.52941176470586" y="0.0" name="bottom"/>
  <anchor x="280.4117647058824" y="729.6470588235294" name="top"/>
  <outline>
    <contour>
      <point x="542.9411764705883" y="690.0" type="line"/>
      <point x="473.52941176470586" y="690.0" type="line"/>
      <point x="316.11764705882354" y="383.29411764705884" type="line" smooth="yes"/>
      <point x="304.6470588235294" y="360.4117647058824"/>
      <point x="293.0" y="333.5882352941176"/>
      <point x="282.88235294117646" y="309.70588235294116" type="curve"/>
      <point x="276.47058823529414" y="309.70588235294116" type="line"/>
      <point x="265.8235294117647" y="333.5882352941176"/>
      <point x="254.7058823529412" y="360.4117647058824"/>
      <point x="242.7058823529412" y="383.8235294117647" type="curve" smooth="yes"/>
      <point x="85.29411764705883" y="690.0" type="line"/>
      <point x="14.941176470588236" y="690.0" type="line"/>
      <point x="251.1764705882353" y="239.64705882352942" type="line"/>
      <point x="308.1764705882353" y="239.64705882352942" type="line"/>
    </contour>
    <contour>
      <point x="312.1764705882353" y="290.88235294117646" type="line"/>
      <point x="246.7058823529412" y="290.88235294117646" type="line"/>
      <point x="246.7058823529412" y="0.0" type="line"/>
      <point x="312.1764705882353" y="0.0" type="line"/>
    </contour>
  </outline>
</glyph>
<glyph name="Z" format="2">
  <advance width="563.1764705882352"/>
  <unicode hex="005A"/>
  <anchor x="285.52941176470586" y="0.0" name="bottom"/>
  <anchor x="280.4117647058824" y="736.2352941176471" name="top"/>
  <outline>
    <contour>
      <point x="436.8235294117647" y="634.5882352941177" type="line"/>
      <point x="49.64705882352941" y="56.411764705882355" type="line"/>
      <point x="121.88235294117646" y="55.411764705882355" type="line"/>
      <point x="508.5882352941176" y="633.5882352941177" type="line"/>
    </contour>
    <contour>
      <point x="514.5294117647059" y="56.411764705882355" type="line"/>
      <point x="49.64705882352941" y="56.411764705882355" type="line"/>
      <point x="49.64705882352941" y="0.0" type="line"/>
      <point x="514.5294117647059" y="0.0" type="line"/>
    </contour>
    <contour>
      <point x="508.5882352941176" y="690.0" type="line"/>
      <point x="54.05882352941177" y="690.0" type="line"/>
      <point x="54.05882352941177" y="633.5882352941177" type="line"/>
      <point x="508.5882352941176" y="633.5882352941177" type="line"/>
    </contour>
  </outline>
</glyph>
<glyph name="bracketleft" format="2">
  <advance width="322.8235294117647"/>
  <unicode hex="005B"/>
  <outline>
    <contour>
      <point x="278.47058823529414" y="768.0" type="line"/>
      <point x="142.1764705882353" y="768.0" type="line" smooth="yes"/>
      <point x="115.70588235294117" y="768.0"/>
      <point x="96.58823529411765" y="748.8823529411765"/>
      <point x="96.58823529411765" y="722.4117647058823" type="curve" smooth="yes"/>
      <point x="96.58823529411765" y="-119.41176470588235" type="line" smooth="yes"/>
      <point x="96.58823529411765" y="-150.11764705882354"/>
      <point x="115.70588235294117" y="-165.0"/>
      <point x="142.1764705882353" y="-165.0" type="curve" smooth="yes"/>
      <point x="278.47058823529414" y="-165.0" type="line"/>
      <point x="278.47058823529414" y="-120.88235294117646" type="line"/>
      <point x="170.70588235294116" y="-120.88235294117646" type="line" smooth="yes"/>
      <point x="162.76470588235293" y="-120.88235294117646"/>
      <point x="156.8235294117647" y="-114.94117647058823"/>
      <point x="156.8235294117647" y="-106.52941176470588" type="curve" smooth="yes"/>
      <point x="156.8235294117647" y="709.5294117647059" type="line" smooth="yes"/>
      <point x="156.8235294117647" y="717.9411764705883"/>
      <point x="162.76470588235293" y="723.8823529411765"/>
      <point x="170.70588235294116" y="723.8823529411765" type="curve" smooth="yes"/>
      <point x="278.47058823529414" y="723.8823529411765" type="line"/>
    </contour>
  </outline>
</glyph>
<glyph name="backslash" format="2">
  <advance width="509.52941176470586"/>
  <unicode hex="005C"/>
  <outline>
    <contour>
      <point x="85.58823529411765" y="690.0" type="line"/>
      <point x="30.941176470588236" y="690.0" type="line"/>
      <point x="423.94117647058823" y="-63.23529411764706" type="line"/>
      <point x="478.5882352941176" y="-63.23529411764706" type="line"/>
    </contour>
  </outline>
</glyph>
<glyph name="bracketright" format="2">
  <advance width="322.8235294117647"/>
  <unicode hex="005D"/>
  <outline>
    <contour>
      <point x="180.1764705882353" y="768.0" type="curve" smooth="yes"/>
      <point x="44.35294117647059" y="768.0" type="line"/>
      <point x="44.35294117647059" y="723.8823529411765" type="line"/>
      <point x="151.64705882352942" y="723.8823529411765" type="line" smooth="yes"/>
      <point x="160.05882352941177" y="723.8823529411765"/>
      <point x="166.0" y="717.9411764705883"/>
      <point x="166.0" y="709.5294117647059" type="curve" smooth="yes"/>
      <point x="166.0" y="-106.52941176470588" type="line" smooth="yes"/>
      <point x="166.0" y="-114.94117647058823"/>
      <point x="160.05882352941177" y="-120.88235294117646"/>
      <point x="151.64705882352942" y="-120.88235294117646" type="curve" smooth="yes"/>
      <point x="44.35294117647059" y="-120.88235294117646" type="line"/>
      <point x="44.35294117647059" y="-165.0" type="line"/>
      <point x="180.1764705882353" y="-165.0" type="line" smooth="yes"/>
      <point x="207.11764705882354" y="-165.0"/>
      <point x="226.23529411764707" y="-145.88235294117646"/>
      <point x="226.23529411764707" y="-119.41176470588235" type="curve" smooth="yes"/>
      <point x="226.23529411764707" y="722.4117647058823" type="line" smooth="yes"/>
      <point x="226.23529411764707" y="748.8823529411765"/>
      <point x="207.11764705882354" y="768.0"/>
    </contour>
  </outline>
</glyph>
<glyph name="asciicircum" format="2">
  <advance width="414.11764705882354"/>
  <unicode hex="005E"/>
  <outline>
    <contour>
      <point x="230.4738823529412" y="591.4211764705882" type="line"/>
      <point x="184.2630588235294" y="591.4211764705882" type="line"/>
      <point x="30.0" y="385.57882352941175" type="line"/>
      <point x="57.105411764705885" y="367.26305882352943" type="line"/>
      <point x="203.36847058823528" y="544.0" type="line"/>
      <point x="211.36847058823528" y="544.0" type="line"/>
      <point x="357.57882352941175" y="367.26305882352943" type="line"/>
      <point x="384.1054117647059" y="385.57882352941175" type="line"/>
    </contour>
  </outline>
</glyph>
<glyph name="underscore" format="2">
  <advance width="435.2352941176471"/>
  <unicode hex="005F"/>
  <outline>
    <contour>
      <point x="435.2352941176471" y="0.0" type="line"/>
      <point x="0.0" y="0.0" type="line"/>
      <point x="0.0" y="-49.76470588235294" type="line"/>
      <point x="435.2352941176471" y="-49.76470588235294" type="line"/>
    </contour>
  </outline>
</glyph>
<glyph name="grave" format="2">
  <advance width="301.2103529411765"/>
  <unicode hex="0060"/>
  <anchor x="192.31576470588234" y="547.4738823529411" name="_top"/>
  <outline>
    <contour>
      <point x="78.82352941176471" y="717.8823529411765" type="line"/>
      <point x="41.05882352941177" y="669.8235294117648" type="line"/>
      <point x="219.0" y="542.0" type="line"/>
      <point x="242.88235294117646" y="571.9411764705883" type="line"/>
    </contour>
  </outline>
</glyph>
<glyph name="a" format="2">
  <advance width="545.0588235294117"/>
  <unicode hex="0061"/>
  <anchor x="261.8235294117647" y="-12.0" name="bottom"/>
  <anchor x="463.94117647058823" y="0.0" name="ogonek"/>
  <anchor x="271.2352941176471" y="555.1764705882352" name="top"/>
  <outline>
    <contour>
      <point x="310.2352941176471" y="496.70588235294116" type="curve" smooth="yes"/>
      <point x="227.64705882352942" y="496.70588235294116"/>
      <point x="143.35294117647058" y="485.1764705882353"/>
      <point x="77.0" y="474.7647058823529" type="curve"/>
      <point x="83.29411764705883" y="428.05882352941177" type="line"/>
      <point x="156.64705882352942" y="435.6470588235294"/>
      <point x="239.58823529411765" y="441.70588235294116"/>
      <point x="298.4117647058824" y="441.70588235294116" type="curve" smooth="yes"/>
      <point x="378.2352941176471" y="441.70588235294116"/>
      <point x="400.88235294117646" y="408.6470588235294"/>
      <point x="401.3529411764706" y="348.11764705882354" type="curve" smooth="yes"/>
      <point x="401.3529411764706" y="115.29411764705883" type="line"/>
      <point x="404.6470588235294" y="106.0" type="line"/>
      <point x="415.3529411764706" y="0.0" type="line"/>
      <point x="464.88235294117646" y="0.0" type="line"/>
      <point x="464.88235294117646" y="348.11764705882354" type="line" smooth="yes"/>
      <point x="464.88235294117646" y="458.70588235294116"/>
      <point x="409.1764705882353" y="496.70588235294116"/>
    </contour>
    <contour>
      <point x="432.1764705882353" y="296.5882352941176" type="line"/>
      <point x="184.2941176470588" y="296.5882352941176" type="line" smooth="yes"/>
      <point x="103.29411764705883" y="296.5882352941176"/>
      <point x="56.588235294117645" y="253.7058823529412"/>
      <point x="56.588235294117645" y="178.88235294117646" type="curve" smooth="yes"/>
      <point x="56.588235294117645" y="122.52941176470588" type="line" smooth="yes"/>
      <point x="56.588235294117645" y="38.411764705882355"/>
      <point x="110.58823529411765" y="-7.882352941176471"/>
      <point x="194.76470588235293" y="-7.882352941176471" type="curve" smooth="yes"/>
      <point x="296.8235294117647" y="-7.882352941176471"/>
      <point x="387.6470588235294" y="59.23529411764706"/>
      <point x="419.52941176470586" y="98.88235294117646" type="curve"/>
      <point x="419.52941176470586" y="148.35294117647058" type="line"/>
      <point x="361.7647058823529" y="84.88235294117646"/>
      <point x="269.47058823529414" y="46.588235294117645"/>
      <point x="205.58823529411765" y="47.64705882352941" type="curve" smooth="yes"/>
      <point x="148.52941176470588" y="48.1764705882353"/>
      <point x="121.11764705882354" y="74.11764705882354"/>
      <point x="121.11764705882354" y="129.11764705882354" type="curve" smooth="yes"/>
      <point x="121.11764705882354" y="171.35294117647058" type="line" smooth="yes"/>
      <point x="121.11764705882354" y="218.0"/>
      <point x="142.7058823529412" y="244.2941176470588"/>
      <point x="194.1764705882353" y="245.76470588235293" type="curve" smooth="yes"/>
      <point x="431.1764705882353" y="247.88235294117646" type="line"/>
    </contour>
  </outline>
</glyph>
<glyph name="b" format="2">
  <advance width="566.0"/>
  <unicode hex="0062"/>
  <outline>
    <contour>
      <point x="330.47058823529414" y="496.70588235294116" type="curve" smooth="yes"/>
      <point x="263.05882352941177" y="496.70588235294116"/>
      <point x="197.1764705882353" y="461.47058823529414"/>
      <point x="133.7058823529412" y="398.0" type="curve"/>
      <point x="137.47058823529412" y="352.88235294117646" type="line"/>
      <point x="206.76470588235293" y="408.11764705882354"/>
      <point x="254.23529411764707" y="440.7647058823529"/>
      <point x="311.6470588235294" y="440.7647058823529" type="curve" smooth="yes"/>
      <point x="410.1764705882353" y="440.7647058823529"/>
      <point x="439.94117647058823" y="389.1764705882353"/>
      <point x="440.4117647058824" y="243.2941176470588" type="curve" smooth="yes"/>
      <point x="439.94117647058823" y="94.58823529411765"/>
      <point x="399.94117647058823" y="43.0"/>
      <point x="296.8235294117647" y="42.529411764705884" type="curve" smooth="yes"/>
      <point x="245.88235294117646" y="42.05882352941176"/>
      <point x="191.94117647058823" y="48.05882352941176"/>
      <point x="133.23529411764707" y="65.70588235294117" type="curve"/>
      <point x="81.6470588235294" y="21.352941176470587" type="line"/>
      <point x="148.88235294117646" y="0.0"/>
      <point x="230.2941176470588" y="-12.0"/>
      <point x="297.7647058823529" y="-12.0" type="curve" smooth="yes"/>
      <point x="455.1764705882353" y="-12.0"/>
      <point x="505.88235294117646" y="71.17647058823529"/>
      <point x="505.88235294117646" y="243.2941176470588" type="curve" smooth="yes"/>
      <point x="505.88235294117646" y="425.7647058823529"/>
      <point x="453.1764705882353" y="496.70588235294116"/>
    </contour>
    <contour>
      <point x="145.1764705882353" y="700.0" type="line"/>
      <point x="81.6470588235294" y="700.0" type="line"/>
      <point x="81.6470588235294" y="21.352941176470587" type="line"/>
      <point x="145.1764705882353" y="19.0" type="line"/>
      <point x="144.70588235294116" y="386.70588235294116" type="line"/>
      <point x="137.94117647058823" y="401.7647058823529" type="line"/>
      <point x="144.76470588235293" y="435.5882352941176"/>
      <point x="145.1764705882353" y="464.70588235294116"/>
      <point x="145.1764705882353" y="505.5882352941176" type="curve" smooth="yes"/>
    </contour>
  </outline>
</glyph>
<glyph name="c" format="2">
  <advance width="485.05882352941177"/>
  <unicode hex="0063"/>
  <anchor x="280.8235294117647" y="-12.0" name="bottom"/>
  <anchor x="269.70588235294116" y="555.6470588235294" name="top"/>
  <outline>
    <contour>
      <point x="286.5882352941176" y="496.70588235294116" type="curve" smooth="yes"/>
      <point x="121.47058823529412" y="496.70588235294116"/>
      <point x="59.588235294117645" y="429.2352941176471"/>
      <point x="59.588235294117645" y="242.35294117647058" type="curve" smooth="yes"/>
      <point x="59.588235294117645" y="55.470588235294116"/>
      <point x="121.0" y="-12.0"/>
      <point x="286.6470588235294" y="-12.0" type="curve" smooth="yes"/>
      <point x="340.29411764705884" y="-12.0"/>
      <point x="398.47058823529414" y="-4.0588235294117645"/>
      <point x="445.29411764705884" y="10.176470588235293" type="curve"/>
      <point x="438.47058823529414" y="53.588235294117645" type="line"/>
      <point x="390.70588235294116" y="45.05882352941176"/>
      <point x="326.11764705882354" y="42.529411764705884"/>
      <point x="297.1764705882353" y="42.529411764705884" type="curve" smooth="yes"/>
      <point x="171.0" y="42.529411764705884"/>
      <point x="126.0" y="87.47058823529412"/>
      <point x="126.0" y="242.35294117647058" type="curve" smooth="yes"/>
      <point x="126.0" y="396.7647058823529"/>
      <point x="171.0" y="441.70588235294116"/>
      <point x="297.1764705882353" y="441.70588235294116" type="curve" smooth="yes"/>
      <point x="330.5882352941176" y="441.70588235294116"/>
      <point x="385.7647058823529" y="439.6470588235294"/>
      <point x="426.4117647058824" y="433.94117647058823" type="curve"/>
      <point x="435.70588235294116" y="475.47058823529414" type="line"/>
      <point x="389.94117647058823" y="491.7647058823529"/>
      <point x="327.29411764705884" y="496.70588235294116"/>
    </contour>
  </outline>
</glyph>
<glyph name="d" format="2">
  <advance width="568.5294117647059"/>
  <unicode hex="0064"/>
  <anchor x="291.1764705882353" y="-12.0" name="bottom"/>
  <anchor x="451.5882352941176" y="706.0" name="top"/>
  <outline>
    <contour>
      <point x="241.7058823529412" y="496.70588235294116" type="curve" smooth="yes"/>
      <point x="116.6470588235294" y="496.70588235294116"/>
      <point x="61.11764705882353" y="430.47058823529414"/>
      <point x="61.11764705882353" y="243.2941176470588" type="curve" smooth="yes"/>
      <point x="61.11764705882353" y="68.82352941176471"/>
      <point x="109.11764705882354" y="-12.0"/>
      <point x="233.7058823529412" y="-12.0" type="curve" smooth="yes"/>
      <point x="307.70588235294116" y="-12.0"/>
      <point x="373.94117647058823" y="25.705882352941178"/>
      <point x="433.6470588235294" y="79.29411764705883" type="curve"/>
      <point x="429.52941176470586" y="127.41176470588235" type="line"/>
      <point x="353.1764705882353" y="68.76470588235294"/>
      <point x="310.88235294117646" y="43.94117647058823"/>
      <point x="251.58823529411765" y="43.94117647058823" type="curve" smooth="yes"/>
      <point x="162.47058823529412" y="43.94117647058823"/>
      <point x="126.58823529411765" y="91.29411764705883"/>
      <point x="126.58823529411765" y="243.76470588235293" type="curve" smooth="yes"/>
      <point x="126.58823529411765" y="396.2352941176471"/>
      <point x="162.47058823529412" y="440.7647058823529"/>
      <point x="254.88235294117646" y="440.7647058823529" type="curve" smooth="yes"/>
      <point x="312.29411764705884" y="440.7647058823529"/>
      <point x="359.7647058823529" y="426.5882352941176"/>
      <point x="429.05882352941177" y="403.47058823529414" type="curve"/>
      <point x="432.3529411764706" y="445.7647058823529" type="line"/>
      <point x="369.8235294117647" y="479.11764705882354"/>
      <point x="306.29411764705884" y="496.70588235294116"/>
    </contour>
    <contour>
      <point x="484.3529411764706" y="700.0" type="line"/>
      <point x="420.8235294117647" y="700.0" type="line"/>
      <point x="420.8235294117647" y="544.8823529411765" type="line" smooth="yes"/>
      <point x="420.8235294117647" y="507.05882352941177"/>
      <point x="421.2352941176471" y="477.94117647058823"/>
      <point x="425.70588235294116" y="441.05882352941177" type="curve"/>
      <point x="420.8235294117647" y="426.0" type="line"/>
      <point x="420.8235294117647" y="90.82352941176471" type="line"/>
      <point x="427.52941176470586" y="84.47058823529412" type="line"/>
      <point x="434.8235294117647" y="0.0" type="line"/>
      <point x="484.3529411764706" y="0.0" type="line"/>
    </contour>
  </outline>
</glyph>
<glyph name="e" format="2">
  <advance width="533.5882352941177"/>
  <unicode hex="0065"/>
  <anchor x="267.2352941176471" y="-5.647058823529411" name="bottom"/>
  <anchor x="467.5882352941176" y="12.588235294117647" name="ogonek"/>
  <anchor x="279.8235294117647" y="555.1764705882352" name="top"/>
  <outline>
    <contour>
      <point x="276.88235294117646" y="496.70588235294116" type="curve" smooth="yes"/>
      <point x="123.23529411764706" y="496.70588235294116"/>
      <point x="59.588235294117645" y="432.5882352941176"/>
      <point x="59.588235294117645" y="243.88235294117646" type="curve" smooth="yes"/>
      <point x="59.588235294117645" y="58.05882352941177"/>
      <point x="123.47058823529412" y="-12.0"/>
      <point x="285.3529411764706" y="-12.0" type="curve" smooth="yes"/>
      <point x="340.1764705882353" y="-12.0"/>
      <point x="427.11764705882354" y="-4.0"/>
      <point x="467.5882352941176" y="12.117647058823529" type="curve"/>
      <point x="460.7647058823529" y="55.05882352941176" type="line"/>
      <point x="415.29411764705884" y="48.588235294117645"/>
      <point x="350.52941176470586" y="42.529411764705884"/>
      <point x="293.52941176470586" y="42.529411764705884" type="curve" smooth="yes"/>
      <point x="173.64705882352942" y="42.529411764705884"/>
      <point x="125.52941176470588" y="85.05882352941177"/>
      <point x="125.52941176470588" y="247.23529411764707" type="curve" smooth="yes"/>
      <point x="125.52941176470588" y="395.3529411764706"/>
      <point x="163.64705882352942" y="442.1764705882353"/>
      <point x="279.7647058823529" y="442.1764705882353" type="curve" smooth="yes"/>
      <point x="374.05882352941177" y="442.1764705882353"/>
      <point x="413.94117647058823" y="413.29411764705884"/>
      <point x="415.0" y="345.05882352941177" type="curve" smooth="yes"/>
      <point x="416.05882352941177" y="297.29411764705884"/>
      <point x="402.5882352941176" y="261.2352941176471"/>
      <point x="353.47058823529414" y="261.2352941176471" type="curve" smooth="yes"/>
      <point x="85.3529411764706" y="261.2352941176471" type="line"/>
      <point x="85.3529411764706" y="211.0" type="line"/>
      <point x="367.5882352941176" y="211.0" type="line" smooth="yes"/>
      <point x="447.47058823529414" y="211.0"/>
      <point x="480.11764705882354" y="259.2352941176471"/>
      <point x="479.05882352941177" y="345.6470588235294" type="curve" smooth="yes"/>
      <point x="478.0" y="445.5882352941176"/>
      <point x="416.0" y="496.70588235294116"/>
    </contour>
  </outline>
</glyph>
<glyph name="f" format="2">
  <advance width="370.94117647058823"/>
  <unicode hex="0066"/>
  <outline>
    <contour>
      <point x="254.05882352941177" y="715.8823529411765" type="curve" smooth="yes"/>
      <point x="154.05882352941177" y="715.8823529411765"/>
      <point x="118.23529411764706" y="666.1764705882352"/>
      <point x="118.23529411764706" y="576.7647058823529" type="curve" smooth="yes"/>
      <point x="118.23529411764706" y="0.0" type="line"/>
      <point x="181.76470588235293" y="0.0" type="line"/>
      <point x="181.76470588235293" y="570.6470588235294" type="line" smooth="yes"/>
      <point x="181.76470588235293" y="638.0588235294117"/>
      <point x="206.52941176470588" y="662.8235294117648"/>
      <point x="276.1764705882353" y="662.8235294117648" type="curve" smooth="yes"/>
      <point x="380.05882352941177" y="662.8235294117648" type="line"/>
      <point x="384.29411764705884" y="710.0" type="line"/>
      <point x="347.47058823529414" y="714.4117647058823"/>
      <point x="284.4117647058824" y="715.8823529411765"/>
    </contour>
    <contour>
      <point x="345.1764705882353" y="484.2352941176471" type="line"/>
      <point x="123.29411764705883" y="484.2352941176471" type="line"/>
      <point x="30.764705882352942" y="479.2352941176471" type="line"/>
      <point x="30.764705882352942" y="433.52941176470586" type="line"/>
      <point x="345.1764705882353" y="433.52941176470586" type="line"/>
    </contour>
  </outline>
</glyph>
<glyph name="g" format="2">
  <advance width="553.4705882352941"/>
  <unicode hex="0067"/>
  <anchor x="271.4117647058824" y="555.6470588235294" name="top"/>
  <outline>
    <contour>
      <point x="270.4117647058824" y="496.70588235294116" type="curve" smooth="yes"/>
      <point x="120.17647058823529" y="496.70588235294116"/>
      <point x="67.11764705882354" y="449.0"/>
      <point x="67.11764705882354" y="343.0" type="curve" smooth="yes"/>
      <point x="67.11764705882354" y="239.2941176470588"/>
      <point x="120.70588235294117" y="191.76470588235293"/>
      <point x="269.94117647058823" y="191.76470588235293" type="curve" smooth="yes"/>
      <point x="419.1764705882353" y="191.76470588235293"/>
      <point x="471.70588235294116" y="239.2941176470588"/>
      <point x="471.70588235294116" y="343.47058823529414" type="curve" smooth="yes"/>
      <point x="471.70588235294116" y="449.0"/>
      <point x="419.70588235294116" y="496.70588235294116"/>
    </contour>
    <contour>
      <point x="269.94117647058823" y="446.94117647058823" type="curve" smooth="yes"/>
      <point x="376.47058823529414" y="446.94117647058823"/>
      <point x="412.4117647058824" y="415.70588235294116"/>
      <point x="412.4117647058824" y="343.47058823529414" type="curve" smooth="yes"/>
      <point x="412.4117647058824" y="272.11764705882354"/>
      <point x="375.94117647058823" y="241.05882352941177"/>
      <point x="269.94117647058823" y="241.05882352941177" type="curve" smooth="yes"/>
      <point x="163.94117647058823" y="241.05882352941177"/>
      <point x="125.94117647058823" y="272.11764705882354"/>
      <point x="125.94117647058823" y="343.47058823529414" type="curve" smooth="yes"/>
      <point x="125.94117647058823" y="415.70588235294116"/>
      <point x="163.41176470588235" y="446.94117647058823"/>
    </contour>
    <contour>
      <point x="529.1764705882352" y="484.2352941176471" type="line"/>
      <point x="367.52941176470586" y="484.2352941176471" type="line"/>
      <point x="402.52941176470586" y="439.6470588235294" type="line"/>
      <point x="524.7647058823529" y="447.88235294117646" type="line"/>
    </contour>
    <contour>
      <point x="134.11764705882354" y="224.35294117647058" type="line"/>
      <point x="70.70588235294117" y="185.35294117647058"/>
      <point x="63.88235294117647" y="70.47058823529412"/>
      <point x="168.88235294117646" y="54.294117647058826" type="curve" smooth="yes"/>
      <point x="352.8235294117647" y="25.88235294117647" type="line" smooth="yes"/>
      <point x="422.94117647058823" y="14.764705882352942"/>
      <point x="437.94117647058823" y="-2.0"/>
      <point x="437.94117647058823" y="-56.58823529411765" type="curve" smooth="yes"/>
      <point x="437.94117647058823" y="-129.8235294117647"/>
      <point x="398.6470588235294" y="-150.88235294117646"/>
      <point x="274.94117647058823" y="-150.88235294117646" type="curve" smooth="yes"/>
      <point x="147.58823529411765" y="-150.88235294117646"/>
      <point x="108.76470588235294" y="-131.23529411764707"/>
      <point x="108.76470588235294" y="-56.58823529411765" type="curve" smooth="yes"/>
      <point x="108.76470588235294" y="-4.882352941176471"/>
      <point x="124.35294117647058" y="21.352941176470587"/>
      <point x="167.64705882352942" y="50.76470588235294" type="curve" smooth="yes"/>
      <point x="217.23529411764707" y="86.0" type="line"/>
      <point x="183.2941176470588" y="97.23529411764706" type="line"/>
      <point x="129.52941176470588" y="68.11764705882354" type="line" smooth="yes"/>
      <point x="67.47058823529412" y="35.76470588235294"/>
      <point x="46.64705882352941" y="3.3529411764705888"/>
      <point x="46.64705882352941" y="-61.294117647058826" type="curve" smooth="yes"/>
      <point x="46.64705882352941" y="-168.94117647058823"/>
      <point x="105.11764705882354" y="-205.41176470588235"/>
      <point x="275.4117647058824" y="-205.41176470588235" type="curve" smooth="yes"/>
      <point x="441.52941176470586" y="-205.41176470588235"/>
      <point x="500.05882352941177" y="-168.94117647058823"/>
      <point x="500.05882352941177" y="-59.41176470588235" type="curve" smooth="yes"/>
      <point x="500.05882352941177" y="19.88235294117647"/>
      <point x="472.52941176470586" y="59.64705882352941"/>
      <point x="383.3529411764706" y="74.17647058823529" type="curve" smooth="yes"/>
      <point x="197.41176470588235" y="104.88235294117646" type="line" smooth="yes"/>
      <point x="124.05882352941177" y="117.17647058823529"/>
      <point x="131.64705882352942" y="181.7058823529412"/>
      <point x="172.47058823529412" y="218.52941176470588" type="curve"/>
    </contour>
  </outline>
</glyph>
<glyph name="h" format="2">
  <advance width="576.5294117647059"/>
  <unicode hex="0068"/>
  <anchor x="295.05882352941177" y="-5.647058823529411" name="bottom"/>
  <anchor x="288.70588235294116" y="240.0" name="center"/>
  <anchor x="114.41176470588235" y="705.4705882352941" name="top"/>
  <outline>
    <contour>
      <point x="365.0" y="496.70588235294116" type="curve" smooth="yes"/>
      <point x="290.47058823529414" y="496.70588235294116"/>
      <point x="215.88235294117646" y="460.11764705882354"/>
      <point x="137.58823529411765" y="400.94117647058823" type="curve"/>
      <point x="139.94117647058823" y="353.47058823529414" type="line"/>
      <point x="226.88235294117646" y="411.0"/>
      <point x="283.70588235294116" y="441.70588235294116"/>
      <point x="348.2352941176471" y="441.70588235294116" type="curve" smooth="yes"/>
      <point x="407.1764705882353" y="441.70588235294116"/>
      <point x="432.3529411764706" y="415.6470588235294"/>
      <point x="432.3529411764706" y="347.1764705882353" type="curve" smooth="yes"/>
      <point x="432.3529411764706" y="0.0" type="line"/>
      <point x="495.88235294117646" y="0.0" type="line"/>
      <point x="495.88235294117646" y="363.8235294117647" type="line" smooth="yes"/>
      <point x="495.88235294117646" y="450.7647058823529"/>
      <point x="450.47058823529414" y="496.70588235294116"/>
    </contour>
    <contour>
      <point x="147.1764705882353" y="700.0" type="line"/>
      <point x="83.6470588235294" y="700.0" type="line"/>
      <point x="83.6470588235294" y="0.0" type="line"/>
      <point x="147.1764705882353" y="0.0" type="line"/>
      <point x="147.1764705882353" y="377.88235294117646" type="line"/>
      <point x="140.41176470588235" y="393.4117647058824" type="line"/>
      <point x="145.8235294117647" y="421.3529411764706"/>
      <point x="148.70588235294116" y="458.47058823529414"/>
      <point x="148.70588235294116" y="499.11764705882354" type="curve" smooth="yes"/>
    </contour>
  </outline>
</glyph>
<glyph name="i" format="2">
  <advance width="238.35294117647058"/>
  <unicode hex="0069"/>
  <anchor x="120.41176470588235" y="-5.647058823529411" name="bottom"/>
  <anchor x="146.94117647058823" y="0.0" name="ogonek"/>
  <anchor x="119.3529411764706" y="555.6470588235294" name="top"/>
  <outline>
    <contour>
      <point x="150.70588235294116" y="484.2352941176471" type="line"/>
      <point x="87.6470588235294" y="484.2352941176471" type="line"/>
      <point x="87.6470588235294" y="0.0" type="line"/>
      <point x="150.70588235294116" y="0.0" type="line"/>
    </contour>
    <contour>
      <point x="133.8235294117647" y="688.4117647058823" type="curve" smooth="yes"/>
      <point x="104.52941176470588" y="688.4117647058823" type="line" smooth="yes"/>
      <point x="90.41176470588235" y="688.4117647058823"/>
      <point x="83.58823529411765" y="680.6470588235294"/>
      <point x="83.58823529411765" y="667.4705882352941" type="curve" smooth="yes"/>
      <point x="83.58823529411765" y="608.7647058823529" type="line" smooth="yes"/>
      <point x="83.58823529411765" y="594.6470588235294"/>
      <point x="90.41176470588235" y="587.8235294117648"/>
      <point x="104.52941176470588" y="587.8235294117648" type="curve" smooth="yes"/>
      <point x="133.8235294117647" y="587.8235294117648" type="line" smooth="yes"/>
      <point x="147.94117647058823" y="587.8235294117648"/>
      <point x="154.76470588235293" y="594.6470588235294"/>
      <point x="154.76470588235293" y="608.7647058823529" type="curve" smooth="yes"/>
      <point x="154.76470588235293" y="667.4705882352941" type="line" smooth="yes"/>
      <point x="154.76470588235293" y="680.6470588235294"/>
      <point x="147.94117647058823" y="688.4117647058823"/>
    </contour>
  </outline>
</glyph>
<glyph name="j" format="2">
  <advance width="239.2941176470588"/>
  <unicode hex="006A"/>
  <outline>
    <contour>
      <point x="151.64705882352942" y="484.2352941176471" type="line"/>
      <point x="88.11764705882354" y="484.2352941176471" type="line"/>
      <point x="88.11764705882354" y="-23.88235294117647" type="line" smooth="yes"/>
      <point x="88.11764705882354" y="-87.47058823529412"/>
      <point x="69.0" y="-131.94117647058823"/>
      <point x="32.64705882352941" y="-178.35294117647058" type="curve"/>
      <point x="67.76470588235294" y="-205.76470588235293" type="line"/>
      <point x="119.05882352941177" y="-161.7058823529412"/>
      <point x="151.64705882352942" y="-97.3529411764706"/>
      <point x="151.64705882352942" y="-23.88235294117647" type="curve" smooth="yes"/>
    </contour>
    <contour>
      <point x="134.76470588235293" y="688.4117647058823" type="curve" smooth="yes"/>
      <point x="105.47058823529412" y="688.4117647058823" type="line"/>
      <point x="91.3529411764706" y="688.4117647058823"/>
      <point x="84.52941176470588" y="680.6470588235294"/>
      <point x="84.52941176470588" y="667.4705882352941" type="curve" smooth="yes"/>
      <point x="84.52941176470588" y="608.7647058823529" type="line"/>
      <point x="84.52941176470588" y="594.6470588235294"/>
      <point x="91.3529411764706" y="587.8235294117648"/>
      <point x="105.47058823529412" y="587.8235294117648" type="curve" smooth="yes"/>
      <point x="134.76470588235293" y="587.8235294117648" type="line"/>
      <point x="148.88235294117646" y="587.8235294117648"/>
      <point x="155.70588235294116" y="594.6470588235294"/>
      <point x="155.70588235294116" y="608.7647058823529" type="curve" smooth="yes"/>
      <point x="155.70588235294116" y="667.4705882352941" type="line"/>
      <point x="155.70588235294116" y="680.6470588235294"/>
      <point x="148.88235294117646" y="688.4117647058823"/>
    </contour>
  </outline>
</glyph>
<glyph name="k" format="2">
  <advance width="496.52941176470586"/>
  <unicode hex="006B"/>
  <anchor x="250.11764705882354" y="0.0" name="bottom"/>
  <outline>
    <contour>
      <point x="457.4117647058824" y="484.2352941176471" type="line"/>
      <point x="382.11764705882354" y="484.2352941176471" type="line"/>
      <point x="196.05882352941177" y="277.88235294117646" type="line"/>
      <point x="398.6470588235294" y="0.0" type="line"/>
      <point x="473.4117647058824" y="0.0" type="line"/>
      <point x="294.7647058823529" y="239.05882352941177" type="line" smooth="yes"/>
      <point x="286.88235294117646" y="251.2941176470588"/>
      <point x="272.5882352941176" y="266.52941176470586"/>
      <point x="264.70588235294116" y="273.0" type="curve"/>
      <point x="264.70588235294116" y="275.0" type="line"/>
      <point x="272.5882352941176" y="280.4117647058824"/>
      <point x="286.88235294117646" y="293.2352941176471"/>
      <point x="294.7647058823529" y="303.47058823529414" type="curve" smooth="yes"/>
    </contour>
    <contour>
      <point x="147.1764705882353" y="700.0" type="line"/>
      <point x="83.6470588235294" y="700.0" type="line"/>
      <point x="83.6470588235294" y="0.0" type="line"/>
      <point x="147.1764705882353" y="0.0" type="line"/>
      <point x="147.1764705882353" y="169.94117647058823" type="line" smooth="yes"/>
      <point x="147.1764705882353" y="203.88235294117646"/>
      <point x="144.8235294117647" y="238.52941176470588"/>
      <point x="140.41176470588235" y="275.94117647058823" type="curve"/>
      <point x="146.2941176470588" y="313.29411764705884"/>
      <point x="148.70588235294116" y="342.88235294117646"/>
      <point x="148.70588235294116" y="381.6470588235294" type="curve" smooth="yes"/>
    </contour>
    <contour>
      <point x="236.35294117647058" y="298.70588235294116" type="line"/>
      <point x="122.29411764705883" y="298.70588235294116" type="line"/>
      <point x="122.29411764705883" y="251.2941176470588" type="line"/>
      <point x="236.35294117647058" y="251.2941176470588" type="line"/>
    </contour>
  </outline>
</glyph>
<glyph name="l" format="2">
  <advance width="287.4117647058824"/>
  <unicode hex="006C"/>
  <anchor x="186.94117647058823" y="-5.647058823529411" name="bottom"/>
  <anchor x="116.94117647058823" y="755.0" name="top"/>
  <outline>
    <contour>
      <point x="148.1764705882353" y="700.0" type="line"/>
      <point x="84.6470588235294" y="700.0" type="line"/>
      <point x="84.6470588235294" y="108.17647058823529" type="line" smooth="yes"/>
      <point x="84.6470588235294" y="33.294117647058826"/>
      <point x="128.88235294117646" y="-7.882352941176471"/>
      <point x="197.41176470588235" y="-7.882352941176471" type="curve" smooth="yes"/>
      <point x="219.1764705882353" y="-7.882352941176471"/>
      <point x="260.6470588235294" y="-4.470588235294118"/>
      <point x="277.4117647058824" y="2.3529411764705883" type="curve"/>
      <point x="269.70588235294116" y="49.88235294117647" type="line"/>
      <point x="218.76470588235293" y="49.88235294117647" type="line" smooth="yes"/>
      <point x="172.94117647058823" y="49.88235294117647"/>
      <point x="147.70588235294116" y="74.11764705882354"/>
      <point x="147.70588235294116" y="120.47058823529412" type="curve" smooth="yes"/>
    </contour>
  </outline>
</glyph>
<glyph name="m" format="2">
  <advance width="877.1764705882352"/>
  <unicode hex="006D"/>
  <anchor x="440.5882352941176" y="-5.647058823529411" name="bottom"/>
  <anchor x="450.0" y="558.0" name="top"/>
  <outline>
    <contour>
      <point x="668.7647058823529" y="496.70588235294116" type="curve" smooth="yes"/>
      <point x="600.2352941176471" y="496.70588235294116"/>
      <point x="533.0588235294117" y="464.5882352941176"/>
      <point x="461.3529411764706" y="400.47058823529414" type="curve"/>
      <point x="464.6470588235294" y="353.47058823529414" type="line"/>
      <point x="546.8823529411765" y="414.29411764705884"/>
      <point x="590.1764705882352" y="441.70588235294116"/>
      <point x="647.7647058823529" y="441.70588235294116" type="curve" smooth="yes"/>
      <point x="707.3529411764706" y="441.70588235294116"/>
      <point x="733.4705882352941" y="412.8235294117647"/>
      <point x="733.9411764705883" y="347.1764705882353" type="curve" smooth="yes"/>
      <point x="733.9411764705883" y="0.0" type="line"/>
      <point x="796.5294117647059" y="0.0" type="line"/>
      <point x="796.5294117647059" y="363.8235294117647" type="line" smooth="yes"/>
      <point x="796.5294117647059" y="450.7647058823529"/>
      <point x="751.5882352941177" y="496.70588235294116"/>
    </contour>
    <contour>
      <point x="135.58823529411765" y="484.2352941176471" type="line"/>
      <point x="84.17647058823529" y="484.2352941176471" type="line"/>
      <point x="84.17647058823529" y="0.0" type="line"/>
      <point x="147.23529411764707" y="0.0" type="line"/>
      <point x="147.23529411764707" y="377.88235294117646" type="line"/>
      <point x="140.47058823529412" y="393.4117647058824" type="line"/>
    </contour>
    <contour>
      <point x="344.11764705882354" y="496.70588235294116" type="curve" smooth="yes"/>
      <point x="274.6470588235294" y="496.70588235294116"/>
      <point x="207.47058823529412" y="463.6470588235294"/>
      <point x="136.23529411764707" y="400.47058823529414" type="curve"/>
      <point x="140.0" y="353.47058823529414" type="line"/>
      <point x="223.1764705882353" y="415.2352941176471"/>
      <point x="266.94117647058823" y="441.70588235294116"/>
      <point x="323.5882352941176" y="441.70588235294116" type="curve" smooth="yes"/>
      <point x="381.29411764705884" y="441.70588235294116"/>
      <point x="410.2352941176471" y="414.70588235294116"/>
      <point x="409.7647058823529" y="347.1764705882353" type="curve" smooth="yes"/>
      <point x="409.7647058823529" y="0.0" type="line"/>
      <point x="471.4117647058824" y="0.0" type="line"/>
      <point x="471.4117647058824" y="363.8235294117647" type="line" smooth="yes"/>
      <point x="470.94117647058823" y="451.2352941176471"/>
      <point x="426.0" y="496.70588235294116"/>
    </contour>
  </outline>
</glyph>
<glyph name="n" format="2">
  <advance width="577.0588235294117"/>
  <unicode hex="006E"/>
  <anchor x="292.52941176470586" y="-5.647058823529411" name="bottom"/>
  <anchor x="299.5882352941176" y="555.1764705882352" name="top"/>
  <outline>
    <contour>
      <point x="365.52941176470586" y="496.70588235294116" type="curve" smooth="yes"/>
      <point x="291.0" y="496.70588235294116"/>
      <point x="216.41176470588235" y="462.2352941176471"/>
      <point x="138.11764705882354" y="400.94117647058823" type="curve"/>
      <point x="140.47058823529412" y="353.47058823529414" type="line"/>
      <point x="227.41176470588235" y="410.05882352941177"/>
      <point x="284.2352941176471" y="441.70588235294116"/>
      <point x="348.7647058823529" y="441.70588235294116" type="curve" smooth="yes"/>
      <point x="407.70588235294116" y="441.70588235294116"/>
      <point x="432.88235294117646" y="415.6470588235294"/>
      <point x="432.88235294117646" y="347.1764705882353" type="curve" smooth="yes"/>
      <point x="432.88235294117646" y="0.0" type="line"/>
      <point x="496.4117647058824" y="0.0" type="line"/>
      <point x="496.4117647058824" y="363.8235294117647" type="line" smooth="yes"/>
      <point x="496.4117647058824" y="450.7647058823529"/>
      <point x="451.0" y="496.70588235294116"/>
    </contour>
    <contour>
      <point x="137.0" y="484.2352941176471" type="line"/>
      <point x="84.17647058823529" y="484.2352941176471" type="line"/>
      <point x="84.17647058823529" y="0.0" type="line"/>
      <point x="147.70588235294116" y="0.0" type="line"/>
      <point x="147.23529411764707" y="377.88235294117646" type="line"/>
      <point x="142.35294117647058" y="393.4117647058824" type="line"/>
    </contour>
  </outline>
</glyph>
<glyph name="p" format="2">
  <advance width="573.2352941176471"/>
  <unicode hex="0070"/>
  <outline>
    <contour>
      <point x="342.3529411764706" y="496.70588235294116" type="curve" smooth="yes"/>
      <point x="272.5882352941176" y="496.70588235294116"/>
      <point x="198.35294117647058" y="461.3529411764706"/>
      <point x="138.64705882352942" y="400.52941176470586" type="curve"/>
      <point x="143.70588235294116" y="355.3529411764706" type="line"/>
      <point x="217.23529411764707" y="413.5882352941176"/>
      <point x="267.05882352941177" y="440.7647058823529"/>
      <point x="324.47058823529414" y="440.7647058823529" type="curve" smooth="yes"/>
      <point x="412.1764705882353" y="440.7647058823529"/>
      <point x="446.6470588235294" y="389.1764705882353"/>
      <point x="446.6470588235294" y="240.94117647058823" type="curve" smooth="yes"/>
      <point x="446.6470588235294" y="88.94117647058823"/>
      <point x="410.7647058823529" y="43.94117647058823"/>
      <point x="317.88235294117646" y="43.94117647058823" type="curve" smooth="yes"/>
      <point x="260.94117647058823" y="43.94117647058823"/>
      <point x="213.47058823529412" y="58.11764705882353"/>
      <point x="144.1764705882353" y="81.23529411764706" type="curve"/>
      <point x="140.88235294117646" y="41.05882352941177" type="line"/>
      <point x="203.41176470588235" y="5.588235294117647"/>
      <point x="266.94117647058823" y="-12.0"/>
      <point x="331.52941176470586" y="-12.0" type="curve" smooth="yes"/>
      <point x="456.5882352941176" y="-12.0"/>
      <point x="512.1176470588235" y="54.705882352941174"/>
      <point x="512.1176470588235" y="240.47058823529412" type="curve" smooth="yes"/>
      <point x="512.1176470588235" y="414.47058823529414"/>
      <point x="464.11764705882354" y="496.70588235294116"/>
    </contour>
    <contour>
      <point x="135.58823529411765" y="484.2352941176471" type="line"/>
      <point x="84.17647058823529" y="484.2352941176471" type="line"/>
      <point x="84.17647058823529" y="-203.88235294117646" type="line"/>
      <point x="147.23529411764707" y="-203.88235294117646" type="line"/>
      <point x="147.23529411764707" y="-57.11764705882353" type="line" smooth="yes"/>
      <point x="147.70588235294116" y="-19.764705882352942"/>
      <point x="147.76470588235293" y="9.352941176470589"/>
      <point x="143.76470588235293" y="46.23529411764706" type="curve"/>
      <point x="147.23529411764707" y="58.23529411764706" type="line"/>
      <point x="147.23529411764707" y="378.6470588235294" type="line"/>
      <point x="142.88235294117646" y="388.7647058823529" type="line"/>
    </contour>
  </outline>
</glyph>
<glyph name="q" format="2">
  <advance width="566.0588235294117"/>
  <unicode hex="0071"/>
  <outline>
    <contour>
      <point x="271.7647058823529" y="496.70588235294116" type="curve" smooth="yes"/>
      <point x="110.82352941176471" y="496.70588235294116"/>
      <point x="60.11764705882353" y="415.52941176470586"/>
      <point x="60.11764705882353" y="241.41176470588235" type="curve" smooth="yes"/>
      <point x="60.11764705882353" y="65.05882352941177"/>
      <point x="112.3529411764706" y="-12.470588235294118"/>
      <point x="226.47058823529412" y="-12.470588235294118" type="curve" smooth="yes"/>
      <point x="302.52941176470586" y="-12.470588235294118"/>
      <point x="368.1764705882353" y="22.529411764705884"/>
      <point x="436.8235294117647" y="80.88235294117646" type="curve"/>
      <point x="428.05882352941177" y="124.35294117647058" type="line"/>
      <point x="357.29411764705884" y="73.11764705882354"/>
      <point x="310.4117647058824" y="43.94117647058823"/>
      <point x="246.0" y="43.94117647058823" type="curve" smooth="yes"/>
      <point x="155.35294117647058" y="43.94117647058823"/>
      <point x="125.58823529411765" y="102.35294117647058"/>
      <point x="125.58823529411765" y="237.11764705882354" type="curve" smooth="yes"/>
      <point x="125.58823529411765" y="394.6470588235294"/>
      <point x="164.64705882352942" y="440.7647058823529"/>
      <point x="272.94117647058823" y="442.1764705882353" type="curve" smooth="yes"/>
      <point x="316.52941176470586" y="442.6470588235294"/>
      <point x="374.11764705882354" y="436.11764705882354"/>
      <point x="432.29411764705884" y="419.0" type="curve"/>
      <point x="483.88235294117646" y="463.3529411764706" type="line"/>
      <point x="416.6470588235294" y="484.70588235294116"/>
      <point x="333.70588235294116" y="496.70588235294116"/>
    </contour>
    <contour>
      <point x="420.8235294117647" y="465.70588235294116" type="line"/>
      <point x="420.8235294117647" y="93.3529411764706" type="line"/>
      <point x="427.5882352941176" y="78.29411764705883" type="line"/>
      <point x="420.7647058823529" y="44.470588235294116"/>
      <point x="420.3529411764706" y="15.352941176470589"/>
      <point x="420.3529411764706" y="-25.52941176470588" type="curve" smooth="yes"/>
      <point x="420.8235294117647" y="-203.88235294117646" type="line"/>
      <point x="483.88235294117646" y="-203.88235294117646" type="line"/>
      <point x="483.88235294117646" y="463.3529411764706" type="line"/>
    </contour>
  </outline>
</glyph>
<glyph name="r" format="2">
  <advance width="394.29411764705884"/>
  <unicode hex="0072"/>
  <anchor x="116.94117647058823" y="-5.647058823529411" name="bottom"/>
  <anchor x="220.52941176470588" y="555.6470588235294" name="top"/>
  <outline>
    <contour>
      <point x="133.23529411764707" y="484.2352941176471" type="line"/>
      <point x="84.17647058823529" y="484.2352941176471" type="line"/>
      <point x="84.17647058823529" y="0.0" type="line"/>
      <point x="147.70588235294116" y="0.0" type="line"/>
      <point x="147.70588235294116" y="377.88235294117646" type="line"/>
      <point x="140.94117647058823" y="393.4117647058824" type="line"/>
    </contour>
    <contour>
      <point x="375.05882352941177" y="496.70588235294116" type="line"/>
      <point x="354.1764705882353" y="496.70588235294116" type="line"/>
      <point x="284.52941176470586" y="496.70588235294116"/>
      <point x="211.05882352941177" y="461.11764705882354"/>
      <point x="135.76470588235293" y="400.47058823529414" type="curve"/>
      <point x="140.47058823529412" y="358.1764705882353" type="line"/>
      <point x="225.8235294117647" y="408.05882352941177"/>
      <point x="281.1764705882353" y="437.0"/>
      <point x="342.70588235294116" y="437.0" type="curve" smooth="yes"/>
      <point x="366.7647058823529" y="437.0" type="line"/>
    </contour>
  </outline>
</glyph>
<glyph name="s" format="2">
  <advance width="504.6470588235294"/>
  <unicode hex="0073"/>
  <anchor x="248.47058823529412" y="-11.0" name="bottom"/>
  <anchor x="256.29411764705884" y="555.6470588235294" name="top"/>
  <outline>
    <contour>
      <point x="239.94117647058823" y="496.70588235294116" type="curve" smooth="yes"/>
      <point x="112.58823529411765" y="498.2352941176471"/>
      <point x="54.470588235294116" y="480.8235294117647"/>
      <point x="54.470588235294116" y="365.0" type="curve" smooth="yes"/>
      <point x="54.470588235294116" y="283.88235294117646"/>
      <point x="87.70588235294117" y="248.05882352941177"/>
      <point x="162.23529411764707" y="233.0" type="curve" smooth="yes"/>
      <point x="310.11764705882354" y="205.47058823529412" type="line" smooth="yes"/>
      <point x="357.1764705882353" y="196.1764705882353"/>
      <point x="389.47058823529414" y="182.58823529411765"/>
      <point x="389.47058823529414" y="126.23529411764706" type="curve" smooth="yes"/>
      <point x="389.47058823529414" y="55.1764705882353"/>
      <point x="352.05882352941177" y="44.05882352941176"/>
      <point x="239.11764705882354" y="43.0" type="curve" smooth="yes"/>
      <point x="176.05882352941177" y="42.470588235294116"/>
      <point x="123.05882352941177" y="44.0"/>
      <point x="69.94117647058823" y="48.588235294117645" type="curve"/>
      <point x="65.05882352941177" y="1.8823529411764706" type="line"/>
      <point x="144.1764705882353" y="-10.0"/>
      <point x="210.41176470588235" y="-11.0"/>
      <point x="249.88235294117646" y="-11.0" type="curve" smooth="yes"/>
      <point x="384.05882352941177" y="-11.0"/>
      <point x="451.11764705882354" y="5.647058823529411"/>
      <point x="451.11764705882354" y="126.23529411764706" type="curve" smooth="yes"/>
      <point x="451.11764705882354" y="206.94117647058823"/>
      <point x="414.0" y="241.11764705882354"/>
      <point x="339.29411764705884" y="256.2352941176471" type="curve" smooth="yes"/>
      <point x="190.47058823529412" y="284.2352941176471" type="line" smooth="yes"/>
      <point x="141.8235294117647" y="293.52941176470586"/>
      <point x="116.11764705882354" y="307.1764705882353"/>
      <point x="116.11764705882354" y="365.0" type="curve" smooth="yes"/>
      <point x="116.11764705882354" y="441.2352941176471"/>
      <point x="151.76470588235293" y="443.29411764705884"/>
      <point x="247.94117647058823" y="442.2352941176471" type="curve" smooth="yes"/>
      <point x="308.3529411764706" y="441.70588235294116"/>
      <point x="371.94117647058823" y="439.1764705882353"/>
      <point x="432.3529411764706" y="436.11764705882354" type="curve"/>
      <point x="437.70588235294116" y="482.3529411764706" type="line"/>
      <point x="378.2352941176471" y="490.7647058823529"/>
      <point x="301.2352941176471" y="495.70588235294116"/>
    </contour>
  </outline>
</glyph>
<glyph name="t" format="2">
  <advance width="369.11764705882354"/>
  <unicode hex="0074"/>
  <anchor x="240.8235294117647" y="-7.882352941176471" name="bottom"/>
  <anchor x="150.47058823529412" y="643.3529411764706" name="top"/>
  <outline>
    <contour>
      <point x="180.29411764705884" y="631.0" type="line"/>
      <point x="117.23529411764706" y="631.0" type="line"/>
      <point x="117.23529411764706" y="112.88235294117646" type="line" smooth="yes"/>
      <point x="117.23529411764706" y="35.1764705882353"/>
      <point x="157.47058823529412" y="-7.882352941176471"/>
      <point x="236.64705882352942" y="-7.882352941176471" type="curve" smooth="yes"/>
      <point x="258.3529411764706" y="-7.882352941176471"/>
      <point x="307.8235294117647" y="-4.470588235294118"/>
      <point x="337.6470588235294" y="2.3529411764705883" type="curve"/>
      <point x="330.4117647058824" y="49.88235294117647" type="line"/>
      <point x="251.35294117647058" y="49.88235294117647" type="line" smooth="yes"/>
      <point x="202.70588235294116" y="49.88235294117647"/>
      <point x="180.29411764705884" y="71.23529411764706"/>
      <point x="180.29411764705884" y="120.47058823529412" type="curve" smooth="yes"/>
    </contour>
    <contour>
      <point x="343.70588235294116" y="484.2352941176471" type="line"/>
      <point x="124.17647058823529" y="484.2352941176471" type="line"/>
      <point x="29.294117647058822" y="479.2352941176471" type="line"/>
      <point x="29.294117647058822" y="433.52941176470586" type="line"/>
      <point x="343.70588235294116" y="433.52941176470586" type="line"/>
    </contour>
  </outline>
</glyph>
<glyph name="u" format="2">
  <advance width="566.5882352941177"/>
  <unicode hex="0075"/>
  <anchor x="276.0" y="-11.0" name="bottom"/>
  <anchor x="483.8235294117647" y="0.0" name="ogonek"/>
  <anchor x="283.29411764705884" y="557.5294117647059" name="top"/>
  <outline>
    <contour>
      <point x="144.1764705882353" y="484.2352941176471" type="line"/>
      <point x="80.6470588235294" y="484.2352941176471" type="line"/>
      <point x="80.6470588235294" y="120.41176470588235" type="line" smooth="yes"/>
      <point x="80.6470588235294" y="33.0"/>
      <point x="125.58823529411765" y="-12.470588235294118"/>
      <point x="212.0" y="-12.470588235294118" type="curve" smooth="yes"/>
      <point x="284.94117647058823" y="-12.470588235294118"/>
      <point x="356.05882352941177" y="19.176470588235293"/>
      <point x="433.1764705882353" y="81.41176470588235" type="curve"/>
      <point x="426.11764705882354" y="127.47058823529412" type="line"/>
      <point x="345.05882352941177" y="72.29411764705883"/>
      <point x="292.1764705882353" y="43.0"/>
      <point x="232.52941176470588" y="43.0" type="curve" smooth="yes"/>
      <point x="170.2941176470588" y="43.0"/>
      <point x="143.70588235294116" y="70.0"/>
      <point x="144.1764705882353" y="137.05882352941177" type="curve" smooth="yes"/>
    </contour>
    <contour>
      <point x="482.4117647058824" y="484.2352941176471" type="line"/>
      <point x="419.3529411764706" y="484.2352941176471" type="line"/>
      <point x="419.3529411764706" y="105.88235294117646" type="line"/>
      <point x="425.6470588235294" y="90.82352941176471" type="line"/>
      <point x="432.4117647058824" y="0.0" type="line"/>
      <point x="482.4117647058824" y="0.0" type="line"/>
    </contour>
  </outline>
</glyph>
<glyph name="v" format="2">
  <advance width="521.5882352941177"/>
  <unicode hex="0076"/>
  <outline>
    <contour>
      <point x="499.11764705882354" y="484.2352941176471" type="line"/>
      <point x="431.70588235294116" y="484.2352941176471" type="line"/>
      <point x="300.4117647058824" y="134.7058823529412" type="line" smooth="yes"/>
      <point x="289.29411764705884" y="105.58823529411765"/>
      <point x="278.1764705882353" y="76.05882352941177"/>
      <point x="267.05882352941177" y="46.94117647058823" type="curve"/>
      <point x="254.05882352941177" y="46.94117647058823" type="line"/>
      <point x="243.41176470588235" y="75.52941176470588"/>
      <point x="232.8235294117647" y="105.58823529411765"/>
      <point x="221.7058823529412" y="134.1764705882353" type="curve" smooth="yes"/>
      <point x="89.88235294117646" y="484.2352941176471" type="line"/>
      <point x="22.470588235294116" y="484.2352941176471" type="line"/>
      <point x="207.23529411764707" y="16.470588235294116" type="line" smooth="yes"/>
      <point x="211.1764705882353" y="6.294117647058823"/>
      <point x="219.88235294117646" y="0.0"/>
      <point x="231.05882352941177" y="0.0" type="curve" smooth="yes"/>
      <point x="290.05882352941177" y="0.0" type="line" smooth="yes"/>
      <point x="301.70588235294116" y="0.0"/>
      <point x="309.94117647058823" y="6.294117647058823"/>
      <point x="314.3529411764706" y="16.470588235294116" type="curve" smooth="yes"/>
    </contour>
  </outline>
</glyph>
<glyph name="w" format="2">
  <advance width="819.5294117647059"/>
  <unicode hex="0077"/>
  <anchor x="410.2352941176471" y="555.6470588235294" name="top"/>
  <outline>
    <contour>
      <point x="791.6470588235294" y="484.2352941176471" type="line"/>
      <point x="725.6470588235294" y="484.2352941176471" type="line"/>
      <point x="611.1764705882352" y="113.35294117647058" type="line" smooth="yes"/>
      <point x="603.6470588235294" y="89.47058823529412"/>
      <point x="599.0588235294117" y="67.05882352941177"/>
      <point x="592.9411764705883" y="43.17647058823529" type="curve"/>
      <point x="579.4117647058823" y="43.17647058823529" type="line"/>
      <point x="573.3529411764706" y="67.05882352941177"/>
      <point x="566.8235294117648" y="89.94117647058823"/>
      <point x="560.7647058823529" y="113.35294117647058" type="curve" smooth="yes"/>
      <point x="464.4117647058824" y="463.47058823529414" type="line" smooth="yes"/>
      <point x="461.47058823529414" y="476.0"/>
      <point x="451.7647058823529" y="484.2352941176471"/>
      <point x="439.1764705882353" y="484.2352941176471" type="curve" smooth="yes"/>
      <point x="380.8235294117647" y="484.2352941176471" type="line" smooth="yes"/>
      <point x="367.7647058823529" y="484.2352941176471"/>
      <point x="358.52941176470586" y="476.0"/>
      <point x="355.5882352941176" y="463.94117647058823" type="curve" smooth="yes"/>
      <point x="258.7647058823529" y="113.35294117647058" type="line" smooth="yes"/>
      <point x="252.7058823529412" y="89.94117647058823"/>
      <point x="246.1764705882353" y="66.58823529411765"/>
      <point x="240.11764705882354" y="43.17647058823529" type="curve"/>
      <point x="226.58823529411765" y="43.17647058823529" type="line"/>
      <point x="220.94117647058823" y="66.05882352941177"/>
      <point x="215.41176470588235" y="89.94117647058823"/>
      <point x="208.35294117647058" y="112.82352941176471" type="curve" smooth="yes"/>
      <point x="93.88235294117646" y="484.2352941176471" type="line"/>
      <point x="27.88235294117647" y="484.2352941176471" type="line"/>
      <point x="179.35294117647058" y="18.88235294117647" type="line" smooth="yes"/>
      <point x="182.2941176470588" y="6.764705882352941"/>
      <point x="192.47058823529412" y="0.0"/>
      <point x="205.05882352941177" y="0.0" type="curve" smooth="yes"/>
      <point x="263.05882352941177" y="0.0" type="line" smooth="yes"/>
      <point x="276.11764705882354" y="0.0"/>
      <point x="286.7647058823529" y="8.235294117647058"/>
      <point x="289.70588235294116" y="20.764705882352942" type="curve" smooth="yes"/>
      <point x="384.52941176470586" y="367.6470588235294" type="line" smooth="yes"/>
      <point x="391.11764705882354" y="392.5882352941176"/>
      <point x="397.70588235294116" y="417.52941176470586"/>
      <point x="404.29411764705884" y="442.94117647058823" type="curve"/>
      <point x="415.2352941176471" y="442.94117647058823" type="line"/>
      <point x="422.29411764705884" y="417.52941176470586"/>
      <point x="427.4117647058824" y="392.5882352941176"/>
      <point x="434.0" y="367.6470588235294" type="curve" smooth="yes"/>
      <point x="529.8235294117648" y="20.764705882352942" type="line" smooth="yes"/>
      <point x="532.7647058823529" y="8.235294117647058"/>
      <point x="543.4117647058823" y="0.0"/>
      <point x="556.0" y="0.0" type="curve" smooth="yes"/>
      <point x="614.9411764705883" y="0.0" type="line" smooth="yes"/>
      <point x="627.5294117647059" y="0.0"/>
      <point x="637.2352941176471" y="6.764705882352941"/>
      <point x="640.6470588235294" y="18.88235294117647" type="curve" smooth="yes"/>
    </contour>
  </outline>
</glyph>
<glyph name="x" format="2">
  <advance width="520.0588235294117"/>
  <unicode hex="0078"/>
  <outline>
    <contour>
      <point x="480.0" y="484.2352941176471" type="line"/>
      <point x="410.0" y="484.2352941176471" type="line"/>
      <point x="255.11764705882354" y="250.94117647058823" type="line"/>
      <point x="422.05882352941177" y="0.0" type="line"/>
      <point x="492.52941176470586" y="0.0" type="line"/>
      <point x="322.7647058823529" y="250.94117647058823" type="line"/>
    </contour>
    <contour>
      <point x="110.05882352941177" y="484.2352941176471" type="line"/>
      <point x="40.05882352941177" y="484.2352941176471" type="line"/>
      <point x="197.2941176470588" y="250.94117647058823" type="line"/>
      <point x="27.529411764705884" y="0.0" type="line"/>
      <point x="98.0" y="0.0" type="line"/>
      <point x="264.94117647058823" y="250.94117647058823" type="line"/>
    </contour>
    <contour>
      <point x="302.94117647058823" y="277.52941176470586" type="line"/>
      <point x="217.05882352941177" y="277.52941176470586" type="line"/>
      <point x="217.05882352941177" y="226.8235294117647" type="line"/>
      <point x="302.94117647058823" y="226.8235294117647" type="line"/>
    </contour>
  </outline>
</glyph>
<glyph name="y" format="2">
  <advance width="520.5882352941177"/>
  <unicode hex="0079"/>
  <anchor x="418.47058823529414" y="-11.0" name="bottom"/>
  <anchor x="263.05882352941177" y="555.6470588235294" name="top"/>
  <outline>
    <contour>
      <point x="498.1764705882353" y="484.2352941176471" type="line"/>
      <point x="429.8235294117647" y="484.2352941176471" type="line"/>
      <point x="287.6470588235294" y="107.05882352941177" type="line" smooth="yes"/>
      <point x="278.6470588235294" y="82.23529411764706"/>
      <point x="267.70588235294116" y="51.17647058823529"/>
      <point x="257.7647058823529" y="27.352941176470587" type="curve" smooth="yes"/>
      <point x="235.47058823529412" y="-27.176470588235293" type="line" smooth="yes"/>
      <point x="209.88235294117646" y="-91.05882352941177"/>
      <point x="173.58823529411765" y="-139.11764705882354"/>
      <point x="94.05882352941177" y="-166.35294117647058" type="curve"/>
      <point x="101.94117647058823" y="-207.1764705882353" type="line"/>
      <point x="210.52941176470588" y="-194.88235294117646"/>
      <point x="261.05882352941177" y="-117.52941176470588"/>
      <point x="294.11764705882354" y="-34.294117647058826" type="curve" smooth="yes"/>
    </contour>
    <contour>
      <point x="90.35294117647058" y="484.2352941176471" type="line"/>
      <point x="22.470588235294116" y="484.2352941176471" type="line"/>
      <point x="206.2941176470588" y="16.941176470588236" type="line" smooth="yes"/>
      <point x="210.23529411764707" y="6.294117647058823"/>
      <point x="218.94117647058823" y="0.0"/>
      <point x="230.58823529411765" y="0.0" type="curve" smooth="yes"/>
      <point x="252.7058823529412" y="0.0" type="line"/>
      <point x="274.47058823529414" y="49.76470588235294" type="line"/>
      <point x="253.11764705882354" y="49.76470588235294" type="line"/>
      <point x="247.52941176470588" y="68.64705882352942"/>
      <point x="240.47058823529412" y="87.58823529411765"/>
      <point x="233.47058823529412" y="106.0" type="curve" smooth="yes"/>
    </contour>
  </outline>
</glyph>
<glyph name="z" format="2">
  <advance width="506.05882352941177"/>
  <unicode hex="007A"/>
  <anchor x="257.3529411764706" y="-11.0" name="bottom"/>
  <anchor x="251.11764705882354" y="555.6470588235294" name="top"/>
  <outline>
    <contour>
      <point x="381.0" y="432.6470588235294" type="line"/>
      <point x="50.1764705882353" y="52.588235294117645" type="line"/>
      <point x="122.05882352941177" y="51.588235294117645" type="line"/>
      <point x="452.4117647058824" y="431.6470588235294" type="line"/>
    </contour>
    <contour>
      <point x="455.88235294117646" y="52.588235294117645" type="line"/>
      <point x="50.1764705882353" y="52.588235294117645" type="line"/>
      <point x="50.1764705882353" y="0.0" type="line"/>
      <point x="455.88235294117646" y="0.0" type="line"/>
    </contour>
    <contour>
      <point x="452.4117647058824" y="484.2352941176471" type="line"/>
      <point x="53.64705882352941" y="484.2352941176471" type="line"/>
      <point x="53.64705882352941" y="431.6470588235294" type="line"/>
      <point x="452.4117647058824" y="431.6470588235294" type="line"/>
    </contour>
  </outline>
</glyph>
<glyph name="braceleft" format="2">
  <advance width="311.6470588235294"/>
  <unicode hex="007B"/>
  <outline>
    <contour>
      <point x="265.88235294117646" y="768.0" type="line"/>
      <point x="154.11764705882354" y="774.1176470588235"/>
      <point x="110.17647058823529" y="729.5882352941177"/>
      <point x="110.17647058823529" y="637.7647058823529" type="curve" smooth="yes"/>
      <point x="110.17647058823529" y="433.11764705882354" type="line" smooth="yes"/>
      <point x="110.17647058823529" y="368.88235294117646"/>
      <point x="99.11764705882354" y="368.88235294117646"/>
      <point x="49.411764705882355" y="353.3529411764706" type="curve"/>
      <point x="49.411764705882355" y="302.6470588235294" type="line"/>
      <point x="95.58823529411765" y="285.11764705882354"/>
      <point x="114.17647058823529" y="280.5882352941176"/>
      <point x="114.17647058823529" y="226.88235294117646" type="curve" smooth="yes"/>
      <point x="114.17647058823529" y="-34.76470588235294" type="line" smooth="yes"/>
      <point x="114.17647058823529" y="-126.58823529411765"/>
      <point x="158.11764705882354" y="-171.11764705882354"/>
      <point x="269.88235294117646" y="-165.0" type="curve"/>
      <point x="269.88235294117646" y="-123.94117647058823" type="line"/>
      <point x="196.47058823529412" y="-123.94117647058823"/>
      <point x="175.35294117647058" y="-94.88235294117646"/>
      <point x="175.35294117647058" y="-31.0" type="curve" smooth="yes"/>
      <point x="175.35294117647058" y="214.52941176470588" type="line" smooth="yes"/>
      <point x="174.88235294117646" y="284.52941176470586"/>
      <point x="156.47058823529412" y="305.52941176470586"/>
      <point x="86.88235294117646" y="328.0" type="curve"/>
      <point x="153.94117647058823" y="342.0"/>
      <point x="171.8235294117647" y="363.52941176470586"/>
      <point x="171.35294117647058" y="445.47058823529414" type="curve" smooth="yes"/>
      <point x="171.35294117647058" y="633.5294117647059" type="line" smooth="yes"/>
      <point x="171.35294117647058" y="697.9411764705883"/>
      <point x="192.47058823529412" y="726.9411764705883"/>
      <point x="265.88235294117646" y="726.9411764705883" type="curve"/>
    </contour>
  </outline>
</glyph>
<glyph name="bar" format="2">
  <advance width="242.0"/>
  <unicode hex="007C"/>
  <outline>
    <contour>
      <point x="144.94117647058823" y="781.0" type="line"/>
      <point x="97.05882352941177" y="781.0" type="line"/>
      <point x="97.05882352941177" y="-169.0" type="line"/>
      <point x="144.94117647058823" y="-169.0" type="line"/>
    </contour>
  </outline>
</glyph>
<glyph name="braceright" format="2">
  <advance width="312.11764705882354"/>
  <unicode hex="007D"/>
  <outline>
    <contour>
      <point x="46.23529411764706" y="768.0" type="curve"/>
      <point x="46.23529411764706" y="726.9411764705883" type="line"/>
      <point x="119.6470588235294" y="726.9411764705883"/>
      <point x="140.76470588235293" y="697.9411764705883"/>
      <point x="140.76470588235293" y="633.5294117647059" type="curve" smooth="yes"/>
      <point x="140.76470588235293" y="445.47058823529414" type="line" smooth="yes"/>
      <point x="140.2941176470588" y="363.52941176470586"/>
      <point x="158.1764705882353" y="342.0"/>
      <point x="225.23529411764707" y="328.0" type="curve"/>
      <point x="155.64705882352942" y="305.52941176470586"/>
      <point x="137.23529411764707" y="284.52941176470586"/>
      <point x="136.76470588235293" y="214.52941176470588" type="curve" smooth="yes"/>
      <point x="136.76470588235293" y="-31.0" type="line" smooth="yes"/>
      <point x="136.76470588235293" y="-94.88235294117646"/>
      <point x="115.6470588235294" y="-123.94117647058823"/>
      <point x="42.23529411764706" y="-123.94117647058823" type="curve"/>
      <point x="42.23529411764706" y="-165.0" type="line"/>
      <point x="154.0" y="-171.11764705882354"/>
      <point x="197.94117647058823" y="-126.58823529411765"/>
      <point x="197.94117647058823" y="-34.76470588235294" type="curve" smooth="yes"/>
      <point x="197.94117647058823" y="226.88235294117646" type="line" smooth="yes"/>
      <point x="197.94117647058823" y="280.5882352941176"/>
      <point x="216.52941176470588" y="285.11764705882354"/>
      <point x="262.70588235294116" y="302.6470588235294" type="curve"/>
      <point x="262.70588235294116" y="353.3529411764706" type="line"/>
      <point x="213.0" y="368.88235294117646"/>
      <point x="201.94117647058823" y="368.88235294117646"/>
      <point x="201.94117647058823" y="433.11764705882354" type="curve" smooth="yes"/>
      <point x="201.94117647058823" y="637.7647058823529" type="line" smooth="yes"/>
      <point x="201.94117647058823" y="729.5882352941177"/>
      <point x="158.0" y="774.1176470588235"/>
    </contour>
  </outline>
</glyph>
<glyph name="asciitilde" format="2">
  <advance width="527.8235294117648"/>
  <unicode hex="007E"/>
  <outline>
    <contour>
      <point x="156.8235294117647" y="341.29411764705884" type="curve" smooth="yes"/>
      <point x="107.94117647058823" y="344.3529411764706"/>
      <point x="73.70588235294117" y="308.11764705882354"/>
      <point x="80.41176470588235" y="232.52941176470588" type="curve"/>
      <point x="114.82352941176471" y="232.52941176470588" type="line"/>
      <point x="114.82352941176471" y="277.29411764705884"/>
      <point x="126.6470588235294" y="296.47058823529414"/>
      <point x="164.35294117647058" y="292.47058823529414" type="curve" smooth="yes"/>
      <point x="230.11764705882354" y="287.0"/>
      <point x="284.5882352941176" y="234.64705882352942"/>
      <point x="372.0" y="230.58823529411765" type="curve" smooth="yes"/>
      <point x="422.29411764705884" y="227.05882352941177"/>
      <point x="455.11764705882354" y="264.1764705882353"/>
      <point x="448.4117647058824" y="336.29411764705884" type="curve"/>
      <point x="414.0" y="336.29411764705884" type="line"/>
      <point x="414.0" y="293.05882352941177"/>
      <point x="401.70588235294116" y="275.94117647058823"/>
      <point x="364.0" y="279.4117647058824" type="curve" smooth="yes"/>
      <point x="293.0" y="284.88235294117646"/>
      <point x="233.0" y="337.2352941176471"/>
    </contour>
  </outline>
</glyph>
<glyph name="exclamdown" format="2">
  <advance width="248.05882352941177"/>
  <unicode hex="00A1"/>
  <outline>
    <contour>
      <point x="149.58823529411765" y="280.29411764705884" type="line"/>
      <point x="98.47058823529412" y="280.29411764705884" type="line"/>
      <point x="92.23529411764706" y="111.88235294117646" type="line"/>
      <point x="92.23529411764706" y="-198.88235294117646" type="line"/>
      <point x="155.8235294117647" y="-198.88235294117646" type="line"/>
      <point x="155.8235294117647" y="111.88235294117646" type="line"/>
    </contour>
    <contour>
      <point x="133.2941176470588" y="488.47058823529414" type="curve" smooth="yes"/>
      <point x="115.76470588235294" y="488.47058823529414" type="line" smooth="yes"/>
      <point x="97.88235294117646" y="488.47058823529414"/>
      <point x="91.05882352941177" y="481.6470588235294"/>
      <point x="91.05882352941177" y="463.7647058823529" type="curve" smooth="yes"/>
      <point x="91.05882352941177" y="406.0" type="line" smooth="yes"/>
      <point x="91.05882352941177" y="388.11764705882354"/>
      <point x="97.88235294117646" y="381.7647058823529"/>
      <point x="115.76470588235294" y="381.7647058823529" type="curve" smooth="yes"/>
      <point x="133.2941176470588" y="381.7647058823529" type="line" smooth="yes"/>
      <point x="151.1764705882353" y="381.7647058823529"/>
      <point x="158.0" y="388.11764705882354"/>
      <point x="158.0" y="406.0" type="curve" smooth="yes"/>
      <point x="158.0" y="463.7647058823529" type="line" smooth="yes"/>
      <point x="158.0" y="481.6470588235294"/>
      <point x="151.1764705882353" y="488.47058823529414"/>
    </contour>
  </outline>
</glyph>
<glyph name="cent" format="2">
  <advance width="506.3529411764706"/>
  <unicode hex="00A2"/>
  <outline>
    <contour>
      <point x="286.11764705882354" y="603.8823529411765" type="curve" smooth="yes"/>
      <point x="121.0" y="603.8823529411765"/>
      <point x="59.11764705882353" y="535.9411764705883"/>
      <point x="59.11764705882353" y="349.52941176470586" type="curve" smooth="yes"/>
      <point x="59.11764705882353" y="162.64705882352942"/>
      <point x="120.52941176470588" y="95.17647058823529"/>
      <point x="286.1764705882353" y="95.17647058823529" type="curve" smooth="yes"/>
      <point x="339.8235294117647" y="95.17647058823529"/>
      <point x="398.0" y="103.11764705882354"/>
      <point x="444.8235294117647" y="117.3529411764706" type="curve"/>
      <point x="438.0" y="160.76470588235293" type="line"/>
      <point x="390.2352941176471" y="152.23529411764707"/>
      <point x="325.6470588235294" y="149.70588235294116"/>
      <point x="296.70588235294116" y="149.70588235294116" type="curve" smooth="yes"/>
      <point x="168.1764705882353" y="149.70588235294116"/>
      <point x="122.70588235294117" y="194.64705882352942"/>
      <point x="122.70588235294117" y="349.52941176470586" type="curve" smooth="yes"/>
      <point x="122.70588235294117" y="503.94117647058823"/>
      <point x="168.1764705882353" y="548.8823529411765"/>
      <point x="296.70588235294116" y="548.8823529411765" type="curve" smooth="yes"/>
      <point x="330.5882352941176" y="548.8823529411765"/>
      <point x="385.29411764705884" y="546.3529411764706"/>
      <point x="425.94117647058823" y="539.2352941176471" type="curve"/>
      <point x="435.2352941176471" y="582.6470588235294" type="line"/>
      <point x="389.47058823529414" y="598.9411764705883"/>
      <point x="326.8235294117647" y="603.8823529411765"/>
    </contour>
    <contour>
      <point x="287.0" y="126.17647058823529" type="line"/>
      <point x="250.47058823529412" y="126.17647058823529" type="line"/>
      <point x="239.64705882352942" y="0.0" type="line"/>
      <point x="276.1764705882353" y="0.0" type="line"/>
    </contour>
    <contour>
      <point x="321.88235294117646" y="568.2941176470588" type="line"/>
      <point x="284.88235294117646" y="568.2941176470588" type="line"/>
      <point x="250.94117647058823" y="123.6470588235294" type="line"/>
      <point x="287.47058823529414" y="123.6470588235294" type="line"/>
    </contour>
    <contour>
      <point x="332.6470588235294" y="690.0" type="line"/>
      <point x="296.11764705882354" y="690.0" type="line"/>
      <point x="285.3529411764706" y="565.7647058823529" type="line"/>
      <point x="322.3529411764706" y="565.7647058823529" type="line"/>
    </contour>
  </outline>
</glyph>
<glyph name="sterling" format="2">
  <advance width="566.1176470588235"/>
  <unicode hex="00A3"/>
  <outline>
    <contour>
      <point x="317.1764705882353" y="701.4705882352941" type="curve" smooth="yes"/>
      <point x="199.2941176470588" y="701.4705882352941"/>
      <point x="123.11764705882354" y="680.2941176470588"/>
      <point x="130.58823529411765" y="523.2352941176471" type="curve" smooth="yes"/>
      <point x="144.52941176470588" y="255.7058823529412" type="line" smooth="yes"/>
      <point x="149.52941176470588" y="166.0"/>
      <point x="135.47058823529412" y="94.76470588235294"/>
      <point x="65.41176470588235" y="56.35294117647059" type="curve"/>
      <point x="65.41176470588235" y="0.0" type="line"/>
      <point x="511.8235294117647" y="0.0" type="line"/>
      <point x="511.8235294117647" y="56.35294117647059" type="line"/>
      <point x="201.1764705882353" y="56.35294117647059" type="line" smooth="yes"/>
      <point x="179.76470588235293" y="56.35294117647059"/>
      <point x="158.35294117647058" y="56.35294117647059"/>
      <point x="136.94117647058823" y="54.0" type="curve"/>
      <point x="198.41176470588235" y="99.0"/>
      <point x="213.47058823529412" y="161.64705882352942"/>
      <point x="209.0" y="255.7058823529412" type="curve" smooth="yes"/>
      <point x="194.58823529411765" y="523.4117647058823" type="line" smooth="yes"/>
      <point x="190.11764705882354" y="612.8235294117648"/>
      <point x="219.35294117647058" y="644.6470588235294"/>
      <point x="307.8235294117647" y="644.6470588235294" type="curve" smooth="yes"/>
      <point x="393.8235294117647" y="644.6470588235294"/>
      <point x="427.94117647058823" y="643.6470588235294"/>
      <point x="483.8235294117647" y="640.0588235294117" type="curve"/>
      <point x="488.2352941176471" y="691.4705882352941" type="line"/>
      <point x="420.5882352941176" y="698.4705882352941"/>
      <point x="357.11764705882354" y="701.4705882352941"/>
    </contour>
    <contour>
      <point x="428.11764705882354" y="384.29411764705884" type="line"/>
      <point x="59.35294117647059" y="384.29411764705884" type="line"/>
      <point x="59.8235294117647" y="341.70588235294116" type="line"/>
      <point x="425.6470588235294" y="341.70588235294116" type="line"/>
    </contour>
  </outline>
</glyph>
<glyph name="currency" format="2">
  <advance width="596.8235294117648"/>
  <unicode hex="00A4"/>
  <outline>
    <contour>
      <point x="297.6470588235294" y="506.05882352941177" type="curve" smooth="yes"/>
      <point x="380.7647058823529" y="506.05882352941177"/>
      <point x="449.70588235294116" y="437.05882352941177"/>
      <point x="449.70588235294116" y="352.0" type="curve" smooth="yes"/>
      <point x="449.70588235294116" y="266.94117647058823"/>
      <point x="380.7647058823529" y="197.47058823529412"/>
      <point x="297.6470588235294" y="198.47058823529412" type="curve" smooth="yes"/>
      <point x="213.05882352941177" y="197.47058823529412"/>
      <point x="144.11764705882354" y="266.94117647058823"/>
      <point x="144.11764705882354" y="352.0" type="curve" smooth="yes"/>
      <point x="144.11764705882354" y="437.05882352941177"/>
      <point x="213.05882352941177" y="506.05882352941177"/>
    </contour>
    <contour>
      <point x="103.17647058823529" y="576.0588235294117" type="line"/>
      <point x="74.11764705882354" y="546.4705882352941" type="line"/>
      <point x="156.52941176470588" y="464.05882352941177" type="line"/>
      <point x="186.11764705882354" y="492.6470588235294" type="line"/>
    </contour>
    <contour>
      <point x="493.5882352941176" y="576.0588235294117" type="line"/>
      <point x="412.6470588235294" y="495.11764705882354" type="line"/>
      <point x="441.2352941176471" y="466.05882352941177" type="line"/>
      <point x="522.6470588235294" y="546.4705882352941" type="line"/>
    </contour>
    <contour>
      <point x="160.05882352941177" y="245.8235294117647" type="line"/>
      <point x="72.17647058823529" y="157.94117647058823" type="line"/>
      <point x="103.17647058823529" y="127.47058823529412" type="line"/>
      <point x="190.52941176470588" y="215.35294117647058" type="line"/>
    </contour>
    <contour>
      <point x="436.29411764705884" y="241.94117647058823" type="line"/>
      <point x="407.2352941176471" y="212.88235294117646" type="line"/>
      <point x="493.11764705882354" y="127.0" type="line"/>
      <point x="523.1764705882352" y="156.05882352941177" type="line"/>
    </contour>
    <contour>
      <point x="297.6470588235294" y="546.2941176470588" type="curve" smooth="yes"/>
      <point x="189.76470588235293" y="546.2941176470588"/>
      <point x="102.88235294117646" y="459.4117647058824"/>
      <point x="102.88235294117646" y="351.52941176470586" type="curve" smooth="yes"/>
      <point x="102.88235294117646" y="244.64705882352942"/>
      <point x="189.76470588235293" y="157.76470588235293"/>
      <point x="297.6470588235294" y="157.76470588235293" type="curve" smooth="yes"/>
      <point x="404.52941176470586" y="157.76470588235293"/>
      <point x="491.4117647058824" y="244.64705882352942"/>
      <point x="491.4117647058824" y="351.52941176470586" type="curve" smooth="yes"/>
      <point x="491.4117647058824" y="459.4117647058824"/>
      <point x="405.52941176470586" y="546.2941176470588"/>
    </contour>
  </outline>
</glyph>
<glyph name="yen" format="2">
  <advance width="612.3529411764706"/>
  <unicode hex="00A5"/>
  <outline>
    <contour>
      <point x="569.6470588235294" y="690.0" type="line"/>
      <point x="500.70588235294116" y="690.0" type="line"/>
      <point x="344.88235294117646" y="404.3529411764706" type="line" smooth="yes"/>
      <point x="333.3529411764706" y="381.47058823529414"/>
      <point x="320.70588235294116" y="354.11764705882354"/>
      <point x="309.5882352941176" y="330.2352941176471" type="curve"/>
      <point x="303.1764705882353" y="330.2352941176471" type="line"/>
      <point x="291.5882352941176" y="354.11764705882354"/>
      <point x="279.4117647058824" y="381.47058823529414"/>
      <point x="266.88235294117646" y="404.88235294117646" type="curve" smooth="yes"/>
      <point x="110.58823529411765" y="690.0" type="line"/>
      <point x="41.64705882352941" y="690.0" type="line"/>
      <point x="277.4117647058824" y="264.0" type="line"/>
      <point x="334.88235294117646" y="264.0" type="line"/>
    </contour>
    <contour>
      <point x="338.88235294117646" y="314.7647058823529" type="line"/>
      <point x="273.4117647058824" y="314.7647058823529" type="line"/>
      <point x="273.4117647058824" y="0.0" type="line"/>
      <point x="338.88235294117646" y="0.0" type="line"/>
    </contour>
    <contour>
      <point x="524.1764705882352" y="204.94117647058823" type="line"/>
      <point x="92.6470588235294" y="204.94117647058823" type="line"/>
      <point x="93.11764705882354" y="165.1764705882353" type="line"/>
      <point x="524.1764705882352" y="165.1764705882353" type="line"/>
    </contour>
    <contour>
      <point x="524.1764705882352" y="316.8235294117647" type="line"/>
      <point x="92.17647058823529" y="316.8235294117647" type="line"/>
      <point x="93.11764705882354" y="276.5882352941176" type="line"/>
      <point x="524.1764705882352" y="276.5882352941176" type="line"/>
    </contour>
  </outline>
</glyph>
<glyph name="brokenbar" format="2">
  <advance width="244.0"/>
  <unicode hex="00A6"/>
  <outline>
    <contour>
      <point x="145.94117647058823" y="781.0" type="line"/>
      <point x="98.05882352941177" y="781.0" type="line"/>
      <point x="98.05882352941177" y="381.0" type="line"/>
      <point x="145.94117647058823" y="381.0" type="line"/>
    </contour>
    <contour>
      <point x="145.94117647058823" y="231.0" type="line"/>
      <point x="98.05882352941177" y="231.0" type="line"/>
      <point x="98.05882352941177" y="-169.0" type="line"/>
      <point x="145.94117647058823" y="-169.0" type="line"/>
    </contour>
  </outline>
</glyph>
<glyph name="section" format="2">
  <advance width="543.9411764705883"/>
  <unicode hex="00A7"/>
  <outline>
    <contour>
      <point x="128.7058823529412" y="398.11764705882354" type="curve"/>
      <point x="80.82352941176471" y="398.11764705882354" type="line"/>
      <point x="62.76470588235294" y="289.3529411764706"/>
      <point x="76.29411764705883" y="220.11764705882354"/>
      <point x="168.8235294117647" y="169.76470588235293" type="curve" smooth="yes"/>
      <point x="341.0" y="73.05882352941177" type="line" smooth="yes"/>
      <point x="380.8235294117647" y="50.88235294117647"/>
      <point x="412.0" y="22.411764705882355"/>
      <point x="410.5882352941176" y="-30.11764705882353" type="curve" smooth="yes"/>
      <point x="410.11764705882354" y="-100.88235294117646"/>
      <point x="354.47058823529414" y="-101.82352941176471"/>
      <point x="274.5882352941176" y="-101.29411764705883" type="curve" smooth="yes"/>
      <point x="203.23529411764707" y="-100.29411764705883"/>
      <point x="147.11764705882354" y="-98.23529411764706"/>
      <point x="76.17647058823529" y="-94.23529411764706" type="curve"/>
      <point x="70.82352941176471" y="-143.2941176470588" type="line"/>
      <point x="146.47058823529412" y="-150.76470588235293"/>
      <point x="223.8235294117647" y="-154.2941176470588"/>
      <point x="288.2352941176471" y="-155.2941176470588" type="curve" smooth="yes"/>
      <point x="398.94117647058823" y="-155.8235294117647"/>
      <point x="477.94117647058823" y="-146.23529411764707"/>
      <point x="477.94117647058823" y="-32.0" type="curve" smooth="yes"/>
      <point x="477.94117647058823" y="43.76470588235294"/>
      <point x="442.94117647058823" y="82.94117647058823"/>
      <point x="376.3529411764706" y="121.23529411764706" type="curve" smooth="yes"/>
      <point x="196.52941176470588" y="223.1764705882353" type="line" smooth="yes"/>
      <point x="133.05882352941177" y="259.1764705882353"/>
      <point x="120.05882352941177" y="309.3529411764706"/>
    </contour>
    <contour>
      <point x="256.6470588235294" y="702.4705882352941" type="curve" smooth="yes"/>
      <point x="136.8235294117647" y="703.0"/>
      <point x="66.47058823529412" y="684.7647058823529"/>
      <point x="66.47058823529412" y="581.2352941176471" type="curve" smooth="yes"/>
      <point x="66.47058823529412" y="506.47058823529414"/>
      <point x="99.94117647058823" y="468.8235294117647"/>
      <point x="168.58823529411765" y="429.47058823529414" type="curve" smooth="yes"/>
      <point x="347.88235294117646" y="326.52941176470586" type="line" smooth="yes"/>
      <point x="409.29411764705884" y="291.5882352941176"/>
      <point x="424.3529411764706" y="237.8235294117647"/>
      <point x="415.70588235294116" y="149.52941176470588" type="curve"/>
      <point x="463.5882352941176" y="149.52941176470588" type="line"/>
      <point x="482.11764705882354" y="257.8235294117647"/>
      <point x="470.11764705882354" y="328.5882352941176"/>
      <point x="377.05882352941177" y="379.94117647058823" type="curve" smooth="yes"/>
      <point x="204.35294117647058" y="477.1764705882353" type="line" smooth="yes"/>
      <point x="162.52941176470588" y="500.88235294117646"/>
      <point x="132.88235294117646" y="527.8235294117648"/>
      <point x="133.8235294117647" y="579.8235294117648" type="curve" smooth="yes"/>
      <point x="134.76470588235293" y="646.4705882352941"/>
      <point x="189.35294117647058" y="649.0"/>
      <point x="270.7647058823529" y="648.0" type="curve" smooth="yes"/>
      <point x="369.7647058823529" y="647.4705882352941"/>
      <point x="406.94117647058823" y="645.4117647058823"/>
      <point x="468.70588235294116" y="641.4117647058823" type="curve"/>
      <point x="473.5882352941176" y="690.4705882352941" type="line"/>
      <point x="409.1764705882353" y="697.4705882352941"/>
      <point x="323.6470588235294" y="701.4705882352941"/>
    </contour>
  </outline>
</glyph>
<glyph name="dieresis" format="2">
  <advance width="406.7896470588235"/>
  <unicode hex="00A8"/>
  <anchor x="204.21035294117647" y="557.0371764705882" name="_top"/>
  <outline>
    <contour>
      <point x="303.3529411764706" y="685.7058823529412" type="curve" smooth="yes"/>
      <point x="281.5882352941176" y="685.7058823529412" type="line" smooth="yes"/>
      <point x="268.47058823529414" y="685.7058823529412"/>
      <point x="262.6470588235294" y="678.4117647058823"/>
      <point x="262.6470588235294" y="666.2352941176471" type="curve" smooth="yes"/>
      <point x="262.6470588235294" y="611.1764705882352" type="line" smooth="yes"/>
      <point x="262.6470588235294" y="598.0588235294117"/>
      <point x="268.47058823529414" y="591.7058823529412"/>
      <point x="281.5882352941176" y="591.7058823529412" type="curve" smooth="yes"/>
      <point x="303.3529411764706" y="591.7058823529412" type="line" smooth="yes"/>
      <point x="315.52941176470586" y="591.7058823529412"/>
      <point x="322.29411764705884" y="598.0588235294117"/>
      <point x="322.29411764705884" y="611.1764705882352" type="curve" smooth="yes"/>
      <point x="322.29411764705884" y="666.2352941176471" type="line" smooth="yes"/>
      <point x="322.29411764705884" y="678.4117647058823"/>
      <point x="315.52941176470586" y="685.7058823529412"/>
    </contour>
    <contour>
      <point x="126.3529411764706" y="685.7058823529412" type="curve" smooth="yes"/>
      <point x="104.11764705882354" y="685.7058823529412" type="line" smooth="yes"/>
      <point x="91.47058823529412" y="685.7058823529412"/>
      <point x="85.6470588235294" y="678.4117647058823"/>
      <point x="85.6470588235294" y="666.2352941176471" type="curve" smooth="yes"/>
      <point x="85.6470588235294" y="611.1764705882352" type="line" smooth="yes"/>
      <point x="85.6470588235294" y="598.0588235294117"/>
      <point x="91.47058823529412" y="591.7058823529412"/>
      <point x="104.11764705882354" y="591.7058823529412" type="curve" smooth="yes"/>
      <point x="126.3529411764706" y="591.7058823529412" type="line" smooth="yes"/>
      <point x="139.0" y="591.7058823529412"/>
      <point x="144.8235294117647" y="598.0588235294117"/>
      <point x="144.8235294117647" y="611.1764705882352" type="curve" smooth="yes"/>
      <point x="144.8235294117647" y="666.2352941176471" type="line" smooth="yes"/>
      <point x="144.8235294117647" y="678.4117647058823"/>
      <point x="139.0" y="685.7058823529412"/>
    </contour>
  </outline>
</glyph>
<glyph name="copyright" format="2">
  <advance width="843.8823529411765"/>
  <unicode hex="00A9"/>
  <outline>
    <contour>
      <point x="421.94117647058823" y="702.4705882352941" type="curve" smooth="yes"/>
      <point x="223.52941176470588" y="702.4705882352941"/>
      <point x="63.529411764705884" y="552.4705882352941"/>
      <point x="63.529411764705884" y="345.0" type="curve" smooth="yes"/>
      <point x="63.529411764705884" y="137.52941176470588"/>
      <point x="223.52941176470588" y="-12.470588235294118"/>
      <point x="421.94117647058823" y="-12.470588235294118" type="curve" smooth="yes"/>
      <point x="621.3529411764706" y="-12.470588235294118"/>
      <point x="780.3529411764706" y="137.52941176470588"/>
      <point x="780.3529411764706" y="345.0" type="curve" smooth="yes"/>
      <point x="780.3529411764706" y="552.4705882352941"/>
      <point x="621.3529411764706" y="702.4705882352941"/>
    </contour>
    <contour>
      <point x="426.94117647058823" y="572.0" type="curve" smooth="yes"/>
      <point x="283.4117647058824" y="572.0"/>
      <point x="231.94117647058823" y="511.88235294117646"/>
      <point x="231.94117647058823" y="347.52941176470586" type="curve" smooth="yes"/>
      <point x="231.94117647058823" y="182.7058823529412"/>
      <point x="283.4117647058824" y="123.05882352941177"/>
      <point x="426.94117647058823" y="123.05882352941177" type="curve" smooth="yes"/>
      <point x="491.94117647058823" y="123.05882352941177"/>
      <point x="530.9411764705883" y="127.52941176470588"/>
      <point x="571.4117647058823" y="136.94117647058823" type="curve"/>
      <point x="566.0" y="174.11764705882354" type="line"/>
      <point x="525.5294117647059" y="169.05882352941177"/>
      <point x="488.0" y="167.52941176470588"/>
      <point x="426.47058823529414" y="167.52941176470588" type="curve" smooth="yes"/>
      <point x="318.70588235294116" y="167.52941176470588"/>
      <point x="282.6470588235294" y="212.64705882352942"/>
      <point x="282.6470588235294" y="347.52941176470586" type="curve" smooth="yes"/>
      <point x="282.6470588235294" y="482.4117647058824"/>
      <point x="318.70588235294116" y="527.0"/>
      <point x="426.47058823529414" y="527.0" type="curve" smooth="yes"/>
      <point x="483.47058823529414" y="527.0"/>
      <point x="511.47058823529414" y="526.0"/>
      <point x="554.4705882352941" y="522.4117647058823" type="curve"/>
      <point x="560.8823529411765" y="559.0588235294117" type="line"/>
      <point x="521.4117647058823" y="568.5294117647059"/>
      <point x="488.88235294117646" y="572.0"/>
    </contour>
    <contour>
      <point x="421.94117647058823" y="665.4705882352941" type="curve" smooth="yes"/>
      <point x="598.4705882352941" y="665.4705882352941"/>
      <point x="742.4117647058823" y="530.0588235294117"/>
      <point x="742.4117647058823" y="345.0" type="curve" smooth="yes"/>
      <point x="742.4117647058823" y="159.94117647058823"/>
      <point x="598.4705882352941" y="24.52941176470588"/>
      <point x="421.94117647058823" y="24.52941176470588" type="curve" smooth="yes"/>
      <point x="246.41176470588235" y="24.52941176470588"/>
      <point x="101.47058823529412" y="159.94117647058823"/>
      <point x="101.47058823529412" y="345.0" type="curve" smooth="yes"/>
      <point x="101.47058823529412" y="530.0588235294117"/>
      <point x="246.41176470588235" y="665.4705882352941"/>
    </contour>
  </outline>
</glyph>
<glyph name="ordfeminine" format="2">
  <advance width="442.11764705882354"/>
  <unicode hex="00AA"/>
  <outline>
    <contour>
      <point x="255.1764705882353" y="604.7058823529412" type="curve" smooth="yes"/>
      <point x="188.41176470588235" y="604.7058823529412"/>
      <point x="131.0" y="596.7058823529412"/>
      <point x="84.05882352941177" y="590.2352941176471" type="curve"/>
      <point x="89.41176470588235" y="554.0" type="line"/>
      <point x="140.8235294117647" y="558.5882352941177"/>
      <point x="198.41176470588235" y="562.5882352941177"/>
      <point x="246.11764705882354" y="562.5882352941177" type="curve" smooth="yes"/>
      <point x="298.05882352941177" y="562.5882352941177"/>
      <point x="314.1764705882353" y="537.6470588235294"/>
      <point x="314.1764705882353" y="502.8235294117647" type="curve" smooth="yes"/>
      <point x="314.1764705882353" y="349.7647058823529" type="line"/>
      <point x="316.52941176470586" y="342.88235294117646" type="line"/>
      <point x="324.3529411764706" y="271.4117647058824" type="line"/>
      <point x="363.47058823529414" y="271.4117647058824" type="line"/>
      <point x="363.47058823529414" y="502.3529411764706" type="line" smooth="yes"/>
      <point x="363.47058823529414" y="578.2941176470588"/>
      <point x="323.1764705882353" y="604.7058823529412"/>
    </contour>
    <contour>
      <point x="339.52941176470586" y="469.2352941176471" type="line"/>
      <point x="159.23529411764707" y="469.2352941176471" type="line" smooth="yes"/>
      <point x="101.94117647058823" y="469.2352941176471"/>
      <point x="69.11764705882354" y="439.8235294117647"/>
      <point x="69.11764705882354" y="390.4117647058824" type="curve" smooth="yes"/>
      <point x="69.11764705882354" y="351.29411764705884" type="line" smooth="yes"/>
      <point x="69.11764705882354" y="295.94117647058823"/>
      <point x="106.3529411764706" y="266.0"/>
      <point x="164.76470588235293" y="266.0" type="curve" smooth="yes"/>
      <point x="239.41176470588235" y="266.0"/>
      <point x="304.4117647058824" y="315.52941176470586"/>
      <point x="328.11764705882354" y="345.0" type="curve"/>
      <point x="328.11764705882354" y="375.70588235294116" type="line"/>
      <point x="293.88235294117646" y="341.05882352941177"/>
      <point x="228.41176470588235" y="308.05882352941177"/>
      <point x="178.58823529411765" y="308.5882352941176" type="curve" smooth="yes"/>
      <point x="138.7058823529412" y="309.11764705882354"/>
      <point x="118.0" y="324.0"/>
      <point x="118.0" y="360.29411764705884" type="curve" smooth="yes"/>
      <point x="118.0" y="386.6470588235294" type="line" smooth="yes"/>
      <point x="118.0" y="415.5882352941176"/>
      <point x="133.8235294117647" y="432.29411764705884"/>
      <point x="172.52941176470588" y="433.7647058823529" type="curve" smooth="yes"/>
      <point x="338.52941176470586" y="441.47058823529414" type="line"/>
    </contour>
  </outline>
</glyph>
<glyph name="logicalnot" format="2">
  <advance width="591.1176470588235"/>
  <unicode hex="00AC"/>
  <outline>
    <contour>
      <point x="508.6470588235294" y="321.5882352941176" type="line"/>
      <point x="78.0" y="321.5882352941176" type="line"/>
      <point x="78.0" y="272.29411764705884" type="line"/>
      <point x="508.6470588235294" y="272.29411764705884" type="line"/>
    </contour>
    <contour>
      <point x="508.6470588235294" y="311.4117647058824" type="line"/>
      <point x="458.3529411764706" y="311.4117647058824" type="line"/>
      <point x="458.3529411764706" y="130.88235294117646" type="line"/>
      <point x="508.6470588235294" y="130.88235294117646" type="line"/>
    </contour>
  </outline>
</glyph>
<glyph name="registered" format="2">
  <advance width="563.1176470588235"/>
  <unicode hex="00AE"/>
  <outline>
    <contour>
      <point x="282.05882352941177" y="701.4705882352941" type="curve" smooth="yes"/>
      <point x="158.05882352941177" y="701.4705882352941"/>
      <point x="59.05882352941177" y="602.4705882352941"/>
      <point x="59.05882352941177" y="479.47058823529414" type="curve" smooth="yes"/>
      <point x="59.05882352941177" y="355.47058823529414"/>
      <point x="158.05882352941177" y="256.47058823529414"/>
      <point x="282.05882352941177" y="256.47058823529414" type="curve" smooth="yes"/>
      <point x="405.05882352941177" y="256.47058823529414"/>
      <point x="504.05882352941177" y="355.47058823529414"/>
      <point x="504.05882352941177" y="479.47058823529414" type="curve" smooth="yes"/>
      <point x="504.05882352941177" y="602.4705882352941"/>
      <point x="405.05882352941177" y="701.4705882352941"/>
    </contour>
    <contour>
      <point x="213.64705882352942" y="612.8823529411765" type="line"/>
      <point x="181.52941176470588" y="612.8823529411765" type="line"/>
      <point x="181.52941176470588" y="345.88235294117646" type="line"/>
      <point x="213.64705882352942" y="345.88235294117646" type="line"/>
    </contour>
    <contour>
      <point x="282.05882352941177" y="677.0" type="curve" smooth="yes"/>
      <point x="389.3529411764706" y="677.0"/>
      <point x="477.5882352941176" y="588.7647058823529"/>
      <point x="477.5882352941176" y="479.47058823529414" type="curve" smooth="yes"/>
      <point x="477.5882352941176" y="369.6470588235294"/>
      <point x="389.3529411764706" y="281.4117647058824"/>
      <point x="282.05882352941177" y="281.4117647058824" type="curve" smooth="yes"/>
      <point x="173.76470588235293" y="281.4117647058824"/>
      <point x="85.52941176470588" y="369.6470588235294"/>
      <point x="85.52941176470588" y="479.47058823529414" type="curve" smooth="yes"/>
      <point x="85.52941176470588" y="588.7647058823529"/>
      <point x="173.76470588235293" y="677.0"/>
    </contour>
    <contour>
      <point x="291.6470588235294" y="615.8823529411765" type="curve" smooth="yes"/>
      <point x="240.11764705882354" y="615.8823529411765"/>
      <point x="216.58823529411765" y="615.8823529411765"/>
      <point x="181.52941176470588" y="612.8823529411765" type="curve"/>
      <point x="188.52941176470588" y="589.0" type="line"/>
      <point x="202.05882352941177" y="590.0"/>
      <point x="241.11764705882354" y="590.0"/>
      <point x="291.1764705882353" y="590.0" type="curve" smooth="yes"/>
      <point x="343.2352941176471" y="590.0"/>
      <point x="362.0" y="580.3529411764706"/>
      <point x="361.52941176470586" y="536.7647058823529" type="curve" smooth="yes"/>
      <point x="362.0" y="495.6470588235294"/>
      <point x="343.2352941176471" y="484.0"/>
      <point x="291.1764705882353" y="483.0" type="curve" smooth="yes"/>
      <point x="187.52941176470588" y="483.0" type="line"/>
      <point x="186.52941176470588" y="460.6470588235294" type="line"/>
      <point x="201.35294117647058" y="459.6470588235294"/>
      <point x="235.7058823529412" y="459.11764705882354"/>
      <point x="293.7647058823529" y="459.11764705882354" type="curve" smooth="yes"/>
      <point x="315.94117647058823" y="459.11764705882354"/>
      <point x="330.6470588235294" y="451.0"/>
      <point x="339.7647058823529" y="428.2352941176471" type="curve" smooth="yes"/>
      <point x="370.5882352941176" y="345.88235294117646" type="line"/>
      <point x="405.1764705882353" y="345.88235294117646" type="line"/>
      <point x="372.4117647058824" y="430.2352941176471" type="line" smooth="yes"/>
      <point x="364.88235294117646" y="453.5882352941176"/>
      <point x="349.94117647058823" y="466.2352941176471"/>
      <point x="333.4117647058824" y="468.7647058823529" type="curve"/>
      <point x="333.4117647058824" y="470.7647058823529" type="line"/>
      <point x="377.0" y="476.29411764705884"/>
      <point x="394.11764705882354" y="496.7647058823529"/>
      <point x="394.11764705882354" y="539.6470588235294" type="curve" smooth="yes"/>
      <point x="394.11764705882354" y="598.8235294117648"/>
      <point x="365.1764705882353" y="615.8823529411765"/>
    </contour>
  </outline>
</glyph>
<glyph name="degree" format="2">
  <advance width="370.29411764705884"/>
  <unicode hex="00B0"/>
  <outline>
    <contour>
      <point x="185.41176470588235" y="702.4705882352941" type="curve" smooth="yes"/>
      <point x="115.05882352941177" y="702.4705882352941"/>
      <point x="57.64705882352941" y="645.5294117647059"/>
      <point x="57.64705882352941" y="577.1176470588235" type="curve" smooth="yes"/>
      <point x="57.64705882352941" y="507.70588235294116"/>
      <point x="115.52941176470588" y="450.29411764705884"/>
      <point x="185.41176470588235" y="450.29411764705884" type="curve" smooth="yes"/>
      <point x="254.76470588235293" y="450.29411764705884"/>
      <point x="312.6470588235294" y="507.70588235294116"/>
      <point x="312.6470588235294" y="577.1176470588235" type="curve" smooth="yes"/>
      <point x="312.6470588235294" y="646.0"/>
      <point x="254.2941176470588" y="702.4705882352941"/>
    </contour>
    <contour>
      <point x="185.41176470588235" y="661.7647058823529" type="curve" smooth="yes"/>
      <point x="232.52941176470588" y="661.7647058823529"/>
      <point x="270.52941176470586" y="625.6470588235294"/>
      <point x="270.52941176470586" y="577.1176470588235" type="curve" smooth="yes"/>
      <point x="270.52941176470586" y="529.6470588235294"/>
      <point x="232.05882352941177" y="491.0"/>
      <point x="185.41176470588235" y="491.0" type="curve" smooth="yes"/>
      <point x="137.76470588235293" y="491.0"/>
      <point x="99.76470588235294" y="529.6470588235294"/>
      <point x="99.76470588235294" y="577.1176470588235" type="curve" smooth="yes"/>
      <point x="99.76470588235294" y="625.6470588235294"/>
      <point x="137.76470588235293" y="661.7647058823529"/>
    </contour>
  </outline>
</glyph>
<glyph name="plusminus" format="2">
  <advance width="591.9411764705883"/>
  <unicode hex="00B1"/>
  <outline>
    <contour>
      <point x="511.29411764705884" y="379.1764705882353" type="line"/>
      <point x="80.6470588235294" y="379.1764705882353" type="line"/>
      <point x="80.6470588235294" y="329.88235294117646" type="line"/>
      <point x="511.29411764705884" y="329.88235294117646" type="line"/>
    </contour>
    <contour>
      <point x="511.29411764705884" y="127.29411764705883" type="line"/>
      <point x="80.6470588235294" y="127.29411764705883" type="line"/>
      <point x="80.6470588235294" y="78.47058823529412" type="line"/>
      <point x="511.29411764705884" y="78.47058823529412" type="line"/>
    </contour>
    <contour>
      <point x="321.3529411764706" y="517.2352941176471" type="line"/>
      <point x="270.5882352941176" y="517.2352941176471" type="line"/>
      <point x="271.11764705882354" y="191.8235294117647" type="line"/>
      <point x="320.3529411764706" y="191.8235294117647" type="line"/>
    </contour>
  </outline>
</glyph>
<glyph name="twosuperior" format="2">
  <advance width="396.47058823529414"/>
  <unicode hex="00B2"/>
  <outline>
    <contour>
      <point x="197.11764705882354" y="766.1764705882352" type="curve" smooth="yes"/>
      <point x="164.64705882352942" y="766.1764705882352"/>
      <point x="120.76470588235294" y="763.1176470588235"/>
      <point x="63.11764705882353" y="749.5294117647059" type="curve"/>
      <point x="67.11764705882354" y="710.3529411764706" type="line"/>
      <point x="119.82352941176471" y="719.0588235294117"/>
      <point x="156.05882352941177" y="722.1764705882352"/>
      <point x="195.88235294117646" y="722.1764705882352" type="curve" smooth="yes"/>
      <point x="245.11764705882354" y="722.1764705882352"/>
      <point x="275.2352941176471" y="712.3529411764706"/>
      <point x="275.3529411764706" y="668.2352941176471" type="curve" smooth="yes"/>
      <point x="275.47058823529414" y="626.7058823529412"/>
      <point x="251.64705882352942" y="595.0588235294117"/>
      <point x="198.05882352941177" y="540.2352941176471" type="curve" smooth="yes"/>
      <point x="65.23529411764706" y="403.88235294117646" type="line" smooth="yes"/>
      <point x="59.470588235294116" y="398.11764705882354"/>
      <point x="57.0" y="391.88235294117646"/>
      <point x="57.0" y="383.1764705882353" type="curve" smooth="yes"/>
      <point x="57.0" y="357.3529411764706" type="line"/>
      <point x="349.5882352941176" y="357.3529411764706" type="line"/>
      <point x="350.05882352941177" y="401.70588235294116" type="line"/>
      <point x="190.88235294117646" y="402.1764705882353" type="line" smooth="yes"/>
      <point x="167.41176470588235" y="402.1764705882353"/>
      <point x="149.88235294117646" y="402.1764705882353"/>
      <point x="126.41176470588235" y="400.7647058823529" type="curve"/>
      <point x="248.11764705882354" y="525.4117647058823" type="line" smooth="yes"/>
      <point x="302.70588235294116" y="582.1764705882352"/>
      <point x="331.94117647058823" y="623.5882352941177"/>
      <point x="331.94117647058823" y="673.5294117647059" type="curve" smooth="yes"/>
      <point x="331.94117647058823" y="746.4705882352941"/>
      <point x="282.6470588235294" y="766.1764705882352"/>
    </contour>
  </outline>
</glyph>
<glyph name="threesuperior" format="2">
  <advance width="399.70588235294116"/>
  <unicode hex="00B3"/>
  <outline>
    <contour>
      <point x="186.7058823529412" y="766.6470588235294" type="curve" smooth="yes"/>
      <point x="147.05882352941177" y="766.6470588235294"/>
      <point x="104.17647058823529" y="761.0588235294117"/>
      <point x="63.0" y="751.9411764705883" type="curve"/>
      <point x="67.52941176470588" y="714.2352941176471" type="line"/>
      <point x="96.3529411764706" y="718.8823529411765"/>
      <point x="140.88235294117646" y="723.5882352941177"/>
      <point x="181.11764705882354" y="723.5882352941177" type="curve" smooth="yes"/>
      <point x="249.41176470588235" y="723.5882352941177"/>
      <point x="270.5882352941176" y="711.4705882352941"/>
      <point x="271.6470588235294" y="663.4117647058823" type="curve" smooth="yes"/>
      <point x="272.1764705882353" y="630.1764705882352"/>
      <point x="266.1764705882353" y="588.5294117647059"/>
      <point x="193.76470588235293" y="587.4705882352941" type="curve" smooth="yes"/>
      <point x="109.82352941176471" y="586.4117647058823" type="line"/>
      <point x="109.82352941176471" y="547.7058823529412" type="line"/>
      <point x="193.76470588235293" y="547.1764705882352" type="line" smooth="yes"/>
      <point x="268.2352941176471" y="546.6470588235294"/>
      <point x="280.2352941176471" y="513.7647058823529"/>
      <point x="280.2352941176471" y="473.8235294117647" type="curve" smooth="yes"/>
      <point x="280.2352941176471" y="413.70588235294116"/>
      <point x="254.0" y="392.94117647058823"/>
      <point x="184.94117647058823" y="392.94117647058823" type="curve" smooth="yes"/>
      <point x="143.52941176470588" y="392.94117647058823"/>
      <point x="102.6470588235294" y="396.05882352941177"/>
      <point x="62.1764705882353" y="401.70588235294116" type="curve"/>
      <point x="56.588235294117645" y="363.52941176470586" type="line"/>
      <point x="97.17647058823529" y="355.94117647058823"/>
      <point x="146.52941176470588" y="349.3529411764706"/>
      <point x="195.35294117647058" y="349.3529411764706" type="curve" smooth="yes"/>
      <point x="295.52941176470586" y="349.3529411764706"/>
      <point x="334.94117647058823" y="387.4117647058824"/>
      <point x="333.47058823529414" y="468.6470588235294" type="curve" smooth="yes"/>
      <point x="332.47058823529414" y="525.4705882352941"/>
      <point x="313.0" y="559.4117647058823"/>
      <point x="256.52941176470586" y="570.0" type="curve"/>
      <point x="256.52941176470586" y="572.0" type="line"/>
      <point x="306.4117647058824" y="583.1176470588235"/>
      <point x="323.0" y="620.4705882352941"/>
      <point x="323.0" y="673.8235294117648" type="curve" smooth="yes"/>
      <point x="323.0" y="743.6470588235294"/>
      <point x="284.47058823529414" y="766.6470588235294"/>
    </contour>
  </outline>
</glyph>
<glyph name="acute" format="2">
  <advance width="301.0"/>
  <unicode hex="00B4"/>
  <anchor x="116.0" y="547.4738823529411" name="_top"/>
  <outline>
    <contour>
      <point x="217.0" y="722.5882352941177" type="line"/>
      <point x="52.94117647058823" y="576.6470588235294" type="line"/>
      <point x="76.82352941176471" y="546.7058823529412" type="line"/>
      <point x="254.76470588235293" y="674.5294117647059" type="line"/>
    </contour>
  </outline>
</glyph>
<glyph name="micro" format="2">
  <advance width="575.2941176470588"/>
  <unicode hex="00B5"/>
  <outline>
    <contour>
      <point x="146.70588235294116" y="484.2352941176471" type="line"/>
      <point x="84.17647058823529" y="484.2352941176471" type="line"/>
      <point x="84.17647058823529" y="127.94117647058823" type="line"/>
      <point x="84.17647058823529" y="33.294117647058826"/>
      <point x="142.94117647058823" y="-12.0"/>
      <point x="229.52941176470588" y="-12.0" type="curve" smooth="yes"/>
      <point x="311.8235294117647" y="-12.0"/>
      <point x="390.2352941176471" y="37.35294117647059"/>
      <point x="426.70588235294116" y="115.58823529411765" type="curve"/>
      <point x="423.70588235294116" y="242.1764705882353" type="line"/>
      <point x="421.6470588235294" y="135.1764705882353"/>
      <point x="335.7647058823529" y="46.294117647058826"/>
      <point x="237.94117647058823" y="46.294117647058826" type="curve" smooth="yes"/>
      <point x="177.11764705882354" y="46.294117647058826"/>
      <point x="146.70588235294116" y="70.94117647058823"/>
      <point x="146.70588235294116" y="142.7058823529412" type="curve" smooth="yes"/>
    </contour>
    <contour>
      <point x="146.23529411764707" y="83.94117647058823" type="line"/>
      <point x="84.17647058823529" y="164.05882352941177" type="line"/>
      <point x="84.17647058823529" y="-203.88235294117646" type="line"/>
      <point x="136.94117647058823" y="-203.88235294117646" type="line"/>
      <point x="145.76470588235293" y="-86.17647058823529" type="line"/>
    </contour>
    <contour>
      <point x="487.2352941176471" y="484.2352941176471" type="line"/>
      <point x="423.70588235294116" y="484.2352941176471" type="line"/>
      <point x="423.70588235294116" y="131.58823529411765" type="line"/>
      <point x="426.70588235294116" y="115.58823529411765" type="line"/>
      <point x="426.70588235294116" y="79.76470588235294" type="line" smooth="yes"/>
      <point x="426.70588235294116" y="23.647058823529413"/>
      <point x="445.4117647058824" y="-8.352941176470589"/>
      <point x="491.3529411764706" y="-8.352941176470589" type="curve" smooth="yes"/>
      <point x="513.1176470588235" y="-8.352941176470589"/>
      <point x="535.7058823529412" y="-4.470588235294118"/>
      <point x="557.1764705882352" y="2.3529411764705883" type="curve"/>
      <point x="552.2941176470588" y="40.88235294117647" type="line"/>
      <point x="517.5294117647059" y="40.88235294117647" type="line" smooth="yes"/>
      <point x="488.5882352941176" y="40.88235294117647"/>
      <point x="487.2352941176471" y="67.11764705882354"/>
      <point x="487.2352941176471" y="101.76470588235294" type="curve" smooth="yes"/>
    </contour>
  </outline>
</glyph>
<glyph name="paragraph" format="2">
  <advance width="594.6470588235294"/>
  <unicode hex="00B6"/>
  <outline>
    <contour>
      <point x="348.29411764705884" y="702.0" type="curve" smooth="yes"/>
      <point x="130.47058823529412" y="702.0"/>
      <point x="45.05882352941177" y="635.0"/>
      <point x="45.05882352941177" y="450.0" type="curve" smooth="yes"/>
      <point x="45.05882352941177" y="284.0"/>
      <point x="113.58823529411765" y="213.0"/>
      <point x="285.1764705882353" y="200.0" type="curve"/>
      <point x="315.8235294117647" y="657.8235294117648" type="line"/>
      <point x="359.88235294117646" y="657.8235294117648"/>
      <point x="439.05882352941177" y="654.8235294117648"/>
      <point x="487.6470588235294" y="645.8235294117648" type="curve"/>
      <point x="493.6470588235294" y="685.0" type="line"/>
      <point x="448.8235294117647" y="698.0"/>
      <point x="387.5882352941176" y="702.0"/>
    </contour>
    <contour>
      <point x="325.5882352941176" y="685.0" type="line"/>
      <point x="275.1764705882353" y="685.0" type="line"/>
      <point x="275.1764705882353" y="-210.0" type="line"/>
      <point x="325.5882352941176" y="-210.0" type="line"/>
    </contour>
    <contour>
      <point x="493.6470588235294" y="685.0" type="line"/>
      <point x="442.7647058823529" y="685.0" type="line"/>
      <point x="442.7647058823529" y="0.0" type="line"/>
      <point x="493.6470588235294" y="0.0" type="line"/>
    </contour>
  </outline>
</glyph>
<glyph name="cedilla" format="2">
  <advance width="228.41176470588235"/>
  <unicode hex="00B8"/>
  <guideline x="64.29411764705883" y="-107.17647058823529" angle="56.408199999999965"/>
  <anchor x="132.47058823529412" y="0.0" name="_bottom"/>
  <outline>
    <contour>
      <point x="94.52941176470588" y="-45.23529411764706" type="curve"/>
      <point x="87.76470588235294" y="-76.17647058823529" type="line"/>
      <point x="134.11764705882354" y="-76.70588235294117"/>
      <point x="147.23529411764707" y="-85.94117647058823"/>
      <point x="146.76470588235293" y="-114.47058823529412" type="curve" smooth="yes"/>
      <point x="145.8235294117647" y="-158.8235294117647"/>
      <point x="107.11764705882354" y="-193.35294117647058"/>
      <point x="46.94117647058823" y="-191.2941176470588" type="curve"/>
      <point x="36.8235294117647" y="-225.58823529411765" type="line"/>
      <point x="128.41176470588235" y="-237.52941176470588"/>
      <point x="192.23529411764707" y="-188.52941176470588"/>
      <point x="194.1764705882353" y="-110.23529411764706" type="curve" smooth="yes"/>
      <point x="195.64705882352942" y="-54.23529411764706"/>
      <point x="162.47058823529412" y="-39.411764705882355"/>
    </contour>
  </outline>
</glyph>
